<svg width="32" height="32" viewBox="0 0 32 32" fill="none" xmlns="http://www.w3.org/2000/svg">
<path fill-rule="evenodd" clip-rule="evenodd" d="M15.9993 29.3332C8.63935 29.3332 2.66602 23.3465 2.66602 15.9998C2.66602 8.63984 8.63935 2.6665 15.9993 2.6665C23.346 2.6665 29.3327 8.63984 29.3327 15.9998C29.3327 23.3465 23.346 29.3332 15.9993 29.3332ZM21.3327 13.3598C20.9327 12.9732 20.306 12.9732 19.9193 13.3732L15.9993 17.3065L12.0793 13.3732C11.6927 12.9732 11.0527 12.9732 10.666 13.3598C10.266 13.7598 10.266 14.3865 10.666 14.7732L15.2927 19.4265C15.4794 19.6132 15.7327 19.7198 15.9993 19.7198C16.266 19.7198 16.5194 19.6132 16.706 19.4265L21.3327 14.7732C21.5327 14.5865 21.626 14.3332 21.626 14.0798C21.626 13.8132 21.5327 13.5598 21.3327 13.3598Z" fill="#189D60"/>
</svg>
