<svg width="32" height="32" viewBox="0 0 32 32" fill="none" xmlns="http://www.w3.org/2000/svg">
<rect width="32" height="32" rx="16" fill="#189D60"/>
<path d="M23.7427 14.5014H18.1979V8.95665C18.1979 8.46646 18.0032 7.99635 17.6566 7.64974C17.3099 7.30312 16.8398 7.1084 16.3497 7.1084C15.8595 7.1084 15.3894 7.30312 15.0427 7.64974C14.6961 7.99635 14.5014 8.46646 14.5014 8.95665V14.5014H8.95665C8.46646 14.5014 7.99635 14.6961 7.64974 15.0427C7.30313 15.3894 7.1084 15.8595 7.1084 16.3497C7.1084 16.8398 7.30313 17.3099 7.64974 17.6566C7.99635 18.0032 8.46646 18.1979 8.95665 18.1979H14.5014V23.7427C14.5014 24.2328 14.6961 24.7029 15.0427 25.0496C15.3894 25.3962 15.8595 25.5909 16.3497 25.5909C16.8398 25.5909 17.3099 25.3962 17.6566 25.0496C18.0032 24.7029 18.1979 24.2328 18.1979 23.7427V18.1979H23.7427C24.2328 18.1979 24.7029 18.0032 25.0496 17.6566C25.3962 17.3099 25.5909 16.8398 25.5909 16.3497C25.5909 15.8595 25.3962 15.3894 25.0496 15.0427C24.7029 14.6961 24.2328 14.5014 23.7427 14.5014Z" fill="white"/>
</svg>
