<svg width="16" height="16" viewBox="0 0 16 16" fill="none" xmlns="http://www.w3.org/2000/svg">
<circle cx="8" cy="8" r="8" fill="#189D60"/>
<path d="M11.2714 5.85819C11.226 5.81246 11.172 5.77616 11.1126 5.75139C11.0531 5.72662 10.9893 5.71387 10.9249 5.71387C10.8605 5.71387 10.7967 5.72662 10.7373 5.75139C10.6778 5.77616 10.6239 5.81246 10.5785 5.85819L6.94351 9.49807L5.41633 7.966C5.36923 7.92051 5.31364 7.88474 5.25272 7.86073C5.1918 7.83672 5.12675 7.82495 5.06128 7.82608C4.99581 7.82722 4.9312 7.84123 4.87115 7.86733C4.8111 7.89343 4.75678 7.93111 4.71128 7.9782C4.66579 8.0253 4.63002 8.08089 4.60601 8.14181C4.582 8.20273 4.57023 8.26778 4.57136 8.33325C4.5725 8.39872 4.58651 8.46332 4.61261 8.52338C4.63871 8.58343 4.67639 8.63775 4.72348 8.68324L6.59709 10.5569C6.64245 10.6026 6.69641 10.6389 6.75587 10.6637C6.81533 10.6884 6.8791 10.7012 6.94351 10.7012C7.00792 10.7012 7.0717 10.6884 7.13116 10.6637C7.19061 10.6389 7.24458 10.6026 7.28994 10.5569L11.2714 6.57543C11.3209 6.52974 11.3604 6.47429 11.3874 6.41257C11.4145 6.35085 11.4284 6.2842 11.4284 6.21681C11.4284 6.14943 11.4145 6.08278 11.3874 6.02106C11.3604 5.95934 11.3209 5.90388 11.2714 5.85819V5.85819Z" fill="white" stroke="white"/>
</svg>
