<svg width="46" height="46" viewBox="0 0 46 46" fill="none" xmlns="http://www.w3.org/2000/svg">
<g clip-path="url(#clip0_854_4348)">
<path fill-rule="evenodd" clip-rule="evenodd" d="M0 0H45.4524V46H0V0Z" fill="#D94F00"/>
<path fill-rule="evenodd" clip-rule="evenodd" d="M25.861 8.91943H37.5128V20.5947H25.861V8.91943ZM11.7747 26.5004V27.6425H13.7829V33.6851H15.1676V27.5964H17.0373V26.4542L11.7747 26.5011V26.5004ZM10.7405 27.9163V26.7742C9.6296 26.2719 8.35208 26.1201 7.04405 26.7742C4.89895 27.7333 4.82229 32.4827 6.96817 33.4113C8.20031 34.0356 10.7702 33.7461 11.0292 33.1977V29.4379H8.47412V30.4276H9.59909V32.4068C5.90266 34.203 5.21814 25.5717 10.7405 27.9163ZM19.2896 30.3665H20.6125C21.7077 30.4127 21.9972 32.4827 20.5671 32.4671H19.2896V30.3665ZM19.2896 27.4595H20.6125C21.7077 27.6574 21.3127 29.2862 20.5671 29.3315H19.2896V27.4595ZM17.9206 26.3486V33.6241H21.556C23.4116 32.9544 23.4883 30.0779 21.556 29.7728C23.3357 29.5756 23.4273 26.3024 20.3543 26.3024L17.9206 26.3486ZM24.3394 28.3881V29.4684C25.3126 29.1946 27.4272 28.4334 27.2293 30.0474C25.3736 29.9253 24.111 30.2601 23.8982 31.4164C23.5485 33.9135 26.2256 34.1568 27.3513 32.9239V33.5177H28.6288V29.1336C28.3097 27.7176 26.1959 27.5354 24.3394 28.3881ZM25.419 31.2044C25.7085 30.8234 26.6363 30.8383 27.2598 31.0213V31.9805C26.2412 33.0757 24.5984 32.5742 25.4198 31.2036L25.419 31.2044ZM31.2762 29.682C31.611 29.3167 33.3908 28.6314 33.6646 29.682V33.5482H35.0939V29.4536C34.7896 27.7481 33.1616 27.4438 31.1847 28.6009V27.9617H29.8313V33.5787H31.2605L31.2762 29.682ZM39.5812 27.9007L37.7107 30.4119L39.6884 33.5021L41.4072 33.4567L39.2323 30.4886L41.1944 27.9461L39.582 27.9007H39.5812ZM36.1594 26.0583H37.5738V33.5021H36.1586V26.0591L36.1594 26.0583Z" fill="white"/>
<path fill-rule="evenodd" clip-rule="evenodd" d="M25.8594 8.91943H37.5111V20.5947H25.8594V8.91943Z" fill="white"/>
</g>
<defs>
<clipPath id="clip0_854_4348">
<rect width="45.4524" height="46" rx="6" fill="white"/>
</clipPath>
</defs>
</svg>
