<svg width="18" height="19" viewBox="0 0 18 19" fill="none" xmlns="http://www.w3.org/2000/svg">
<path d="M16.7144 7.36924C16.827 7.36927 16.9385 7.347 17.0425 7.3037C17.1465 7.26041 17.241 7.19694 17.3206 7.11692C17.4002 7.03689 17.4633 6.94189 17.5064 6.83733C17.5494 6.73277 17.5716 6.62071 17.5716 6.50754V3.92244C17.5716 3.74164 17.5151 3.5654 17.4099 3.41873C17.3047 3.27207 17.1563 3.16242 16.9856 3.10535L9.27135 0.520253C9.09529 0.461348 8.90499 0.461348 8.72893 0.520253L1.01465 3.10535C0.843991 3.16242 0.695547 3.27207 0.590373 3.41873C0.485199 3.5654 0.428637 3.74164 0.428711 3.92244V6.50754C0.428682 6.62071 0.450832 6.73277 0.493898 6.83733C0.536963 6.94189 0.600098 7.03689 0.679697 7.11692C0.759296 7.19694 0.853798 7.26041 0.957805 7.3037C1.06181 7.347 1.17328 7.36927 1.28585 7.36924H2.143V13.5599C1.64306 13.7369 1.20988 14.0652 0.90294 14.4996C0.595999 14.9341 0.430342 15.4534 0.428711 15.9862V17.7096C0.428682 17.8228 0.450832 17.9348 0.493898 18.0394C0.536963 18.144 0.600098 18.239 0.679697 18.319C0.759296 18.399 0.853798 18.4625 0.957805 18.5058C1.06181 18.5491 1.17328 18.5713 1.28585 18.5713H16.7144C16.827 18.5713 16.9385 18.5491 17.0425 18.5058C17.1465 18.4625 17.241 18.399 17.3206 18.319C17.4002 18.239 17.4633 18.144 17.5064 18.0394C17.5494 17.9348 17.5716 17.8228 17.5716 17.7096V15.9862C17.5699 15.4534 17.4043 14.9341 17.0973 14.4996C16.7904 14.0652 16.3572 13.7369 15.8573 13.5599V7.36924H16.7144ZM15.8573 16.8479H2.143V15.9862C2.14322 15.7578 2.2336 15.5387 2.3943 15.3772C2.55499 15.2156 2.77288 15.1247 3.00014 15.1245H15.0001C15.2274 15.1247 15.4453 15.2156 15.606 15.3772C15.7667 15.5387 15.8571 15.7578 15.8573 15.9862V16.8479ZM3.85728 13.4011V7.36924H5.57157V13.4011H3.85728ZM7.28585 13.4011V7.36924H10.7144V13.4011H7.28585ZM12.4287 13.4011V7.36924H14.143V13.4011H12.4287ZM2.143 5.64584V4.54347L9.00014 2.24532L15.8573 4.54347V5.64584H2.143Z" fill="#979797"/>
</svg>
