<svg width="16" height="18" viewBox="0 0 16 18" fill="none" xmlns="http://www.w3.org/2000/svg">
<path d="M6.27608 18H13.0469C14.6107 18 15.8828 16.7384 15.8828 15.1875V5.66016C15.8828 4.1093 14.6107 2.84766 13.0469 2.84766H6.27608C4.71229 2.84766 3.44014 4.1093 3.44014 5.66016V15.1875C3.44014 16.7384 4.71229 18 6.27608 18ZM13.0469 4.25391C13.8287 4.25391 14.4648 4.8848 14.4648 5.66016V15.1875C14.4648 15.9629 13.8287 16.5938 13.0469 16.5938H6.27608C5.49425 16.5938 4.85811 15.9629 4.85811 15.1875V5.66016C4.85811 4.8848 5.49425 4.25391 6.27608 4.25391H13.0469ZM0.604201 13.4297V2.8125C0.604201 1.26164 1.87636 0 3.44014 0H11.3099C11.7015 0 12.0188 0.314758 12.0188 0.703125C12.0188 1.09149 11.7015 1.40625 11.3099 1.40625H3.44014C2.65832 1.40625 2.02217 2.03714 2.02217 2.8125V13.4297C2.02217 13.8181 1.70479 14.1328 1.31319 14.1328C0.921582 14.1328 0.604201 13.8181 0.604201 13.4297Z" fill="#189D60"/>
</svg>
