<svg width="20" height="15" viewBox="0 0 20 15" fill="none" xmlns="http://www.w3.org/2000/svg">
<path d="M5.23749 9.90491H8.09463C8.34722 9.90491 8.58946 9.80457 8.76807 9.62597C8.94667 9.44736 9.04701 9.20512 9.04701 8.95253C9.04701 8.69994 8.94667 8.4577 8.76807 8.2791C8.58946 8.10049 8.34722 8.00015 8.09463 8.00015H5.23749C4.9849 8.00015 4.74266 8.10049 4.56406 8.2791C4.38545 8.4577 4.28511 8.69994 4.28511 8.95253C4.28511 9.20512 4.38545 9.44736 4.56406 9.62597C4.74266 9.80457 4.9849 9.90491 5.23749 9.90491ZM16.6661 0.381104H3.33273C2.57497 0.381104 1.84824 0.682123 1.31242 1.21794C0.776606 1.75376 0.475586 2.48048 0.475586 3.23825V11.8097C0.475586 12.5674 0.776606 13.2942 1.31242 13.83C1.84824 14.3658 2.57497 14.6668 3.33273 14.6668H16.6661C17.4238 14.6668 18.1505 14.3658 18.6864 13.83C19.2222 13.2942 19.5232 12.5674 19.5232 11.8097V3.23825C19.5232 2.48048 19.2222 1.75376 18.6864 1.21794C18.1505 0.682123 17.4238 0.381104 16.6661 0.381104ZM17.6184 11.8097C17.6184 12.0623 17.5181 12.3045 17.3395 12.4831C17.1609 12.6617 16.9186 12.7621 16.6661 12.7621H3.33273C3.08014 12.7621 2.8379 12.6617 2.65929 12.4831C2.48069 12.3045 2.38035 12.0623 2.38035 11.8097V6.09539H17.6184V11.8097ZM17.6184 4.19063H2.38035V3.23825C2.38035 2.98566 2.48069 2.74342 2.65929 2.56481C2.8379 2.38621 3.08014 2.28587 3.33273 2.28587H16.6661C16.9186 2.28587 17.1609 2.38621 17.3395 2.56481C17.5181 2.74342 17.6184 2.98566 17.6184 3.23825V4.19063Z" fill="white"/>
</svg>
