<svg width="24" height="24" viewBox="0 0 24 24" fill="none" xmlns="http://www.w3.org/2000/svg">
<path d="M20.7187 6C22.0199 6 22.9746 7.22278 22.659 8.48507L21.159 14.4851C20.9364 15.3754 20.1365 16 19.2187 16L8.66866 16C7.2188 16 5.97641 14.9631 5.71705 13.5367L4.16494 5L1.99951 5C1.44723 5 0.999512 4.55228 0.999512 4C0.999512 3.44772 1.44723 3 1.99951 3H4.16494C5.13151 3 5.95977 3.69125 6.13268 4.64223L7.68479 13.1789C7.77125 13.6544 8.18538 14 8.66866 14L19.2187 14L20.7187 8H9.99951C9.44723 8 8.99951 7.55229 8.99951 7C8.99951 6.44772 9.44723 6 9.99951 6H20.7187Z" fill="#898A8D"/>
<path d="M12 19C12 20.1046 11.1046 21 9.99999 21C8.89542 21 7.99999 20.1046 7.99999 19C7.99999 17.8954 8.89542 17 9.99999 17C11.1046 17 12 17.8954 12 19Z" fill="#898A8D"/>
<path d="M17 21C18.1046 21 19 20.1046 19 19C19 17.8954 18.1046 17 17 17C15.8954 17 15 17.8954 15 19C15 20.1046 15.8954 21 17 21Z" fill="#898A8D"/>
</svg>
