<svg width="19" height="20" viewBox="0 0 19 20" fill="none" xmlns="http://www.w3.org/2000/svg">
<path d="M16.3238 7.46826C16.3238 7.46826 15.7808 14.2033 15.4658 17.0403C15.3158 18.3953 14.4788 19.1893 13.1078 19.2143C10.4988 19.2613 7.88681 19.2643 5.27881 19.2093C3.95981 19.1823 3.13681 18.3783 2.98981 17.0473C2.67281 14.1853 2.13281 7.46826 2.13281 7.46826" stroke="#F24748" stroke-width="1.5" stroke-linecap="round" stroke-linejoin="round"/>
<path d="M17.708 4.23975H0.75" stroke="#F24748" stroke-width="1.5" stroke-linecap="round" stroke-linejoin="round"/>
<path d="M14.4406 4.23973C13.6556 4.23973 12.9796 3.68473 12.8256 2.91573L12.5826 1.69973C12.4326 1.13873 11.9246 0.750732 11.3456 0.750732H7.11258C6.53358 0.750732 6.02558 1.13873 5.87558 1.69973L5.63258 2.91573C5.47858 3.68473 4.80258 4.23973 4.01758 4.23973" stroke="#F24748" stroke-width="1.5" stroke-linecap="round" stroke-linejoin="round"/>
</svg>
