<svg width="28" height="48" viewBox="0 0 28 48" fill="none" xmlns="http://www.w3.org/2000/svg">
<path fill-rule="evenodd" clip-rule="evenodd" d="M15.4535 39.1803L16.8469 39.1379C17.4793 39.226 19.6223 38.7047 20.1839 38.4933C24.4028 36.9048 26.4248 33.7222 27.2926 29.3833C27.9701 25.9957 27.7436 23.3358 27.4323 19.9774C27.3862 19.4816 27.2722 18.6583 27.1595 18.1973L15.4419 18.1907L15.4535 39.1803Z" fill="#E5002E"/>
<path fill-rule="evenodd" clip-rule="evenodd" d="M13.9406 39.1533L15.4534 39.1803L15.4418 18.1907L12.567 18.1909L9.62935 18.1918L3.62838 18.2188C3.60468 19.1435 3.15912 21.4747 3.15967 23.6248C3.1605 26.7039 3.29992 29.4996 4.51098 32.3984C6.13067 36.2752 9.01157 38.3553 12.9886 39.0139C13.2405 39.0555 13.6348 39.0775 13.9409 39.153L13.9406 39.1533Z" fill="#FF6E6E"/>
<path fill-rule="evenodd" clip-rule="evenodd" d="M15.4417 18.1907L27.1593 18.1973L26.7616 15.8664C26.3023 13.7438 25.7462 11.4438 25.0629 9.40912C24.463 7.62244 23.6099 8.06277 20.9717 8.06277C19.1308 8.06277 17.2898 8.06277 15.4486 8.06277L15.4414 18.1907H15.4417Z" fill="#6AD9EB"/>
<path fill-rule="evenodd" clip-rule="evenodd" d="M12.5663 18.191L15.4414 18.1907L15.4483 8.0625L10.1919 8.0749L12.5663 18.191Z" fill="#A2EDFF"/>
<path fill-rule="evenodd" clip-rule="evenodd" d="M3.62842 18.2191L9.62939 18.1921L7.24862 8.07739L7.19103 8.0818C6.06953 7.99252 5.83807 8.9721 5.56086 9.8073C5.26079 10.7111 5.04889 11.5678 4.80971 12.5248C4.19495 14.9844 4.10292 15.8551 3.62869 18.2188L3.62842 18.2191Z" fill="#A2EDFF"/>
<path fill-rule="evenodd" clip-rule="evenodd" d="M7.19059 8.08166L7.24818 8.07726L10.1919 8.07478C10.0205 7.31728 9.28506 3.7307 8.85575 3.20963C8.40826 2.66679 4.12838 1.02478 3.06806 0.559922C2.70819 0.40203 2.05844 0.0562126 1.57291 0H1.26264C0.131226 0.111599 -0.368625 1.37886 0.302895 2.29397C0.592776 2.68911 1.11164 2.84673 1.6057 3.05367L6.07213 4.96214C6.69074 5.22391 6.56536 5.24458 6.81667 6.28011C6.92165 6.71245 7.18177 7.65235 7.19059 8.08166Z" fill="#176CAC"/>
<path fill-rule="evenodd" clip-rule="evenodd" d="M9.62909 18.1921L12.5665 18.191L10.192 8.07489L7.24805 8.07737L9.62909 18.1921Z" fill="#36A7E4"/>
<path fill-rule="evenodd" clip-rule="evenodd" d="M15.4346 47.9999H15.4919H15.5492H15.6065H15.6638H15.7211H15.7785H15.8358H15.8931H15.9504H16.0077H16.065H16.1223H16.1797H16.237H16.2943H16.3516H16.4089H16.4662H16.5236H16.5809H16.6382H16.6955H16.7528H16.8101H16.8674H16.9248H16.9821H17.0394H17.0967H17.154H17.2113H17.2686H17.326H17.3833H17.4406H17.4979H17.5552H17.6125H17.6698H17.7272H17.7845H17.8418H17.8991H17.9564H18.0137H18.0711H18.1284H18.1857H18.243H18.3003H18.3576H18.4149H18.4723H18.5296H18.5869H18.6442H18.7015H18.7588H18.8161H18.8735H18.9308H18.9881H19.0454H19.1027H20.8927C21.4286 47.9387 21.8412 47.7472 22.0712 47.2181C22.392 46.4802 22.203 45.1752 20.6067 45.1834C19.3579 45.1901 18.1014 45.1981 16.8528 45.1848L15.4437 45.189L15.4409 47.9999H15.4346Z" fill="#28C1D1"/>
<path fill-rule="evenodd" clip-rule="evenodd" d="M15.4348 47.9999L15.4375 45.189L14.0341 45.1865C12.8162 45.1912 11.593 45.1953 10.3754 45.1849C8.76779 45.1714 8.47322 46.3135 8.78845 47.1509C9.01275 47.7461 9.43876 47.9429 10.0152 47.9996H11.6903H11.7487H11.8071H11.8655H11.924H11.9824H12.0408H12.0992H12.1576H12.216H12.2745H12.3329H12.3913H12.4497H12.5081H12.5665H12.625H12.6834H12.7418H12.8002H12.8586H12.917H12.9755H13.0339H13.0923H13.1507H13.2091H13.2676H13.326H13.3844H13.4428H13.5012H13.5596H13.6181H13.6765H13.7349H13.7933H13.8517H13.9101H13.9686H14.027H14.0854H14.1438H14.2022H14.2606H14.3191H14.3775H14.4359H14.4943H14.5527H14.6111H14.6696H14.728H14.7864H14.8448H14.9032H14.9616H15.0201H15.0785H15.1369H15.1953H15.2537H15.3121H15.3706H15.429L15.4348 47.9999Z" fill="#6AD9EB"/>
<path fill-rule="evenodd" clip-rule="evenodd" d="M15.438 45.189L16.8469 45.1849V39.1379L15.4534 39.1803L15.438 45.189Z" fill="#008896"/>
<path fill-rule="evenodd" clip-rule="evenodd" d="M14.0339 45.1865L15.4373 45.189L15.4527 39.1803L13.9399 39.1533C14.1965 39.4928 14.0336 44.3056 14.0336 45.1865H14.0339Z" fill="#00A1B0"/>
<path fill-rule="evenodd" clip-rule="evenodd" d="M9.54781 26.2244C7.78538 26.9154 8.76442 29.4563 10.5156 28.8303C12.2262 28.2188 11.27 25.549 9.54781 26.2244Z" fill="#FFC9C6"/>
<path fill-rule="evenodd" clip-rule="evenodd" d="M22.7667 21.9123C20.9817 22.3923 21.6852 25.0957 23.5302 24.5909C25.1962 24.1352 24.5961 21.4204 22.7667 21.9123Z" fill="#FF6E6E"/>
<path fill-rule="evenodd" clip-rule="evenodd" d="M19.0249 29.4161C17.2117 29.911 17.9543 32.5971 19.7851 32.0925C21.3963 31.6483 20.8416 28.9201 19.0249 29.4161Z" fill="#FF6E6E"/>
</svg>
