<svg width="17" height="20" viewBox="0 0 17 20" fill="none" xmlns="http://www.w3.org/2000/svg">
<path fill-rule="evenodd" clip-rule="evenodd" d="M16.2702 3.24297C16.6364 3.24297 16.9412 3.56596 16.9412 3.97696V4.35696C16.9412 4.75795 16.6364 5.09095 16.2702 5.09095H0.671862C0.304809 5.09095 0 4.75795 0 4.35696V3.97696C0 3.56596 0.304809 3.24297 0.671862 3.24297H3.41606C3.97351 3.24297 4.45864 2.82197 4.58404 2.22798L4.72775 1.54598C4.95109 0.616994 5.68611 0 6.52731 0H10.4139C11.2459 0 11.9892 0.616994 12.2043 1.49699L12.3581 2.22698C12.4825 2.82197 12.9677 3.24297 13.526 3.24297H16.2702ZM14.8761 17.134C15.1626 14.2971 15.6642 7.55712 15.6642 7.48913C15.6825 7.28313 15.6193 7.08813 15.4939 6.93113C15.3594 6.78413 15.1891 6.69713 15.0015 6.69713H1.94684C1.75828 6.69713 1.57888 6.78413 1.45439 6.93113C1.32807 7.08813 1.26583 7.28313 1.27498 7.48913C1.27666 7.50162 1.29466 7.73903 1.32475 8.13595C1.45843 9.8992 1.83075 14.8102 2.07133 17.134C2.24158 18.846 3.29881 19.922 4.83018 19.961C6.01188 19.99 7.22929 20 8.47416 20C9.64671 20 10.8376 19.99 12.0559 19.961C13.6404 19.932 14.6967 18.875 14.8761 17.134Z" fill="#F24748"/>
</svg>
