<svg width="101" height="104" viewBox="0 0 101 104" fill="none" xmlns="http://www.w3.org/2000/svg">
<g clip-path="url(#clip0_520_1823)">
<path d="M78.9708 88.2571C78.9708 88.1524 78.9453 88.0448 78.9453 87.9401V27.2041C79.3387 26.8192 79.8452 26.839 80.3348 26.839C83.9288 26.839 87.5209 26.839 91.1112 26.839C91.6036 26.839 92.1073 26.8192 92.5035 27.2041V87.9401C92.4997 88.0462 92.4902 88.152 92.4752 88.2571C92.0337 88.6278 91.496 88.6193 90.964 88.6193C87.4662 88.6193 83.9665 88.6193 80.465 88.6193C79.9499 88.6193 79.4151 88.6278 78.9708 88.2571Z" fill="#F24748"/>
<path d="M56.0326 13.6375C60.4162 13.6375 64.8054 13.5497 69.1833 13.6375C72.5792 13.7054 75.3667 16.5976 75.5478 19.9935C75.562 20.2765 75.562 20.5595 75.562 20.8425C75.562 45.4459 75.562 70.0512 75.562 94.6584C75.562 98.3911 73.3857 101.105 69.8766 101.75C69.3535 101.832 68.824 101.866 68.2947 101.852C50.5095 101.852 32.7253 101.852 14.942 101.852C10.499 101.852 7.67188 99.0222 7.67188 94.5509C7.67188 70.0248 7.67188 45.4902 7.67188 20.9472C7.67188 16.4193 10.482 13.5894 15.0014 13.5894C19.0652 13.5894 23.1318 13.612 27.1956 13.6233C27.1956 13.9318 26.9465 14.0138 26.74 14.127C26.3048 14.3478 25.9223 14.6597 25.6186 15.0416C25.3148 15.4235 25.0969 15.8664 24.9797 16.34C24.8835 16.7079 24.7873 17.0928 24.3402 17.2173C22.2262 17.4466 20.0953 17.2739 17.9898 17.3192C16.8239 17.3447 15.6579 17.2768 14.492 17.3475C12.695 17.4522 11.5715 18.5842 11.43 20.3812C11.3932 20.8396 11.4074 21.3009 11.4074 21.7594C11.4074 45.8119 11.4074 69.8663 11.4074 93.9226C11.4074 94.6273 11.4442 95.3376 11.4612 96.0394C11.198 98.1845 12.4403 99.6844 14.5882 99.8089C15.0099 99.8315 15.4372 99.823 15.8589 99.823H67.3523C67.774 99.823 68.2013 99.823 68.623 99.8089C70.7737 99.6872 72.0189 98.2043 71.7585 96.0479C71.8151 94.9527 71.8123 93.8575 71.8123 92.7624V21.7084C71.8123 18.2842 70.8756 17.3617 67.4882 17.3305C64.6271 17.3051 61.7632 17.455 58.905 17.2428C58.7512 17.2046 58.6124 17.1214 58.506 17.004C58.3997 16.8866 58.3307 16.7402 58.3078 16.5834C58.1871 16.0157 57.9343 15.4844 57.57 15.0326C57.2057 14.5808 56.7401 14.2211 56.2109 13.9827C56.151 13.9486 56.1022 13.8978 56.0706 13.8365C56.0389 13.7752 56.0257 13.7061 56.0326 13.6375Z" fill="#189D60"/>
<path d="M24.5959 16.9966C24.7091 15.2987 25.6458 14.2403 27.1796 13.6375C28.3456 13.6375 29.5115 13.5781 30.6718 13.6149C31.283 13.6347 31.4641 13.4309 31.4302 12.8423C31.3815 12.24 31.4033 11.634 31.4953 11.0368C31.6974 9.84349 32.3203 8.76207 33.2512 7.98852C34.182 7.21498 35.3592 6.8005 36.5693 6.8202C39.9237 6.79756 43.2772 6.79756 46.6297 6.8202C49.587 6.84001 51.7378 9.02189 51.783 11.9933C51.803 12.276 51.803 12.5597 51.783 12.8423C51.7095 13.4281 51.9161 13.6403 52.5301 13.6177C53.6933 13.5809 54.8592 13.6177 56.0223 13.6403C57.5504 14.2459 58.4928 15.3072 58.6117 16.9995C59.1777 18.3805 58.8947 19.8011 58.8041 21.2104C58.0344 23.2847 56.9364 24.1026 54.763 24.1083C45.9958 24.1252 37.2287 24.1252 28.4616 24.1083C26.2684 24.1026 25.1845 23.2876 24.4063 21.2246C24.3355 19.8096 24.0526 18.3946 24.5959 16.9966Z" fill="#F24748"/>
<path d="M78.9547 23.7714C78.9547 21.5499 78.9292 19.3312 78.9547 17.1097C78.9745 15.0637 80.3696 13.643 82.4044 13.6204C84.6249 13.594 86.8455 13.594 89.066 13.6204C91.0866 13.643 92.5016 15.075 92.5214 17.1097C92.544 19.3312 92.5214 21.5499 92.5214 23.7714C92.1252 24.1562 91.6215 24.1364 91.129 24.1364C87.5445 24.1364 83.9523 24.1364 80.3527 24.1364C79.8546 24.1251 79.348 24.1449 78.9547 23.7714Z" fill="#189D60"/>
<path d="M78.9707 88.2571H92.4921C91.3601 90.538 90.2282 92.8199 89.0962 95.1027C88.7293 95.3108 88.3122 95.4136 87.8906 95.3998C86.4587 95.3998 85.0268 95.3998 83.5948 95.3998C83.1742 95.4133 82.758 95.3105 82.3921 95.1027C81.2469 92.8274 80.1064 90.5456 78.9707 88.2571Z" fill="#EFC79F"/>
<path d="M78.9551 23.7715H92.5133V27.2042H78.9551V23.7715Z" fill="#EFEFEF"/>
<path d="M82.3809 95.1028H89.085C88.519 96.2687 87.9464 97.4356 87.3672 98.6034C87.0333 99.2883 86.5352 99.7354 85.7315 99.7354C84.9278 99.7354 84.4354 99.2911 84.1015 98.6034C83.5326 97.4346 82.9553 96.2687 82.3809 95.1028Z" fill="#189D60"/>
<path d="M24.597 16.9966L24.6564 21.1906C24.7507 21.779 24.8946 22.3584 25.0866 22.9225C25.5988 24.3007 26.6006 25.0138 28.0382 25.1298C28.8136 25.1921 29.5918 25.1497 30.3701 25.1497C38.1807 25.1497 45.9941 25.1072 53.8047 25.1751C56.6347 25.1978 58.0242 24.5667 58.5477 21.1793C58.5684 19.7832 58.5892 18.3861 58.6099 16.9881C61.8587 16.9881 65.1188 16.9881 68.3591 16.9881C70.7985 16.9881 72.154 18.3522 72.154 20.8C72.154 45.4223 72.154 70.0427 72.154 94.6613C72.1294 95.1522 72.0793 95.6415 72.004 96.1272C72.0182 97.5053 71.0616 98.0883 69.9863 98.5439C69.2873 98.8269 68.5317 98.7873 67.7902 98.7873H15.4223C14.7177 98.7873 14.0074 98.8439 13.3254 98.5779C12.1934 98.1336 11.2029 97.5563 11.2086 96.1272C11.1548 95.5612 11.0586 94.9952 11.0586 94.449C11.0586 69.9663 11.0586 45.4846 11.0586 21.0038C11.0586 18.2475 12.3179 16.9881 15.0658 16.9853C18.2372 16.9815 21.4143 16.9853 24.597 16.9966Z" fill="#EFEFEF"/>
<path d="M11.209 96.1384C11.8854 97.7515 13.1079 98.4816 14.8625 98.4816C32.6873 98.4684 50.5158 98.4684 68.3482 98.4816C70.1027 98.4816 71.3168 97.7656 72.0016 96.1497C72.1159 96.6108 72.1272 97.0913 72.0347 97.5572C71.9422 98.0231 71.7481 98.4628 71.4663 98.8452C71.1845 99.2275 70.8218 99.543 70.4042 99.7692C69.9866 99.9955 69.5242 100.127 69.05 100.154C68.8745 100.154 68.6963 100.154 68.5208 100.154H14.6785C12.4627 100.154 10.9034 98.5835 11.0619 96.5205C11.0924 96.3867 11.1419 96.2581 11.209 96.1384Z" fill="#217624"/>
<path d="M58.5477 21.1877C58.9552 23.7856 57.1469 25.56 54.4386 25.5232C45.8866 25.4119 37.3336 25.4119 28.7796 25.5232C26.2978 25.5543 24.2178 23.9271 24.6564 21.1877C25.3809 23.081 26.7534 23.8168 28.774 23.8054C37.326 23.7526 45.879 23.7526 54.433 23.8054C56.4564 23.8196 57.8261 23.081 58.5477 21.1877Z" fill="#D1D1D1"/>
<path d="M31.4112 18.6776C31.4179 19.0159 31.3235 19.3484 31.1399 19.6326C30.9563 19.9169 30.692 20.1397 30.3809 20.2727C30.0698 20.4057 29.7261 20.4427 29.3938 20.379C29.0615 20.3152 28.7559 20.1537 28.516 19.9151C28.2762 19.6764 28.1131 19.3716 28.0477 19.0397C27.9823 18.7077 28.0175 18.3638 28.1489 18.052C28.2803 17.7402 28.5018 17.4748 28.7851 17.2898C29.0683 17.1048 29.4004 17.0086 29.7387 17.0136C29.9582 17.0117 30.1758 17.0534 30.379 17.1363C30.5822 17.2191 30.7669 17.3415 30.9225 17.4963C31.0781 17.6511 31.2014 17.8352 31.2853 18.038C31.3692 18.2408 31.412 18.4582 31.4112 18.6776Z" fill="#A00028"/>
<path d="M55.183 18.6777C55.1829 19.0157 55.0819 19.3459 54.8929 19.6261C54.704 19.9064 54.4358 20.1238 54.1225 20.2507C53.8093 20.3776 53.4653 20.4081 53.1346 20.3384C52.8039 20.2686 52.5016 20.1018 52.2663 19.8592C52.031 19.6166 51.8734 19.3093 51.8138 18.9766C51.7541 18.644 51.7951 18.3011 51.9315 17.9919C52.0678 17.6826 52.2934 17.4211 52.5792 17.2408C52.865 17.0605 53.1982 16.9696 53.536 16.9798C53.7562 16.9812 53.9739 17.0265 54.1764 17.113C54.3789 17.1994 54.5622 17.3254 54.7155 17.4834C54.8688 17.6415 54.9891 17.8285 55.0694 18.0336C55.1497 18.2386 55.1883 18.4576 55.183 18.6777Z" fill="#A00028"/>
<path d="M28.0515 45.7996C27.7685 41.7075 28.7817 38.0286 31.6201 34.9637C33.4778 32.9417 35.9053 31.5309 38.5818 30.9179C41.2584 30.3048 44.058 30.5184 46.6106 31.5304C49.1631 32.5423 51.3486 34.305 52.878 36.5855C54.4075 38.866 55.2089 41.5569 55.1764 44.3025C55.1764 44.7949 55.1595 45.2902 55.151 45.7854C54.7123 53.2281 47.8243 58.0135 41.6579 58.0334C35.6188 58.0532 28.4845 53.3923 28.0515 45.7996Z" fill="#F9B300"/>
<path d="M46.5854 84.898H30.1718C28.7795 84.898 28.0664 84.332 28.0381 83.251C28.0069 82.119 28.7455 81.5049 30.1747 81.5049H63.2283C64.6206 81.5049 65.3337 82.0709 65.362 83.1491C65.3932 84.2811 64.6545 84.898 63.2254 84.898H46.5854Z" fill="#D1D1D1"/>
<path d="M46.6932 73.0121C52.2059 73.0121 57.7168 73.0121 63.2257 73.0121C63.7266 73.0121 64.2218 73.0121 64.6407 73.3149C64.9222 73.5045 65.1383 73.7765 65.2594 74.0936C65.3804 74.4107 65.4006 74.7575 65.317 75.0865C65.2565 75.4212 65.0908 75.728 64.8439 75.9621C64.5971 76.1962 64.282 76.3455 63.9445 76.3882C63.6626 76.4191 63.3786 76.4258 63.0955 76.408H30.2598C30.0476 76.408 29.8353 76.4222 29.6259 76.408C29.1923 76.4006 28.7794 76.2216 28.4775 75.9102C28.1757 75.5988 28.0096 75.1805 28.0157 74.7469C28.0002 74.5255 28.0303 74.3032 28.1044 74.0939C28.1784 73.8847 28.2946 73.6929 28.4459 73.5304C28.5972 73.368 28.7803 73.2384 28.9837 73.1497C29.1872 73.0611 29.4068 73.0152 29.6287 73.015C30.4777 72.9725 31.3267 73.015 32.1757 73.015L46.6932 73.0121Z" fill="#D1D1D1"/>
<path d="M46.6479 67.9184C41.1352 67.9184 35.6243 67.9184 30.1154 67.9184C29.6117 67.9184 29.1193 67.9184 28.7004 67.593C28.4236 67.3964 28.2141 67.1191 28.1006 66.799C27.9872 66.4789 27.9753 66.1316 28.0665 65.8045C28.1346 65.469 28.309 65.1645 28.5639 64.9361C28.8188 64.7077 29.1406 64.5676 29.4815 64.5367C29.7637 64.511 30.0474 64.5053 30.3305 64.5197H63.0615C63.2737 64.5197 63.4888 64.5197 63.6982 64.5197C64.7113 64.5876 65.3594 65.2498 65.3622 66.2176C65.374 66.4399 65.3397 66.6621 65.2614 66.8705C65.1831 67.0788 65.0626 67.2687 64.9073 67.4282C64.7521 67.5876 64.5655 67.7133 64.3594 67.7972C64.1533 67.8811 63.932 67.9214 63.7095 67.9156C62.0116 67.9496 60.3136 67.9156 58.6157 67.9156L46.6479 67.9184Z" fill="#D1D1D1"/>
<path d="M46.6937 93.3707C41.1829 93.3707 35.672 93.3707 30.1612 93.3707C29.6632 93.3707 29.1679 93.3707 28.7463 93.0679C28.4652 92.8773 28.2499 92.6046 28.1298 92.287C28.0098 91.9693 27.9908 91.6223 28.0756 91.2935C28.1339 90.9607 28.2968 90.6551 28.5405 90.421C28.7842 90.1869 29.0962 90.0366 29.4311 89.9918C29.7129 89.9599 29.997 89.9523 30.2801 89.9691H63.1299C63.3422 89.9691 63.5573 89.9691 63.7667 89.9691C64.1951 89.9809 64.6019 90.1598 64.9001 90.4676C65.1983 90.7754 65.3644 91.1876 65.3627 91.6161C65.3783 91.8378 65.348 92.0603 65.2738 92.2697C65.1996 92.4792 65.0831 92.6711 64.9316 92.8336C64.78 92.9961 64.5966 93.1256 64.3927 93.2141C64.1889 93.3026 63.9691 93.3482 63.7469 93.3481C62.8979 93.3905 62.0489 93.3481 61.1999 93.3481L46.6937 93.3707Z" fill="#D1D1D1"/>
<path d="M56.8953 37.3382C56.8953 36.458 56.8585 35.5779 56.8953 34.6978C56.978 33.6321 57.4598 32.6368 58.2443 31.9108C59.0289 31.1848 60.0585 30.7815 61.1274 30.7815C62.1964 30.7815 63.2259 31.1848 64.0105 31.9108C64.7951 32.6368 65.2768 33.6321 65.3596 34.6978C65.3907 35.5751 65.3596 36.4552 65.3596 37.3353C65.3241 38.2416 64.9576 39.1035 64.3295 39.7577C63.8286 40.2756 64.0691 41.0397 63.7097 41.6029C63.6871 42.4518 63.6673 43.3008 63.6446 44.1498C63.4834 44.2892 63.2928 44.3903 63.0869 44.4457C62.8811 44.5011 62.6655 44.5092 62.4561 44.4696C61.1798 44.3592 59.8525 44.8092 58.6215 44.1498C58.6008 43.297 58.5791 42.4481 58.5564 41.6029C58.3692 40.5841 57.9294 39.6286 57.2773 38.8239C56.9151 38.4079 57.0707 37.8221 56.8953 37.3382Z" fill="#F5B662"/>
<path d="M24.6652 42.4489C24.6388 43.0149 24.6152 43.5809 24.5945 44.1468C24.4332 44.2862 24.2426 44.3874 24.0368 44.4427C23.831 44.4981 23.6153 44.5063 23.4059 44.4666C22.1296 44.3563 20.8024 44.8062 19.5742 44.1468L19.5034 42.4489C19.2403 41.6876 19.1469 40.8358 18.2356 40.4679C17.9526 40.3491 17.9696 39.9274 17.8762 39.6331C17.8649 36.9824 17.8489 34.3364 17.8281 31.6951C17.8281 31.0867 18.0291 30.6 18.6969 30.6113C19.3648 30.6226 19.5459 31.1348 19.5289 31.7433C19.5289 33.3676 19.5657 34.9948 19.5091 36.6164C19.4836 37.3437 19.7921 37.3918 20.3836 37.4003C20.975 37.4088 21.2665 37.3012 21.2325 36.5994C21.1788 35.0118 21.2325 33.4214 21.2127 31.831C21.2127 31.2056 21.3231 30.6283 22.0617 30.6254C22.8003 30.6226 22.9107 31.2084 22.9107 31.8281C22.9107 33.4186 22.9446 35.009 22.8909 36.5966C22.8654 37.2956 23.1342 37.4116 23.7399 37.4003C24.3455 37.389 24.6426 37.3493 24.6171 36.6192C24.5577 35.0316 24.6171 33.4412 24.5945 31.8508C24.5945 31.231 24.6907 30.6452 25.4435 30.6254C26.1962 30.6056 26.3179 31.1914 26.3123 31.8083C26.316 34.41 26.3094 37.0135 26.2924 39.6189C26.1991 39.9161 26.2189 40.3378 25.933 40.4679C25.0218 40.8471 24.9256 41.6961 24.6652 42.4489Z" fill="#F5B662"/>
<path d="M19.5745 44.147H24.5948L24.6203 55.7921C24.3118 57.1732 23.3808 57.9797 22.0931 57.9797C20.8055 57.9797 19.866 57.1647 19.5547 55.7921L19.5745 44.147Z" fill="#F24748"/>
<path d="M58.6088 44.147H63.6319L63.6489 55.7865C63.3404 57.1675 62.4094 57.974 61.1218 57.974C59.8341 57.974 58.9031 57.1703 58.5918 55.7865L58.6088 44.147Z" fill="#F24748"/>
<path d="M28.0526 45.7997C28.528 48.2504 29.2949 50.5851 30.9363 52.5293C34.6803 56.9553 39.4261 58.7325 45.0491 57.2383C50.5986 55.7639 53.9125 51.9746 54.9935 46.2921C55.0352 46.1237 55.0881 45.9582 55.152 45.7969C55.435 52.1642 50.1741 58.3137 43.7559 59.2391C38.894 59.9409 34.8387 58.4382 31.539 54.9376C30.3771 53.7245 29.4699 52.2909 28.8711 50.7214C28.2723 49.152 27.994 47.4785 28.0526 45.7997Z" fill="#D1D1D1"/>
<path d="M24.6199 66.2033C24.6232 66.878 24.4255 67.5383 24.052 68.1001C23.6784 68.6619 23.146 69.0997 22.5227 69.3577C21.8993 69.6157 21.2132 69.6822 20.5519 69.5486C19.8906 69.4151 19.2841 69.0876 18.8097 68.608C18.3352 68.1283 18.0144 67.5183 17.8881 66.8555C17.7619 66.1928 17.8358 65.5075 18.1006 64.887C18.3654 64.2665 18.8091 63.7389 19.3749 63.3716C19.9408 63.0042 20.6032 62.8137 21.2778 62.8244C21.7192 62.8263 22.156 62.9152 22.5631 63.0861C22.9701 63.257 23.3395 63.5066 23.6499 63.8204C23.9604 64.1343 24.2059 64.5064 24.3723 64.9153C24.5388 65.3242 24.6229 65.7619 24.6199 66.2033Z" fill="#D1D1D1"/>
<path d="M24.62 74.7101C24.6199 75.384 24.4193 76.0426 24.0437 76.6022C23.6681 77.1618 23.1345 77.5969 22.5109 77.8523C21.8872 78.1077 21.2017 78.1717 20.5415 78.0363C19.8813 77.9008 19.2764 77.572 18.8037 77.0917C18.331 76.6114 18.0119 76.0013 17.887 75.339C17.7621 74.6768 17.837 73.9923 18.1023 73.3728C18.3676 72.7533 18.8112 72.2267 19.3767 71.8601C19.9422 71.4935 20.604 71.3035 21.2778 71.3141C21.7207 71.316 22.1589 71.4055 22.5671 71.5774C22.9752 71.7494 23.3453 72.0005 23.656 72.3162C23.9667 72.6319 24.2118 73.0059 24.3773 73.4168C24.5427 73.8276 24.6252 74.2672 24.62 74.7101Z" fill="#D1D1D1"/>
<path d="M24.62 83.2001C24.6198 83.8751 24.4185 84.5347 24.0417 85.0947C23.6649 85.6548 23.1298 86.0898 22.5046 86.3443C21.8795 86.5989 21.1927 86.6614 20.5318 86.5238C19.871 86.3862 19.2662 86.0548 18.7946 85.5719C18.323 85.089 18.006 84.4765 17.884 83.8127C17.7621 83.1488 17.8407 82.4636 18.1099 81.8447C18.3792 81.2257 18.8267 80.701 19.3955 80.3375C19.9643 79.9741 20.6285 79.7884 21.3033 79.8041C22.193 79.8161 23.0416 80.1802 23.6633 80.8168C24.285 81.4533 24.629 82.3103 24.62 83.2001Z" fill="#D1D1D1"/>
<path d="M21.2245 88.2939C21.8984 88.294 22.557 88.4946 23.1166 88.8702C23.6762 89.2458 24.1113 89.7794 24.3667 90.403C24.6221 91.0267 24.6861 91.7122 24.5507 92.3724C24.4152 93.0326 24.0864 93.6375 23.6061 94.1102C23.1258 94.5829 22.5157 94.902 21.8534 95.0269C21.1912 95.1518 20.5067 95.0769 19.8872 94.8116C19.2677 94.5463 18.7411 94.1027 18.3745 93.5372C18.0079 92.9717 17.8179 92.3099 17.8286 91.6361C17.8304 91.1932 17.9199 90.755 18.0918 90.3468C18.2638 89.9387 18.5149 89.5686 18.8306 89.2579C19.1463 88.9472 19.5203 88.7021 19.9312 88.5366C20.342 88.3712 20.7816 88.2887 21.2245 88.2939Z" fill="#D1D1D1"/>
<path d="M19.5537 55.792C20.032 56.8815 20.7536 57.688 22.0328 57.7135C23.3657 57.739 24.1128 56.9183 24.6108 55.792C24.7014 56.9466 24.6533 58.0418 23.626 58.8483C23.297 59.1434 22.8889 59.3357 22.4519 59.4016C22.0149 59.4675 21.5682 59.404 21.1668 59.219C20.7224 59.0464 20.3353 58.7526 20.0496 58.3708C19.7639 57.9891 19.5912 57.5349 19.5509 57.0598C19.5264 56.6375 19.5273 56.2142 19.5537 55.792Z" fill="#D1D1D1"/>
<path d="M58.5928 55.792C59.0711 56.8815 59.7927 57.688 61.0718 57.7135C62.4047 57.739 63.1518 56.9183 63.6499 55.792C63.7404 56.9466 63.6923 58.0418 62.6651 58.8483C62.3361 59.1434 61.9279 59.3357 61.4909 59.4016C61.0539 59.4675 60.6072 59.404 60.2059 59.219C59.7614 59.0464 59.3743 58.7526 59.0887 58.3708C58.803 57.9891 58.6302 57.5349 58.59 57.0598C58.5655 56.6375 58.5664 56.2142 58.5928 55.792Z" fill="#D1D1D1"/>
<path d="M24.6647 42.4488C24.5742 41.5829 24.4072 40.7112 25.6099 40.3915C25.8929 40.3179 26.0655 39.8849 26.2919 39.6189C26.4023 41.6904 26.1363 42.1658 24.6647 42.4488Z" fill="#D1D2D2"/>
<path d="M63.6982 41.6001C63.5539 40.6351 63.6501 39.7776 64.4736 39.0758C64.9802 38.6456 65.0764 37.9268 65.348 37.3325C65.4782 39.022 65.1103 40.5134 63.6982 41.6001Z" fill="#D1D2D2"/>
<path d="M56.8936 37.3381C57.1726 38.2312 57.6572 39.0463 58.3085 39.7181C58.8377 40.2473 58.5094 40.9661 58.5434 41.6028C57.1313 40.5161 56.7634 39.0219 56.8936 37.3381Z" fill="#D1D2D2"/>
<path d="M17.8748 39.6333C18.0984 39.8993 18.2795 40.3295 18.5568 40.403C19.7596 40.7228 19.5898 41.5944 19.502 42.4604C18.0305 42.1661 17.7673 41.6935 17.8748 39.6333Z" fill="#D1D2D2"/>
<path d="M41.5357 54.3346C36.0145 54.3346 31.4102 49.6794 31.4102 44.1101C31.4191 42.7722 31.6914 41.4492 32.2116 40.2165C32.7319 38.9839 33.4898 37.8658 34.4421 36.9261C35.3944 35.9864 36.5225 35.2435 37.762 34.7397C39.0014 34.236 40.328 33.9813 41.6658 33.9902C43.0037 33.9991 44.3267 34.2715 45.5593 34.7917C46.792 35.3119 47.9101 36.0698 48.8498 37.0222C49.7895 37.9745 50.5324 39.1026 51.0362 40.342C51.5399 41.5815 51.7946 42.908 51.7857 44.2459C51.7857 49.7756 47.1361 54.3346 41.5357 54.3346Z" fill="#F24748"/>
</g>
<defs>
<clipPath id="clip0_520_1823">
<rect width="100.604" height="104" fill="white"/>
</clipPath>
</defs>
</svg>
