<svg width="32" height="32" viewBox="0 0 32 32" fill="none" xmlns="http://www.w3.org/2000/svg">
<rect width="32" height="32" rx="16" fill="#189D60"/>
<path d="M23.9979 15.044C23.9382 15.1162 23.9445 15.2088 23.9169 15.2906C23.8181 15.5796 23.6478 15.8417 23.4204 16.0545C22.231 17.1906 21.0416 18.3264 19.8519 19.4619C19.6014 19.7013 19.3233 19.9007 18.9483 19.9079C18.5732 19.9151 18.2667 19.6977 18.1293 19.3319C18.0632 19.1483 18.0308 18.9552 18.0337 18.761C18.0337 18.4132 18.0308 18.0649 18.0337 17.7167C18.0337 17.6341 18.0162 17.6078 17.923 17.613C15.2708 17.7566 12.9039 18.6075 10.8438 20.2182C10.1118 20.7942 9.45305 21.4502 8.88109 22.1729C8.71823 22.3775 8.52279 22.4437 8.3119 22.3723C8.10101 22.3009 7.99285 22.1374 8.00037 21.8781C8.10519 18.1739 9.81861 15.336 13.078 13.3519C14.274 12.6235 15.5999 12.2026 17.0035 12.0068C17.3117 11.9637 17.6236 11.9434 17.9347 11.9198C18.0153 11.9138 18.037 11.8907 18.0362 11.8153C18.0326 11.4518 18.0326 11.0886 18.0362 10.7259C18.0319 10.5018 18.0801 10.2796 18.1774 10.0757C18.3862 9.6676 18.8175 9.50086 19.2631 9.65923C19.4536 9.72781 19.6262 9.8349 19.7693 9.97316C21.0079 11.1534 22.2451 12.3351 23.4809 13.5182C23.7532 13.7755 23.9272 14.1126 23.9749 14.4756C23.9749 14.4872 23.9912 14.4971 24 14.5075L23.9979 15.044Z" fill="white"/>
</svg>
