<svg width="48" height="48" viewBox="0 0 48 48" fill="none" xmlns="http://www.w3.org/2000/svg">
<path fill-rule="evenodd" clip-rule="evenodd" d="M24.7999 3.00024C24.7999 3.91347 24.8398 4.13124 25.3 5.00014C24.0251 5.29725 23.7148 5.28959 22.3611 5.76125C20.585 6.3801 19.0354 7.30098 17.598 8.39805C15.6178 9.90933 13.6196 12.4449 12.6571 14.7567C11.9316 16.4989 11.2 18.7992 11.2 20.7996C10.4569 20.7996 9.93002 21.0601 9.52621 21.4256C8.27374 22.5593 8.47127 25.5994 11.4003 25.5994L12.6856 29.5138C12.847 29.9745 13.0035 30.3991 13.5999 30.3991H42.4001C43.2432 30.3991 43.4025 29.2424 43.7379 28.2367C44.0208 27.3875 44.4082 26.4223 44.6002 25.5988C47.5292 25.5988 47.7267 22.5588 46.4743 21.425C46.0705 21.0595 45.543 20.7991 44.8005 20.7991C44.8005 18.8796 44.0842 16.4912 43.3729 14.8267C42.7689 13.4129 41.5147 11.4009 40.4275 10.2721C39.7988 9.61933 39.2128 9.05356 38.5152 8.48451C35.8472 6.30568 33.7718 5.71474 30.7005 4.99959C31.9935 2.55594 30.6939 -0.000427246 27.8005 -0.000427246C26.2575 -0.000427246 24.8004 1.45613 24.8004 2.9997L24.7999 3.00024Z" fill="#231F20"/>
<path fill-rule="evenodd" clip-rule="evenodd" d="M6.40022 32.8001V33.6H0.79996C0.316263 33.6 0 33.9163 0 34.4V45.6C0 46.0837 0.316263 46.3999 0.79996 46.3999H6.40022C6.40022 47.0576 6.24921 47.9999 7.20018 47.9999H13.6004C14.5432 47.9999 14.4004 47.126 14.4004 46.1997C15.5243 46.4612 16.0441 47.1999 17.6002 47.1999H30.2004C31.3281 47.1999 32.2014 46.7835 32.9428 46.3425C35.4078 44.8777 45.6464 39.1319 46.6039 38.4036C47.8608 37.4483 48.356 35.2235 46.8775 33.7226C46.558 33.3981 46.4841 33.2783 46.0376 33.0622C43.9524 32.0537 42.6457 33.3204 40.7695 34.3688C40.3602 34.5975 40.0341 34.7896 39.6319 35.0314L36.2696 36.969C35.9506 37.1473 35.416 37.5156 35.1003 37.5998C34.3725 36.2248 31.8227 35.955 29.912 35.3876L24.0644 33.8348C20.2343 32.7158 20.4542 32.6359 17.1597 33.4594C16.5967 33.6 14.8283 34.0898 14.3998 34.0996C14.3998 33.0972 14.6138 31.9996 13.5999 31.9996H7.19964C6.71594 31.9996 6.39968 32.3158 6.39968 32.7995L6.40022 32.8001Z" fill="#231F20"/>
<path fill-rule="evenodd" clip-rule="evenodd" d="M32.145 20.7991C32.7847 20.4773 33.6793 20.3515 34.3053 20.0057C34.9115 19.6708 35.5408 19.1384 35.9128 18.7116C36.8479 17.6392 37.5554 16.4272 37.5943 14.4886C37.51 14.2517 37.5543 14.3523 37.3831 14.1176C36.5246 12.9456 34.993 11.7692 33.6727 11.0283C33.1945 10.7596 32.2742 10.4937 32.0865 10.1101C31.7615 9.44697 32.307 8.80405 33.0243 8.97586C34.8185 9.40429 37.5412 11.912 37.5833 11.9349L37.6112 9.87376C36.3205 8.39805 32.6063 6.94532 30.312 6.58036C21.9929 5.25676 13.4773 11.2192 12.8262 20.7744L32.145 20.7996V20.7991Z" fill="#F24748"/>
<path fill-rule="evenodd" clip-rule="evenodd" d="M35.699 39.1533C35.7198 40.5371 35.2218 41.4175 34.4635 41.9652C33.4955 42.6639 32.5911 42.7679 31.2817 42.4231C30.6081 42.2459 22.0947 40.0151 21.8589 39.8416C21.4053 39.5078 21.495 38.6909 21.9831 38.4797C22.4154 38.2926 23.1447 38.5853 23.5967 38.7024C25.7006 39.2457 27.8066 39.8296 29.9083 40.3926C30.7252 40.6115 32.4012 41.2664 33.1886 40.8883C34.1259 40.438 34.4843 39.0849 33.611 38.2882C33.0332 37.7607 22.7398 35.1453 21.1613 34.736C19.0776 34.1954 16.4633 35.4621 14.4114 35.8112L14.3999 44.3295C15.2393 44.6425 15.9801 45.2164 16.9349 45.4698C17.928 45.733 26.5946 45.6006 28.0003 45.6006C31.5438 45.6006 31.2527 45.4506 33.7779 43.9798C35.0719 43.2258 45.1075 37.5276 45.5513 37.1512C46.4131 36.4213 46.3009 35.1261 45.4156 34.585C44.4159 33.9743 43.5207 34.6665 42.7897 35.09C41.9865 35.5551 41.2637 35.9819 40.4462 36.4453L35.6995 39.1533H35.699Z" fill="#FFBCAB"/>
<path fill-rule="evenodd" clip-rule="evenodd" d="M14.1699 28.797L41.7997 28.8009L42.8787 25.6306L42.5 25.5934L42.3999 25.5989H13.4L13.127 25.6207L14.1699 28.797Z" fill="#FDC276"/>
<path fill-rule="evenodd" clip-rule="evenodd" d="M8 46.4H12.7998V33.6001H8V46.4Z" fill="#189D60"/>
<path fill-rule="evenodd" clip-rule="evenodd" d="M10.9261 22.4833C10.2678 22.7995 10.2251 23.553 10.8161 23.8835C11.2374 24.1193 16.8765 24 17.6004 24C21.4054 24 44.6924 24.1056 45.1191 23.9163C45.698 23.6597 45.7068 22.8083 45.1853 22.5161C44.8067 22.3038 43.5258 22.4001 43.0005 22.4001C38.1329 22.4001 11.3156 22.2967 10.9266 22.4833H10.9261Z" fill="#FFA733"/>
<path fill-rule="evenodd" clip-rule="evenodd" d="M37.5833 11.9339C37.841 12.3803 40.1156 14.2188 41.1098 17.991C41.2963 18.6996 40.8947 19.3737 40.1555 19.1516C39.3052 18.896 39.1531 15.8762 37.5948 14.4875C37.5559 16.4261 36.8479 17.6381 35.9133 18.7105C35.5412 19.1379 34.912 19.6697 34.3057 20.0046C33.6798 20.3504 32.7851 20.4768 32.1455 20.798H43.1731C42.9876 18.1787 42.3934 16.4141 41.3883 14.4103C40.6211 12.881 38.7143 10.5014 37.6117 9.87158L37.5838 11.9328L37.5833 11.9339Z" fill="#FF9811"/>
<path fill-rule="evenodd" clip-rule="evenodd" d="M5.60044 44.8001V35.2H1.6001V44.8001H5.60044Z" fill="#189D60"/>
<path fill-rule="evenodd" clip-rule="evenodd" d="M37.5947 14.488C39.1531 15.8767 39.3052 18.896 40.1555 19.1521C40.8947 19.3742 41.2963 18.7001 41.1097 17.9915C40.1155 14.2194 37.841 12.3814 37.5832 11.9344C37.5417 11.9114 34.8184 9.40374 33.0242 8.97531C32.3069 8.80404 31.7614 9.44642 32.0864 10.1096C32.2741 10.4931 33.1944 10.7596 33.6726 11.0277C34.993 11.7686 36.525 12.9456 37.383 14.117C37.5548 14.3512 37.5099 14.2506 37.5942 14.488H37.5947Z" fill="#231F20"/>
<path fill-rule="evenodd" clip-rule="evenodd" d="M27.6064 1.66623C25.491 2.2993 26.4557 5.29122 28.4348 4.73365C30.4538 4.16514 29.5549 1.08295 27.6064 1.66623Z" fill="#FF9811"/>
<path fill-rule="evenodd" clip-rule="evenodd" d="M5.6001 44.8001H6.40006V35.2H5.6001V44.8001Z" fill="#16751A"/>
<path fill-rule="evenodd" clip-rule="evenodd" d="M27.7266 8.08455C27.0371 8.41723 27.0393 9.23086 27.6817 9.51539C27.9444 9.63194 29.6603 9.72879 29.9202 9.61935C30.5319 9.36164 30.5117 8.44404 29.9202 8.18249C29.5125 8.00192 28.085 7.91164 27.7266 8.08455Z" fill="#231F20"/>
<path fill-rule="evenodd" clip-rule="evenodd" d="M10.1257 43.2838C9.13041 43.7593 9.50413 46.047 10.7134 45.5212C11.6102 45.1311 11.3125 42.717 10.1257 43.2838Z" fill="#231F20"/>
</svg>
