<svg width="19" height="21" viewBox="0 0 19 21" fill="none" xmlns="http://www.w3.org/2000/svg">
<path d="M3.90983 20.9754H3.87042H3.83375C3.82871 20.9721 3.82411 20.9683 3.82006 20.9639C3.79324 20.9261 3.74069 20.9409 3.71059 20.9091C3.69417 20.9037 3.67939 20.8938 3.66242 20.8894C3.64708 20.8776 3.62988 20.8683 3.61152 20.8621C3.60019 20.8601 3.58938 20.8558 3.57977 20.8495C3.56609 20.8363 3.55952 20.8161 3.54036 20.8079C3.53538 20.7999 3.52844 20.7934 3.52019 20.7889C3.51195 20.7843 3.50268 20.782 3.49329 20.7822C3.48164 20.7812 3.47084 20.7757 3.46318 20.7668C3.4484 20.7553 3.43636 20.7411 3.42213 20.7285C3.40867 20.7155 3.39588 20.7018 3.38382 20.6875C3.37479 20.6793 3.36848 20.6686 3.36575 20.6568C3.35225 20.6211 3.32914 20.5899 3.29898 20.5665C3.28148 20.5517 3.26635 20.5344 3.25409 20.515C3.24439 20.5067 3.2383 20.4949 3.23712 20.4822C3.23712 20.4505 3.21195 20.4275 3.20428 20.399C3.20078 20.3876 3.19857 20.3759 3.19771 20.364C3.19678 20.3464 3.1889 20.3298 3.17582 20.318H3.17308C3.16219 20.3041 3.15657 20.2869 3.15721 20.2693C3.15721 20.2561 3.15721 20.243 3.15721 20.2299V20.1926C3.15754 20.1839 3.15589 20.1751 3.15238 20.1671C3.14888 20.159 3.14361 20.1519 3.13696 20.1461L3.13258 20.1078C3.12413 20.0967 3.11918 20.0834 3.11835 20.0695C3.11835 20.0558 3.11835 20.0421 3.11835 20.029V19.9403C3.11835 19.9277 3.11835 19.9151 3.11835 19.9025C3.12273 19.8768 3.09098 19.8692 3.09043 19.8478C3.09185 19.8124 3.08797 19.777 3.07894 19.7427C3.07894 19.706 3.07894 19.6694 3.07894 19.6332C3.08187 19.6141 3.08102 19.5946 3.07642 19.5758C3.07181 19.5571 3.06356 19.5394 3.05212 19.5238C3.04236 19.4764 3.03777 19.4282 3.03843 19.3798C3.03843 19.3552 3.03843 19.3306 3.03843 19.3059C3.03843 19.2813 3.02584 19.2578 3.01161 19.237C3.01161 19.2129 3.01161 19.1888 3.01161 19.1647C3.01227 19.14 3.00876 19.1154 3.00121 19.0919C3.00287 19.0611 2.99955 19.0302 2.99136 19.0005C2.98595 18.9819 2.97956 18.9636 2.9722 18.9458C2.96564 18.9109 2.9618 18.8756 2.96071 18.8401C2.97549 18.7553 2.93608 18.6759 2.92732 18.596C2.92349 18.5615 2.92458 18.5265 2.91966 18.492C2.91966 18.4854 2.91582 18.4789 2.91418 18.4723C2.91207 18.4594 2.91079 18.4465 2.91035 18.4334C2.91371 18.4058 2.90875 18.3778 2.89612 18.353C2.89506 18.3464 2.89506 18.3398 2.89612 18.3333C2.88189 18.2725 2.889 18.2096 2.87915 18.1483C2.87551 18.1354 2.87348 18.1222 2.87313 18.1088C2.87313 18.0963 2.87313 18.0837 2.87313 18.0705C2.87342 18.0617 2.87176 18.0529 2.86826 18.0447C2.86476 18.0366 2.85951 18.0293 2.85288 18.0235H2.84905C2.8384 18.0093 2.83298 17.9919 2.83372 17.9742C2.83372 17.9605 2.83372 17.9468 2.83372 17.9326C2.83372 17.9184 2.83372 17.9063 2.83372 17.8926C2.83372 17.879 2.83372 17.8664 2.83372 17.8532V17.8155C2.83372 17.8034 2.83372 17.7914 2.83372 17.7793C2.83426 17.7706 2.8327 17.7619 2.82918 17.7539C2.82566 17.7459 2.82027 17.7388 2.81347 17.7334L2.80909 17.6945C2.79875 17.6802 2.79355 17.6628 2.79431 17.6452C2.79431 17.6315 2.79431 17.6179 2.79431 17.6042C2.79431 17.5905 2.79431 17.5779 2.79431 17.5642C2.79431 17.5505 2.79431 17.539 2.79431 17.5259V17.4903C2.79869 17.4662 2.77461 17.458 2.76639 17.4405C2.76639 17.406 2.75271 17.3737 2.75162 17.3398C2.74964 17.3337 2.74817 17.3275 2.74724 17.3212C2.74677 17.3019 2.74879 17.2825 2.75326 17.2637C2.75599 17.2216 2.74648 17.1796 2.72589 17.1428C2.73355 17.0951 2.71002 17.0497 2.71385 17.0021C2.71385 16.9769 2.71385 16.9517 2.71385 16.9265C2.71385 16.9014 2.71385 16.8932 2.71385 16.8767C2.71987 16.851 2.69524 16.8406 2.68648 16.822C2.68704 16.8087 2.68538 16.7954 2.68155 16.7826C2.66459 16.7131 2.68922 16.637 2.64707 16.5713C2.65364 16.521 2.63174 16.4733 2.63393 16.423C2.63393 16.348 2.64379 16.2725 2.60383 16.204C2.59256 16.1711 2.58973 16.1359 2.59562 16.1017C2.60046 16.0435 2.593 15.9849 2.57372 15.9298C2.57013 15.9017 2.56257 15.8742 2.55128 15.8483C2.54715 15.8349 2.54494 15.8211 2.54471 15.8072C2.54389 15.7937 2.54389 15.7802 2.54471 15.7667C2.54471 15.7536 2.54471 15.741 2.54471 15.7278C2.54471 15.7147 2.54471 15.6972 2.54471 15.6819C2.54517 15.6728 2.54359 15.6638 2.54009 15.6555C2.53658 15.6471 2.53124 15.6397 2.52446 15.6337L2.52008 15.5954C2.51195 15.5843 2.50703 15.5713 2.50585 15.5576C2.50585 15.5439 2.50585 15.5302 2.50585 15.5171C2.50585 15.504 2.50585 15.4908 2.50585 15.4777C2.50585 15.4646 2.50585 15.452 2.50585 15.4394C2.50585 15.4268 2.50585 15.4153 2.50585 15.4038C2.50721 15.393 2.50604 15.382 2.50243 15.3718C2.49882 15.3615 2.49287 15.3522 2.48505 15.3447L2.48067 15.3064C2.47223 15.2953 2.46727 15.282 2.46644 15.268C2.46644 15.2549 2.46644 15.2412 2.46644 15.2281C2.46644 15.215 2.46644 15.2018 2.46644 15.1881C2.46644 15.1745 2.46644 15.1619 2.46644 15.1493C2.46644 15.1367 2.46644 15.123 2.46644 15.1104C2.46644 15.0978 2.46644 15.0852 2.46644 15.0732C2.47027 15.0475 2.43743 15.0398 2.43853 15.0185C2.42825 14.9693 2.42421 14.9191 2.42648 14.869C2.42648 14.8247 2.43743 14.7776 2.40076 14.7404C2.40197 14.7108 2.39902 14.6811 2.392 14.6523C2.38735 14.6149 2.3857 14.5772 2.38707 14.5395C2.38707 14.5147 2.38707 14.4901 2.38707 14.4656C2.39419 14.4383 2.36463 14.4279 2.36025 14.406C2.35134 14.3435 2.34568 14.2807 2.34329 14.2177C2.33781 14.1987 2.33048 14.1804 2.32139 14.1629C2.32139 14.1492 2.32139 14.1356 2.32139 14.1213C2.2995 14.0305 2.32905 13.9325 2.28691 13.8444C2.27487 13.8175 2.29074 13.7869 2.27651 13.7606V13.7223C2.25891 13.6899 2.25274 13.6525 2.25899 13.6161C2.2621 13.5929 2.25769 13.5693 2.2464 13.5488C2.24628 13.5223 2.2399 13.4963 2.22779 13.4727C2.22415 13.4597 2.22213 13.4463 2.22177 13.4328C2.22177 13.4158 2.22177 13.3988 2.22177 13.3824C2.22177 13.366 2.22177 13.3556 2.22177 13.3424V13.3041C2.22177 13.2921 2.22177 13.28 2.22177 13.268C2.22231 13.2593 2.22076 13.2505 2.21723 13.2425C2.21371 13.2345 2.20832 13.2275 2.20152 13.222L2.19714 13.1832C2.18885 13.1722 2.18391 13.1591 2.18291 13.1454C2.18291 13.1317 2.18291 13.1186 2.18291 13.1049C2.18291 13.0912 2.18291 13.0786 2.18291 13.0655C2.18291 13.0523 2.18291 13.0397 2.18291 13.0266C2.18291 13.0135 2.18291 12.9965 2.18291 12.9812C2.18358 12.9721 2.18209 12.963 2.17857 12.9547C2.17505 12.9463 2.1696 12.9389 2.16266 12.933L2.15828 12.8942C2.15007 12.8832 2.14514 12.8701 2.14405 12.8564C2.14323 12.8427 2.14323 12.829 2.14405 12.8153C2.14405 12.8022 2.14405 12.7885 2.14405 12.7754C2.14405 12.7622 2.14405 12.7425 2.14405 12.7261C2.14405 12.7097 2.14405 12.7009 2.14405 12.6889C2.14843 12.6632 2.11723 12.6555 2.11558 12.6342C2.11724 12.5989 2.11337 12.5636 2.10409 12.5296C2.10409 12.5044 2.10409 12.4787 2.10409 12.4535C2.10409 12.4283 2.10409 12.4185 2.10409 12.3988C2.10665 12.3824 2.10547 12.3657 2.10063 12.3499C2.0958 12.334 2.08744 12.3195 2.07617 12.3074C2.07792 12.2714 2.07385 12.2353 2.06413 12.2006V12.1147C2.06763 12.0986 2.06705 12.0818 2.06247 12.066C2.05788 12.0501 2.04942 12.0356 2.03786 12.0238C2.03703 12.01 2.03703 11.9961 2.03786 11.9822C2.0377 11.9207 2.03035 11.8593 2.01596 11.7994C2.01416 11.7746 2.00843 11.7502 1.999 11.7272C1.98906 11.6795 1.98484 11.6308 1.98641 11.5821C1.999 11.511 1.95904 11.448 1.95357 11.3791C1.95456 11.3378 1.95033 11.2966 1.94098 11.2565C1.93606 11.2327 1.93385 11.2085 1.93441 11.1842C1.93569 11.165 1.93091 11.1458 1.92072 11.1295C1.92092 11.1164 1.91945 11.1033 1.91634 11.0906C1.90925 11.0411 1.90596 10.9912 1.90649 10.9412C1.90428 10.9349 1.90263 10.9285 1.90157 10.922C1.89903 10.9096 1.89757 10.8969 1.89719 10.8842C1.89719 10.8722 1.89719 10.8602 1.89719 10.8487C1.89699 10.8402 1.89503 10.8319 1.89145 10.8243C1.88787 10.8167 1.88274 10.8099 1.87639 10.8043H1.87256C1.86182 10.7902 1.8564 10.7728 1.85723 10.7551C1.85723 10.7416 1.85723 10.7279 1.85723 10.714C1.85723 10.7009 1.85723 10.6872 1.85723 10.6741V10.5963C1.85723 10.5843 1.85723 10.5723 1.85723 10.5602C1.85762 10.5515 1.85593 10.5429 1.85232 10.535C1.8487 10.5271 1.84325 10.5202 1.83643 10.5148L1.83205 10.4759C1.82179 10.4616 1.81659 10.4443 1.81727 10.4267C1.81727 10.4132 1.81727 10.3995 1.81727 10.3856C1.81727 10.3719 1.81727 10.3588 1.81727 10.3456V10.3068C1.81727 10.2942 1.81727 10.2822 1.81727 10.2696C1.82165 10.2444 1.79155 10.2373 1.78881 10.2148C1.78607 10.1924 1.77458 10.1601 1.77732 10.1338V10.0594C1.78182 10.0143 1.77226 9.96902 1.74995 9.92965C1.75243 9.90038 1.74965 9.87091 1.74174 9.84262C1.73219 9.79166 1.72633 9.74007 1.72422 9.68827C1.72799 9.67154 1.72756 9.65414 1.72298 9.63762C1.71839 9.6211 1.70979 9.60597 1.69795 9.59357C1.69795 9.55745 1.67989 9.52351 1.68536 9.48684C1.69239 9.43077 1.68348 9.37386 1.65963 9.32263C1.6558 9.30457 1.65963 9.28596 1.65471 9.26789C1.6495 9.25833 1.64686 9.24758 1.64704 9.23669C1.66073 9.1108 1.60709 8.99312 1.59942 8.86996C1.59599 8.8558 1.59415 8.84129 1.59395 8.82672C1.59082 8.75717 1.58018 8.68817 1.5622 8.62091C1.55811 8.60742 1.5559 8.59342 1.55564 8.57932C1.55564 8.56563 1.55564 8.55195 1.55564 8.53826V8.4994C1.55564 8.48736 1.55564 8.47532 1.55564 8.46327C1.55699 8.45257 1.55582 8.44169 1.55221 8.43151C1.54859 8.42134 1.54264 8.41216 1.53484 8.40471L1.53046 8.36584C1.5221 8.35497 1.51731 8.34178 1.51677 8.32808C1.51677 8.31494 1.51677 8.30126 1.51677 8.28757V8.21039C1.51677 8.19835 1.51677 8.18631 1.51677 8.17427C1.51813 8.16356 1.51696 8.15268 1.51334 8.14251C1.50973 8.13234 1.50378 8.12315 1.49597 8.1157L1.49159 8.07684C1.48323 8.06597 1.47845 8.05277 1.47791 8.03907C1.47791 8.02593 1.47791 8.01225 1.47791 7.99857V7.88198C1.47791 7.86994 1.47791 7.85789 1.47791 7.84585C1.47823 7.83713 1.47646 7.82845 1.47275 7.82055C1.46904 7.81264 1.46349 7.80574 1.45656 7.80042C1.44264 7.74686 1.43692 7.69149 1.43959 7.63621C1.43959 7.61104 1.43959 7.58586 1.43959 7.56123C1.43959 7.53659 1.41825 7.52236 1.41223 7.50102C1.41499 7.47247 1.4122 7.44366 1.40402 7.41618C1.40008 7.37983 1.3988 7.34324 1.40018 7.3067C1.40018 7.28207 1.40018 7.25744 1.40018 7.23281C1.40018 7.20818 1.37665 7.1945 1.37336 7.17151C1.3628 7.12207 1.35875 7.07147 1.36132 7.02098C1.35749 6.97829 1.37665 6.93121 1.33724 6.89509C1.3345 6.88832 1.33338 6.88102 1.33395 6.87374C1.33669 6.84035 1.31699 6.80915 1.32191 6.77576C1.31669 6.66659 1.30148 6.55813 1.27648 6.45173C1.27048 6.42777 1.26827 6.40302 1.26991 6.37838C1.27222 6.35578 1.26744 6.33301 1.25623 6.31325C1.25617 6.28694 1.24978 6.26103 1.23762 6.23771C1.23397 6.22469 1.23195 6.21127 1.2316 6.19775C1.2316 6.18133 1.2316 6.16436 1.2316 6.1474C1.2316 6.13043 1.2316 6.12112 1.2316 6.10799V6.06967C1.2316 6.05763 1.2316 6.04559 1.2316 6.033C1.23199 6.02432 1.2303 6.01567 1.22668 6.00777C1.22307 5.99987 1.21762 5.99295 1.2108 5.98757L1.20642 5.9487C1.19821 5.93775 1.19345 5.9246 1.19274 5.91094C1.19274 5.89725 1.19274 5.88357 1.19274 5.87043V5.79216C1.19274 5.77683 1.19274 5.76151 1.19274 5.74618C1.19309 5.73711 1.1914 5.72807 1.1878 5.71974C1.1842 5.7114 1.17878 5.70398 1.17194 5.69801L1.16756 5.6597C1.15928 5.64858 1.15451 5.63523 1.15387 5.62138C1.15387 5.6077 1.15387 5.59456 1.15387 5.58088C1.15387 5.56719 1.15387 5.55406 1.15387 5.54037C1.15387 5.52669 1.15387 5.50808 1.15387 5.49166C1.15387 5.47524 1.15387 5.46648 1.15387 5.45389C1.15825 5.42817 1.12705 5.4205 1.12596 5.39916C1.11895 5.36472 1.11492 5.32974 1.11392 5.29461C1.11392 5.26943 1.11392 5.2448 1.11392 5.21962C1.11392 5.19444 1.11392 5.18569 1.11392 5.16872C1.11392 5.13861 1.11939 5.10632 1.09257 5.08223L1.08983 5.04501C1.08983 4.9952 1.07451 4.94649 1.07286 4.89668C1.07286 4.85836 1.08162 4.81895 1.04714 4.78721C1.04965 4.75033 1.04577 4.71329 1.03564 4.67774C1.03759 4.63924 1.03371 4.60067 1.02415 4.56334C1.02185 4.54317 1.01612 4.52354 1.00718 4.50532C1.00865 4.48078 1.00511 4.45619 0.996781 4.43307C0.996781 4.4046 0.996781 4.37833 0.996781 4.34713C0.999507 4.31035 0.996178 4.27336 0.986928 4.23766C0.98437 4.21765 0.978448 4.19822 0.969413 4.18019C0.969413 4.17307 0.969413 4.16595 0.969413 4.15884C0.95956 3.99463 0.911393 3.83042 0.914677 3.66074C0.910678 3.64833 0.908287 3.63545 0.907561 3.62243C0.908291 3.61229 0.906754 3.60212 0.903062 3.59265C0.899369 3.58318 0.893614 3.57466 0.886214 3.56769H0.882383C0.871734 3.55353 0.866318 3.53613 0.867057 3.51843C0.867057 3.50493 0.867057 3.49124 0.867057 3.47738C0.867057 3.46369 0.867057 3.45056 0.867057 3.43687V3.39746C0.867057 3.38487 0.867057 3.37228 0.867057 3.35969V3.32357C0.867276 3.31483 0.865519 3.30616 0.861917 3.2982C0.858316 3.29024 0.852962 3.28319 0.846257 3.27759L0.841878 3.23873C0.833071 3.22639 0.828119 3.21173 0.827647 3.19658C0.829193 3.18713 0.827559 3.17744 0.823002 3.16902C0.818446 3.1606 0.811223 3.15393 0.802468 3.15005C0.789332 3.13747 0.781121 3.1194 0.763058 3.11174C0.75649 3.10323 0.748241 3.09617 0.738824 3.09099C0.729407 3.08581 0.719024 3.08263 0.708322 3.08163C0.70001 3.08002 0.692269 3.07625 0.685881 3.07069C0.675481 3.04879 0.64866 3.04606 0.635523 3.02745C0.621237 3.01553 0.607709 3.00273 0.595019 2.98913C0.580788 2.97709 0.568198 2.96341 0.555062 2.95027C0.541378 2.93768 0.528788 2.924 0.515652 2.91086L0.476242 2.87145C0.465679 2.85089 0.450042 2.83337 0.430811 2.82054C0.390127 2.78905 0.355454 2.75049 0.328455 2.70669C0.321216 2.68142 0.306528 2.65891 0.286308 2.6421C0.273719 2.63444 0.265508 2.62131 0.253466 2.6131C0.249006 2.60546 0.24586 2.59714 0.244161 2.58846C0.241778 2.57177 0.233878 2.55636 0.22172 2.54467C0.213341 2.53585 0.208141 2.52449 0.206941 2.51238C0.207769 2.50117 0.20603 2.48993 0.201857 2.47949C0.197683 2.46906 0.191185 2.45972 0.182857 2.45217C0.174339 2.44442 0.167934 2.43462 0.164247 2.42371C0.164164 2.41438 0.161951 2.40519 0.157777 2.39684C0.153603 2.38849 0.147579 2.38121 0.140163 2.37554C0.1325 2.35365 0.131953 2.32956 0.12429 2.30767C0.128121 2.28139 0.105679 2.2699 0.0936374 2.25293C0.0699423 2.21035 0.0550509 2.16345 0.0498487 2.115C0.0235754 1.94477 -0.0109083 1.77509 0.00332309 1.60157C0.00232363 1.57334 0.00640234 1.54516 0.015365 1.51838C0.015365 1.5036 0.015365 1.48827 0.015365 1.47349C0.0569643 1.42314 0.0312384 1.358 0.0536802 1.30326C0.0525768 1.29362 0.0525768 1.28389 0.0536802 1.27425C0.0647896 1.26365 0.0730647 1.25042 0.0777498 1.23579C0.0824348 1.22117 0.0833806 1.2056 0.0805008 1.19051C0.0794648 1.17443 0.0832784 1.15841 0.091448 1.14453C0.10349 1.12756 0.12429 1.11552 0.120458 1.08979C0.128121 1.0679 0.128121 1.04381 0.136879 1.02247C0.144784 1.01703 0.151353 1.00987 0.156093 1.00153C0.160833 0.993184 0.163621 0.983875 0.164247 0.9743C0.165526 0.962644 0.170515 0.951708 0.178478 0.943101C0.185498 0.936917 0.191164 0.929349 0.19512 0.920872C0.199076 0.912394 0.201237 0.90319 0.201467 0.893838C0.204281 0.882481 0.210372 0.872203 0.218983 0.864281C0.236498 0.850597 0.24033 0.825966 0.258393 0.809545V0.785461C0.265568 0.764019 0.278661 0.745043 0.296161 0.730725C0.306579 0.715334 0.319535 0.701823 0.334476 0.690768L0.34597 0.680368C0.354901 0.670863 0.361137 0.659149 0.364033 0.646432C0.368346 0.636647 0.374911 0.62802 0.383191 0.621253C0.410011 0.591696 0.437927 0.560496 0.464747 0.532581C0.487189 0.524918 0.488831 0.497003 0.507989 0.486055C0.519128 0.470904 0.532403 0.457446 0.547399 0.446098C0.558613 0.431143 0.572095 0.418031 0.587356 0.407236C0.590754 0.40243 0.595158 0.398422 0.600263 0.395491C0.605368 0.392561 0.61105 0.390778 0.616913 0.390267C0.626166 0.390058 0.635263 0.387845 0.643578 0.383782C0.651894 0.379719 0.65923 0.373902 0.665081 0.366731C0.67895 0.353443 0.691422 0.338771 0.702301 0.322942C0.729122 0.31309 0.746638 0.286269 0.776195 0.281343C0.804658 0.266017 0.830931 0.24467 0.859941 0.231533L0.875814 0.224417C0.890765 0.219276 0.904671 0.21149 0.916866 0.201428C0.921131 0.198805 0.925735 0.196779 0.93055 0.195407C0.954634 0.191576 0.98036 0.195407 0.996234 0.168587C1.00457 0.160781 1.0142 0.154483 1.0247 0.149977C1.02997 0.14732 1.03547 0.145122 1.04112 0.143408C1.0659 0.134922 1.08974 0.123917 1.11227 0.110567L1.12869 0.105093C1.13964 0.105093 1.15114 0.101809 1.16208 0.100167C1.17788 0.098299 1.19237 0.0904671 1.20259 0.0782724V0.0749883C1.21317 0.0667849 1.22591 0.0618399 1.23926 0.0607569C1.25185 0.0607569 1.26389 0.0607569 1.27648 0.0607569C1.28746 0.0623021 1.29865 0.0611121 1.30906 0.0572926C1.31947 0.0534731 1.32877 0.0471423 1.33614 0.0388625L1.36132 0.0355784C1.37567 0.0248899 1.39326 0.0194767 1.41113 0.0202523C1.42482 0.0202523 1.43905 0.0202523 1.45273 0.0202523H1.49433C1.50801 0.0202523 1.52115 0.0202523 1.53484 0.0202523C1.55837 0.0202523 1.58136 0.0202523 1.6049 0.0202523C1.62843 0.0202523 1.66675 0.0268206 1.69083 0H1.74283C1.76637 0.0262733 1.79757 0.0186102 1.82767 0.0202523C1.85778 0.0218944 1.8742 0.0202523 1.89719 0.0202523C1.91087 0.0202523 1.92456 0.0202523 1.93824 0.0202523H1.97929C1.99352 0.0202523 2.00775 0.0202523 2.02144 0.0202523C2.03952 0.0191579 2.05739 0.0245971 2.07179 0.0355784L2.10956 0.0399573C2.11548 0.0465292 2.12276 0.051742 2.13088 0.0552379C2.13901 0.0587337 2.14779 0.0604298 2.15664 0.0602096H2.19386C2.20698 0.0611121 2.21955 0.0658727 2.22998 0.0738935V0.0777251C2.2359 0.0849533 2.24345 0.0906624 2.25202 0.0943758C2.26059 0.0980893 2.26993 0.0996995 2.27924 0.0990721C2.29512 0.0990721 2.31044 0.0990721 2.32577 0.0990721C2.33933 0.100113 2.35201 0.106162 2.36135 0.11604C2.37886 0.125345 2.40459 0.11604 2.41608 0.139577C2.43227 0.159346 2.45371 0.174144 2.47794 0.182271C2.49086 0.186949 2.50347 0.192433 2.5157 0.198692C2.52856 0.207902 2.54231 0.215788 2.55676 0.222228L2.57263 0.229891C2.60164 0.240838 2.61861 0.27368 2.65419 0.272585C2.66284 0.273722 2.6711 0.276912 2.67827 0.28189C2.69469 0.297216 2.71275 0.311448 2.73301 0.325679C2.74614 0.338816 2.75873 0.3525 2.77296 0.364542C2.78409 0.376068 2.79659 0.386179 2.81018 0.394646C2.81457 0.397884 2.81844 0.401759 2.82168 0.406141C2.82555 0.413104 2.83129 0.418845 2.83826 0.422714C2.84522 0.426583 2.85313 0.428426 2.86109 0.428035C2.86687 0.428615 2.87248 0.430371 2.87756 0.433195C2.88264 0.436018 2.8871 0.439851 2.89065 0.444456C2.90597 0.455584 2.91961 0.468856 2.93115 0.483866C2.93168 0.495472 2.9359 0.506607 2.94318 0.51566C2.95046 0.524713 2.96043 0.531215 2.97165 0.534223C2.97373 0.543659 2.97827 0.552377 2.98481 0.559491C2.99134 0.566605 2.99965 0.571862 3.00887 0.574728C3.01654 0.587317 3.00559 0.605927 3.0242 0.614138C3.04281 0.622348 3.04993 0.640411 3.06361 0.653C3.07346 0.668326 3.08879 0.679273 3.09919 0.695147C3.11233 0.708283 3.12601 0.720873 3.13805 0.735104C3.1467 0.743128 3.15215 0.75402 3.15338 0.765756C3.15367 0.775096 3.15586 0.78428 3.15981 0.792748C3.16377 0.801216 3.1694 0.808793 3.17637 0.815018C3.18444 0.823771 3.18943 0.834917 3.1906 0.846765C3.19066 0.856082 3.19292 0.865253 3.19721 0.873528C3.20149 0.881804 3.20766 0.888951 3.21523 0.894386C3.21602 0.894877 3.21668 0.895562 3.21713 0.896376C3.21758 0.89719 3.21782 0.898106 3.21782 0.899038C3.21782 0.89997 3.21758 0.900886 3.21713 0.901701C3.21668 0.902515 3.21602 0.9032 3.21523 0.903691C3.2188 0.934261 3.23339 0.96248 3.25628 0.983058C3.26309 0.993222 3.2674 1.00485 3.26887 1.01699C3.26887 1.04053 3.28529 1.05148 3.29733 1.06626C3.31375 1.09034 3.3039 1.12537 3.33072 1.14508C3.34988 1.21733 3.37396 1.28794 3.39695 1.35909C3.40206 1.38909 3.4039 1.41956 3.40243 1.44996C3.4053 1.50513 3.41225 1.56002 3.42323 1.61416C3.43127 1.68875 3.42888 1.7641 3.41611 1.83803V1.86978C3.40584 1.88975 3.40058 1.91192 3.40078 1.93437C3.40078 1.94751 3.40078 1.96064 3.40078 1.97378C3.40053 1.98759 3.39888 2.00135 3.39586 2.01483C3.38546 2.09693 3.34879 2.17302 3.34112 2.25567C3.34179 2.27134 3.33883 2.28695 3.33246 2.30129C3.3261 2.31563 3.31652 2.3283 3.30445 2.33832L3.29295 2.37882C3.2634 2.39689 3.26121 2.42809 3.253 2.4571C3.23439 2.47133 3.22946 2.49432 3.21578 2.51183V2.53592C3.19607 2.54851 3.19279 2.57314 3.17637 2.59065C3.16894 2.59643 3.16291 2.60382 3.15874 2.61225C3.15457 2.62069 3.15236 2.62996 3.15228 2.63937C3.15113 2.6509 3.14611 2.6617 3.13805 2.67002C3.12601 2.68425 3.11233 2.69684 3.09974 2.71052C3.09281 2.71667 3.0872 2.72415 3.08325 2.73252C3.07929 2.7409 3.07708 2.74999 3.07675 2.75924C3.0763 2.76506 3.0746 2.77071 3.07177 2.77581C3.06893 2.78092 3.06503 2.78534 3.06033 2.7888C3.0569 2.79368 3.05285 2.79809 3.04828 2.80193C2.99355 2.82821 2.97986 2.8917 2.9306 2.92181C2.91801 2.93494 2.90488 2.94863 2.89119 2.96067C2.8786 2.97435 2.86492 2.98639 2.85342 3.00117C2.84699 3.0056 2.84173 3.01153 2.83809 3.01844C2.83446 3.02535 2.83256 3.03305 2.83256 3.04086C2.83256 3.04867 2.83446 3.05636 2.83809 3.06327C2.84173 3.07019 2.84699 3.07611 2.85342 3.08054L2.8578 3.1194C2.86806 3.13373 2.87326 3.15106 2.87258 3.16866C2.87258 3.18253 2.87258 3.19622 2.87258 3.20972C2.87258 3.22285 2.87258 3.23654 2.87258 3.24967V3.28799C2.87258 3.30058 2.87258 3.31262 2.87258 3.32466C2.86766 3.34984 2.89612 3.3575 2.9005 3.3794C2.90003 3.3963 2.9032 3.4131 2.9098 3.42866C2.9117 3.46513 2.9117 3.50167 2.9098 3.53813C2.9098 3.56276 2.9098 3.58794 2.9098 3.61312C2.90638 3.62939 2.90704 3.64625 2.91172 3.6622C2.9164 3.67815 2.92496 3.69269 2.93662 3.70453C2.93778 3.73318 2.94201 3.76162 2.94921 3.78937C2.94921 3.82221 2.94921 3.85451 2.94921 3.88735C2.94921 3.90048 2.94921 3.91417 2.94921 3.92731C2.94793 3.93922 2.94972 3.95126 2.95442 3.96228C2.95911 3.9733 2.96655 3.98293 2.97603 3.99025C2.97603 4.00229 2.97603 4.01488 2.97603 4.02692C2.98473 4.05789 2.9886 4.09002 2.98753 4.12217C2.9941 4.16705 3.0149 4.18511 3.05704 4.15555C3.09426 4.14078 3.13531 4.13311 3.15885 4.09589C3.16303 4.08492 3.17099 4.07579 3.18129 4.07017C3.18477 4.06554 3.18922 4.06172 3.19433 4.05898C3.19943 4.05624 3.20507 4.05464 3.21085 4.05429C3.22956 4.05301 3.24711 4.04482 3.26011 4.0313C3.27133 4.02064 3.28624 4.01476 3.30171 4.01488C3.31128 4.01538 3.32083 4.0136 3.32958 4.0097C3.33833 4.0058 3.34604 3.99989 3.35207 3.99244C3.36153 3.98492 3.37291 3.98018 3.38491 3.97876C3.4079 3.97876 3.4183 3.96234 3.43198 3.9492C3.44174 3.94323 3.45285 3.93984 3.46428 3.93935C3.48617 3.93935 3.49657 3.92402 3.50916 3.91088C3.51882 3.90465 3.5296 3.90037 3.54091 3.8983C3.56194 3.89557 3.58133 3.88549 3.59564 3.86983C3.62247 3.85232 3.66187 3.86655 3.68432 3.83699C3.6953 3.82683 3.70812 3.81884 3.72208 3.81345C3.7491 3.80309 3.77542 3.79103 3.8009 3.77733C3.82093 3.76002 3.83994 3.74156 3.85783 3.72205L3.87261 3.71602C3.88704 3.70972 3.90007 3.70061 3.91092 3.6892C3.92011 3.68157 3.93134 3.67681 3.94322 3.67552C3.95234 3.67521 3.96131 3.67306 3.96959 3.66921C3.97787 3.66535 3.98528 3.65987 3.99139 3.65308C3.99479 3.65106 3.99848 3.64959 4.00233 3.6487C4.01201 3.64165 4.0233 3.63713 4.03517 3.63556C4.05871 3.63556 4.06911 3.61914 4.08334 3.606C4.09337 3.60011 4.10459 3.59655 4.11618 3.59561C4.12505 3.59574 4.13382 3.59372 4.14173 3.58971C4.14965 3.58571 4.15647 3.57984 4.16161 3.57262C4.17665 3.57224 4.19139 3.56838 4.20468 3.56135C4.21798 3.55433 4.22946 3.54432 4.23824 3.53211C4.27984 3.51295 4.32035 3.49051 4.36359 3.47738C4.39039 3.46649 4.41636 3.45368 4.44132 3.43906C4.44663 3.43692 4.45212 3.43527 4.45774 3.43413C4.4691 3.43169 4.48062 3.43004 4.49222 3.42921C4.52178 3.42921 4.54148 3.40348 4.56885 3.39691C4.58008 3.39553 4.59084 3.39161 4.60033 3.38544C4.60981 3.37928 4.61777 3.37103 4.62359 3.36134C4.63086 3.35656 4.63907 3.35339 4.64767 3.35203C4.66827 3.35153 4.68788 3.3431 4.70241 3.32849V3.32576C4.71267 3.31736 4.7253 3.31238 4.73853 3.31153C4.75057 3.31153 4.76316 3.31153 4.7752 3.31153C4.79874 3.31536 4.80805 3.2951 4.82228 3.28306C4.83187 3.27718 4.84278 3.27379 4.85402 3.27321C4.87701 3.27321 4.88687 3.25624 4.90055 3.24365C4.90801 3.23713 4.91678 3.23228 4.92628 3.22942C4.9375 3.229 4.94853 3.22631 4.95869 3.22151C4.96885 3.21672 4.97793 3.20991 4.98539 3.20151C4.9936 3.20151 5.00236 3.20151 5.01057 3.19713C5.03629 3.18235 5.07406 3.20205 5.09377 3.16866C5.0977 3.16444 5.10233 3.16092 5.10745 3.15827C5.13208 3.14458 5.16711 3.15827 5.18572 3.1298C5.18972 3.12556 5.19457 3.1222 5.19996 3.11995C5.2217 3.1203 5.24279 3.11248 5.25907 3.09806C5.26892 3.08218 5.28644 3.08109 5.30176 3.07561C5.31418 3.06394 5.33071 3.05764 5.34774 3.0581C5.35978 3.0581 5.37183 3.0581 5.38442 3.0581C5.39372 3.05864 5.40303 3.05699 5.41158 3.05328C5.42014 3.04957 5.42771 3.04391 5.43368 3.03675V3.03401C5.44373 3.02562 5.45619 3.02064 5.46926 3.01978C5.48185 3.01978 5.49444 3.01978 5.50702 3.01978C5.5159 3.02002 5.5247 3.01822 5.53277 3.01452C5.54083 3.01082 5.54794 3.00532 5.55355 2.99844V2.9957C5.56396 2.98719 5.5768 2.98221 5.59022 2.98147C5.60262 2.98064 5.61505 2.98064 5.62744 2.98147C5.63875 2.98265 5.65017 2.98067 5.66041 2.97574C5.67066 2.97081 5.67933 2.96313 5.68546 2.95355C5.69287 2.94864 5.70129 2.94546 5.71009 2.94425C5.72504 2.94343 5.74003 2.94343 5.75498 2.94425C5.76343 2.94506 5.77193 2.94336 5.77943 2.93937C5.78693 2.93538 5.79308 2.92927 5.79713 2.92181C5.80179 2.91815 5.80673 2.91485 5.8119 2.91195C5.826 2.90716 5.8408 2.90475 5.85569 2.90484C5.88416 2.90484 5.90386 2.88623 5.9274 2.87583C5.95296 2.87788 5.97831 2.86982 5.99801 2.85339C6.03614 2.8319 6.07965 2.82183 6.12335 2.82438C6.13917 2.82595 6.15514 2.82439 6.17036 2.81979C6.18557 2.81519 6.19973 2.80763 6.21202 2.79755C6.27552 2.77785 6.34175 2.768 6.40415 2.74282C6.41001 2.7405 6.41605 2.73866 6.42221 2.73735C6.43376 2.7349 6.44546 2.73325 6.45724 2.73242C6.4739 2.73127 6.48944 2.7236 6.50048 2.71107L6.5388 2.70669C6.54909 2.69843 6.56174 2.69363 6.57492 2.69301C6.58751 2.69301 6.59955 2.69301 6.6116 2.69301C6.62248 2.69455 6.63357 2.69346 6.64395 2.68984C6.65433 2.68623 6.66369 2.68018 6.67126 2.67221L6.70957 2.66783C6.72057 2.65971 6.73369 2.65496 6.74734 2.65415C6.76028 2.65333 6.77326 2.65333 6.7862 2.65415H6.82342C6.84806 2.65853 6.85572 2.63006 6.87816 2.62568C6.90105 2.62741 6.92405 2.62405 6.94549 2.61583C6.99266 2.61991 7.04001 2.61021 7.08178 2.58792C7.10532 2.58463 7.1294 2.58792 7.15294 2.58792C7.19453 2.56766 7.24708 2.59394 7.2843 2.55562C7.29015 2.55174 7.29699 2.54965 7.30401 2.5496H7.41348C7.50872 2.53099 7.60834 2.5496 7.70139 2.51183C7.71724 2.51074 7.73316 2.51074 7.74901 2.51183C8.06757 2.49322 8.38614 2.50089 8.70415 2.49979C8.73465 2.49684 8.76544 2.49944 8.79501 2.50745C8.83477 2.51236 8.87486 2.51401 8.91489 2.51238C8.95304 2.52834 8.99395 2.53671 9.03531 2.53701C9.10263 2.53701 9.16886 2.54686 9.23564 2.55124C9.26191 2.55453 9.27833 2.58573 9.30844 2.57916H9.38124C9.3993 2.57916 9.41736 2.57916 9.43597 2.57916C9.46991 2.57478 9.50001 2.59394 9.5334 2.5923C9.54786 2.60443 9.56486 2.61314 9.58315 2.61779C9.60145 2.62243 9.62055 2.62289 9.63904 2.61912C9.67597 2.62108 9.71263 2.62658 9.74852 2.63554C9.75372 2.64248 9.76051 2.64809 9.76831 2.6519C9.77612 2.65571 9.78472 2.6576 9.7934 2.65743C9.80599 2.65743 9.81803 2.65743 9.83007 2.65743C9.84319 2.65661 9.85636 2.65661 9.86948 2.65743C9.88316 2.65808 9.89633 2.66285 9.90725 2.67111L9.95815 2.67604C9.96384 2.68275 9.97099 2.68807 9.97906 2.69158C9.98713 2.69509 9.99589 2.6967 10.0047 2.69629C10.0173 2.69629 10.0293 2.69629 10.0419 2.69629C10.055 2.6972 10.0676 2.70196 10.078 2.70998L10.1158 2.71381C10.1212 2.72018 10.1277 2.72541 10.1352 2.72917C10.1426 2.73293 10.1507 2.73515 10.159 2.7357C10.1763 2.73748 10.1934 2.74096 10.2099 2.7461C10.2187 2.74764 10.2273 2.75002 10.2357 2.75322L10.251 2.76088C10.265 2.77116 10.2824 2.77584 10.2997 2.77402C10.3227 2.77402 10.3451 2.77402 10.3681 2.77402C10.3822 2.77451 10.3955 2.78039 10.4053 2.79044C10.4361 2.79359 10.4654 2.80494 10.4902 2.82328C10.5115 2.84408 10.54 2.82821 10.5635 2.83642C10.5882 2.86167 10.6218 2.87622 10.6571 2.87692C10.6768 2.90429 10.7119 2.89936 10.7376 2.91743H10.7743C10.7802 2.92519 10.7879 2.93137 10.7968 2.93538C10.8057 2.9394 10.8154 2.94113 10.8252 2.94042C10.8454 2.94688 10.8664 2.95039 10.8876 2.95082C10.8949 2.96043 10.9045 2.9681 10.9154 2.97316C10.9264 2.97822 10.9385 2.98051 10.9505 2.97983C10.9633 2.98137 10.9755 2.98649 10.9855 2.9946V2.99734C10.9909 3.00434 10.9979 3.00994 11.0059 3.01366C11.0139 3.01738 11.0227 3.0191 11.0315 3.01869C11.0441 3.01869 11.0567 3.01869 11.0693 3.01869C11.0824 3.01959 11.095 3.02435 11.1054 3.03237V3.03566C11.1162 3.04827 11.1308 3.05693 11.147 3.06029L11.164 3.06521C11.1963 3.07999 11.2319 3.08547 11.2642 3.09915L11.2806 3.10462C11.2935 3.10934 11.3059 3.11521 11.3178 3.12214C11.3305 3.132 11.3461 3.13739 11.3621 3.13747C11.3736 3.13836 11.385 3.14038 11.3961 3.14349C11.4102 3.14747 11.4237 3.15356 11.436 3.16155C11.4514 3.1922 11.4831 3.18673 11.5088 3.19494L11.5247 3.20041C11.5417 3.20972 11.5553 3.22504 11.5794 3.22669C11.6035 3.22833 11.6145 3.22669 11.6314 3.23161C11.637 3.23342 11.6423 3.2358 11.6473 3.23873C11.6604 3.25132 11.6697 3.27047 11.6927 3.26828C11.704 3.26872 11.715 3.27212 11.7245 3.27814C11.7393 3.28963 11.7486 3.31043 11.7721 3.3066H11.8088C11.822 3.30779 11.8346 3.31293 11.8449 3.32138V3.32412C11.8512 3.33148 11.8591 3.33729 11.8681 3.34109C11.877 3.34489 11.8867 3.34657 11.8964 3.34601C11.9117 3.34611 11.9266 3.35152 11.9385 3.36134C11.9497 3.37219 11.962 3.38191 11.9752 3.39035C12.0053 3.39691 12.0299 3.42045 12.0611 3.42155C12.0729 3.42289 12.0846 3.42508 12.0961 3.42811C12.1323 3.43523 12.1509 3.47245 12.1919 3.47519C12.2176 3.48403 12.2429 3.49426 12.2675 3.50584C12.2813 3.51036 12.2946 3.51661 12.3069 3.52445C12.3206 3.53649 12.3299 3.5562 12.3529 3.55346C12.3643 3.55441 12.3753 3.55797 12.3851 3.56386C12.3934 3.57427 12.4039 3.58271 12.4158 3.58858C12.4277 3.59445 12.4408 3.5976 12.4541 3.5978C12.4595 3.59985 12.4645 3.60281 12.4689 3.60655C12.4728 3.61504 12.4793 3.62209 12.4875 3.6267C12.4956 3.63131 12.505 3.63326 12.5143 3.63228H12.5346C12.5513 3.63181 12.5677 3.63745 12.5806 3.64815C12.5935 3.66191 12.6114 3.66998 12.6304 3.67059C12.642 3.67187 12.653 3.67686 12.6616 3.68482C12.6742 3.69852 12.69 3.70886 12.7075 3.71493C12.7292 3.72386 12.7495 3.73584 12.7678 3.75051C12.8176 3.76529 12.8581 3.80196 12.9112 3.80524C12.9232 3.80524 12.9358 3.80524 12.9478 3.80524C12.9599 3.80524 12.9757 3.83754 13.0026 3.83206C13.0245 3.83015 13.0466 3.83392 13.0666 3.84301C13.0847 3.85286 13.0956 3.87695 13.1213 3.87147H13.2029C13.2173 3.87205 13.2312 3.87639 13.2434 3.88406C13.2806 3.92512 13.3293 3.90596 13.3742 3.9087C13.5428 3.92512 13.7114 3.92183 13.8805 3.92183C13.9342 3.90886 13.9897 3.9046 14.0447 3.90924C14.0935 3.90596 14.146 3.92457 14.1887 3.88406C14.2255 3.88285 14.2622 3.87827 14.2982 3.87038H14.3715C14.3983 3.87695 14.4093 3.85068 14.4295 3.84356C14.4724 3.84455 14.5146 3.83315 14.551 3.81072C14.5724 3.79649 14.5976 3.81072 14.62 3.80305C14.6425 3.79539 14.6846 3.79594 14.7076 3.76912C14.7202 3.76456 14.7336 3.76269 14.747 3.76364C14.8143 3.75543 14.8762 3.72533 14.9419 3.70891L14.9588 3.70398C14.975 3.69892 14.9897 3.68989 15.0015 3.67771V3.67442C15.0117 3.66616 15.0241 3.6612 15.0371 3.66019C15.0497 3.66019 15.0617 3.66019 15.0743 3.66019C15.0832 3.66034 15.0919 3.65861 15.1 3.65512C15.1081 3.65163 15.1154 3.64646 15.1214 3.63994L15.1329 3.63556C15.1432 3.62739 15.1559 3.62261 15.169 3.62188H15.2062C15.2151 3.62254 15.224 3.62081 15.232 3.61687C15.24 3.61292 15.2468 3.6069 15.2517 3.59944C15.2669 3.59903 15.2818 3.59557 15.2956 3.58927C15.3094 3.58297 15.3219 3.57396 15.3321 3.56276C15.3453 3.55346 15.3622 3.56276 15.3759 3.55346C15.3984 3.54415 15.4307 3.55346 15.4427 3.525C15.4471 3.52122 15.4519 3.51792 15.4569 3.51514C15.4777 3.50529 15.5035 3.51514 15.5226 3.49653C15.5376 3.48318 15.5572 3.47612 15.5773 3.47683C15.5998 3.46369 15.6321 3.47683 15.648 3.44453C15.6517 3.44043 15.6557 3.43659 15.66 3.43304C15.6811 3.41104 15.7095 3.39759 15.7399 3.39527C15.7453 3.38989 15.7517 3.38561 15.7587 3.3827C15.7658 3.37979 15.7733 3.3783 15.781 3.3783C15.7906 3.37893 15.8003 3.37722 15.8092 3.37331C15.818 3.36941 15.8258 3.36342 15.8319 3.35586C15.8411 3.34883 15.8521 3.34431 15.8636 3.34273C15.8729 3.34249 15.882 3.34032 15.8904 3.33636C15.8988 3.3324 15.9063 3.32674 15.9123 3.31974V3.317C15.9212 3.3095 15.932 3.30475 15.9435 3.30332C15.9586 3.30216 15.9727 3.29531 15.9829 3.28416C16.0114 3.27649 16.0421 3.27102 16.0579 3.24092C16.0683 3.23429 16.0801 3.23035 16.0924 3.22942C16.1037 3.23014 16.115 3.22846 16.1255 3.22449C16.1361 3.22053 16.1457 3.21438 16.1537 3.20643V3.2037C16.1645 3.1934 16.1774 3.18556 16.1915 3.18071C16.2003 3.18118 16.209 3.17954 16.217 3.17592C16.225 3.1723 16.232 3.16681 16.2375 3.15991C16.2747 3.15325 16.3086 3.13392 16.3333 3.10517C16.3409 3.09203 16.3546 3.08437 16.3634 3.07233C16.3705 3.06716 16.3787 3.06378 16.3874 3.06248C16.4043 3.05985 16.4199 3.05222 16.4323 3.04058C16.4362 3.0398 16.4399 3.03831 16.4433 3.0362C16.4525 3.02857 16.4637 3.02381 16.4756 3.02252C16.4847 3.02206 16.4936 3.01974 16.5018 3.01569C16.51 3.01164 16.5173 3.00596 16.5232 2.99898C16.5327 2.99152 16.544 2.98662 16.556 2.98475C16.579 2.98475 16.5894 2.96833 16.6036 2.95519C16.6132 2.94917 16.6241 2.94577 16.6354 2.94534C16.6573 2.94534 16.6677 2.93002 16.6803 2.91688C16.69 2.91076 16.7011 2.90718 16.7126 2.90648C16.7257 2.90648 16.7399 2.90374 16.7476 2.88951C16.7507 2.88503 16.7546 2.88114 16.7591 2.87802H16.7722C16.7958 2.85995 16.8155 2.83532 16.8489 2.83313C16.8713 2.81945 16.9069 2.83313 16.92 2.80029L16.9315 2.78825C16.9407 2.77972 16.9524 2.77436 16.9649 2.77292C16.9779 2.77305 16.9907 2.7699 17.0022 2.76378C17.0137 2.75766 17.0234 2.74876 17.0306 2.73789C17.0348 2.7273 17.0423 2.71831 17.0519 2.71217L17.0886 2.70834C17.0982 2.70065 17.1098 2.69573 17.122 2.6941C17.1308 2.6939 17.1396 2.69185 17.1476 2.68808C17.1556 2.68431 17.1627 2.6789 17.1685 2.67221C17.172 2.67045 17.1757 2.66916 17.1795 2.66838C17.1892 2.66127 17.2004 2.65658 17.2123 2.65469C17.2353 2.65469 17.2462 2.63937 17.2599 2.62568C17.2698 2.6198 17.2808 2.61624 17.2922 2.61528C17.3011 2.61525 17.3097 2.61277 17.3173 2.60814C17.3248 2.60351 17.3309 2.59689 17.3349 2.58901L17.3497 2.5808C17.3732 2.57533 17.4006 2.57642 17.4143 2.55015L17.4307 2.54084C17.4737 2.53963 17.5156 2.52718 17.5522 2.50472C17.6375 2.48584 17.7259 2.48584 17.8111 2.50472C17.8582 2.53154 17.9129 2.5403 17.9578 2.5715C17.9703 2.57242 17.9824 2.57657 17.9928 2.58354C18.0046 2.60059 18.0221 2.61283 18.0421 2.61802C18.0771 2.61802 18.0908 2.65032 18.1149 2.66728C18.1259 2.68808 18.1527 2.69027 18.1647 2.70943C18.1844 2.72202 18.1921 2.7461 18.2112 2.75979C18.2156 2.76727 18.2187 2.7754 18.2205 2.78387C18.2227 2.80064 18.2306 2.81614 18.243 2.82766C18.2515 2.83663 18.2567 2.8482 18.2578 2.8605C18.257 2.87157 18.2587 2.88267 18.2628 2.893C18.2669 2.90332 18.2732 2.9126 18.2813 2.92016H18.284C18.2923 2.93095 18.2972 2.94387 18.2983 2.95738C18.2983 2.97107 18.2983 2.9842 18.2983 2.99789C18.2983 3.02471 18.3295 3.03566 18.3339 3.06083C18.3388 3.10444 18.3404 3.14835 18.3388 3.1922V11.3314C18.3403 11.3797 18.3389 11.4279 18.3344 11.4759C18.33 11.5011 18.2999 11.5121 18.2983 11.5394C18.2983 11.5531 18.2983 11.5663 18.2983 11.5799C18.2974 11.5937 18.2925 11.6068 18.284 11.6177H18.2813C18.2741 11.6236 18.2682 11.631 18.2641 11.6395C18.2601 11.6479 18.2579 11.6571 18.2578 11.6664C18.2566 11.6781 18.2523 11.6893 18.2452 11.6987C18.2452 11.702 18.2452 11.7058 18.2419 11.7097C18.2308 11.7229 18.2172 11.7339 18.2019 11.742C18.1709 11.7767 18.1358 11.8076 18.0974 11.8339C18.0906 11.8465 18.0822 11.8581 18.0722 11.8684C18.0577 11.8799 18.0438 11.8921 18.0306 11.9051C18.0221 11.9132 18.0111 11.9184 17.9994 11.9199C17.99 11.9198 17.9808 11.9221 17.9725 11.9265C17.9642 11.9309 17.9571 11.9373 17.9518 11.945C17.9422 11.9522 17.9308 11.9567 17.919 11.9582C17.8965 11.9582 17.8856 11.974 17.8719 11.9877C17.8512 12.0117 17.8231 12.0281 17.792 12.0342C17.7781 12.0515 17.7588 12.0634 17.7372 12.0682C17.6934 12.0731 17.6639 12.1076 17.6245 12.1229C17.5966 12.1311 17.5741 12.1514 17.5462 12.1612C17.5291 12.1675 17.5138 12.1776 17.5013 12.1908C17.4896 12.2009 17.4746 12.2065 17.4592 12.2067C17.4496 12.206 17.44 12.2077 17.4312 12.2116C17.4224 12.2155 17.4147 12.2215 17.4088 12.2291C17.3991 12.2362 17.3878 12.2407 17.376 12.2422C17.3524 12.2422 17.342 12.2592 17.3278 12.2718C17.3181 12.2779 17.307 12.2815 17.2955 12.2822C17.272 12.2822 17.2632 12.3003 17.2484 12.3118C17.2383 12.318 17.2269 12.3217 17.215 12.3227C17.1712 12.3422 17.1297 12.3667 17.0913 12.3955H17.0777C17.0317 12.3955 17.0032 12.4338 16.9633 12.4475C16.9463 12.4541 16.9321 12.4639 16.9162 12.4716C16.879 12.4869 16.8308 12.476 16.8023 12.5154V12.5181C16.7931 12.526 16.7816 12.531 16.7695 12.5323C16.7583 12.5315 16.7471 12.5331 16.7367 12.5372C16.7262 12.5413 16.7169 12.5477 16.7093 12.5559C16.7002 12.5633 16.6892 12.568 16.6775 12.5696C16.6682 12.5694 16.6589 12.5715 16.6505 12.5757C16.6421 12.5799 16.6349 12.586 16.6294 12.5936C16.599 12.596 16.5704 12.6092 16.5489 12.6309C16.5287 12.6402 16.5051 12.638 16.4849 12.6478C16.4649 12.653 16.4462 12.6623 16.4301 12.6752C16.4121 12.6801 16.3967 12.6905 16.3787 12.6955C16.343 12.7147 16.3043 12.7277 16.2643 12.7338C16.229 12.7506 16.1924 12.7645 16.1548 12.7754C16.1358 12.7907 16.1143 12.8027 16.0913 12.811C16.0796 12.814 16.0677 12.8162 16.0557 12.8175C16.0472 12.8179 16.0389 12.82 16.0312 12.8238C16.0236 12.8275 16.0168 12.8329 16.0114 12.8394V12.8427C16.0012 12.8507 15.9888 12.8555 15.9758 12.8564C15.9632 12.8564 15.9506 12.8564 15.9386 12.8564C15.9297 12.8563 15.9209 12.8581 15.9128 12.8617C15.9047 12.8652 15.8974 12.8705 15.8915 12.8772V12.8805C15.8813 12.889 15.8687 12.894 15.8554 12.8947C15.8434 12.8947 15.8308 12.8947 15.8187 12.8947C15.7946 12.8903 15.7859 12.9133 15.7689 12.9226C15.7577 12.9269 15.7462 12.9304 15.7344 12.933C15.7197 12.933 15.7049 12.933 15.6901 12.933C15.6808 12.9322 15.6714 12.9338 15.6629 12.9376C15.6544 12.9414 15.647 12.9474 15.6414 12.9549C15.6042 12.9691 15.5587 12.9604 15.5281 12.9938C15.5149 13.0047 15.4958 12.9938 15.4827 13.0058C15.4665 13.0199 15.4474 13.0302 15.4268 13.036C15.4061 13.0418 15.3844 13.0429 15.3633 13.0392C15.2796 13.0491 15.203 13.0868 15.1198 13.0972C15.0647 13.1134 15.0085 13.1259 14.9517 13.1344C14.9398 13.1378 14.9275 13.1398 14.915 13.1405C14.9057 13.1404 14.8964 13.1423 14.8878 13.1461C14.8792 13.1499 14.8715 13.1554 14.8652 13.1624V13.1656C14.851 13.1763 14.8337 13.1819 14.816 13.1815H14.7005C14.6917 13.1813 14.683 13.1829 14.675 13.1864C14.6669 13.1899 14.6597 13.1952 14.654 13.2018L14.6156 13.2061C14.6047 13.2148 14.5913 13.2198 14.5773 13.2204C14.5636 13.2204 14.55 13.2204 14.5363 13.2204H14.4109C14.4022 13.2201 14.3934 13.222 14.3855 13.2258C14.3776 13.2296 14.3708 13.2352 14.3655 13.2423H14.3277C14.2577 13.2423 14.1892 13.2598 14.1197 13.2592H14.0327C13.8871 13.2592 13.741 13.2592 13.5948 13.2592C13.5308 13.2592 13.4673 13.2592 13.4038 13.2592C13.3872 13.2527 13.3696 13.2492 13.3518 13.2488C13.3293 13.2488 13.3222 13.2165 13.297 13.2204H13.1914C13.1735 13.2212 13.1559 13.2157 13.1416 13.2051L13.1033 13.2012C13.0979 13.1944 13.091 13.189 13.0831 13.1853C13.0752 13.1817 13.0665 13.18 13.0579 13.1804C13.0458 13.1804 13.0332 13.1804 13.0212 13.1804C13.0082 13.1812 12.9953 13.1812 12.9823 13.1804C12.9686 13.1798 12.9555 13.175 12.9445 13.1667L12.9068 13.1624C12.9013 13.1555 12.8943 13.15 12.8863 13.1463C12.8783 13.1427 12.8696 13.1411 12.8608 13.1416H12.8247C12.812 13.1415 12.7996 13.1383 12.7886 13.1323C12.7577 13.1176 12.7249 13.1076 12.6911 13.1027C12.6782 13.101 12.6661 13.0957 12.6561 13.0874L12.6189 13.0835C12.614 13.0805 12.6096 13.0768 12.6057 13.0726C12.6004 13.0642 12.5929 13.0575 12.584 13.053C12.5752 13.0486 12.5653 13.0467 12.5554 13.0474C12.5083 13.0406 12.4626 13.0268 12.4196 13.0064L12.4049 12.9976C12.3928 12.9839 12.3819 12.9675 12.3594 12.9708H12.3249C12.3131 12.9708 12.3015 12.968 12.291 12.9626C12.2762 12.9511 12.268 12.9292 12.2439 12.9325C12.2232 12.933 12.2025 12.9314 12.1821 12.9275C12.1765 12.9255 12.1714 12.9225 12.1667 12.9188C12.1614 12.9093 12.1533 12.9016 12.1436 12.8967C12.1338 12.8919 12.1228 12.89 12.112 12.8914C12.1 12.8905 12.0887 12.8857 12.0797 12.8777V12.8744C12.0736 12.8675 12.0661 12.8619 12.0577 12.8581C12.0493 12.8542 12.0402 12.8521 12.031 12.852C12.0193 12.8511 12.0082 12.8465 11.9993 12.8389L11.962 12.8356C11.9559 12.8286 11.9483 12.8229 11.9398 12.8189C11.9313 12.815 11.9221 12.8128 11.9128 12.8126C11.9013 12.8112 11.8906 12.8062 11.8821 12.7984H11.8766H11.8712C11.8417 12.7917 11.814 12.7786 11.7902 12.76C11.7612 12.7524 11.73 12.7491 11.7119 12.7195C11.7101 12.7172 11.7092 12.7143 11.7092 12.7113C11.6938 12.6768 11.6544 12.6916 11.6314 12.6763C11.592 12.6763 11.5723 12.6407 11.5389 12.6314C11.5337 12.6245 11.5269 12.6188 11.5191 12.6148C11.5113 12.6108 11.5028 12.6086 11.494 12.6084C11.4824 12.608 11.471 12.6044 11.4612 12.598C11.447 12.5854 11.4366 12.5663 11.413 12.5685C11.4011 12.5672 11.3898 12.5622 11.3807 12.5542C11.3748 12.5471 11.3673 12.5412 11.3589 12.5372C11.3505 12.5331 11.3414 12.5309 11.332 12.5307C11.3204 12.5294 11.3094 12.5248 11.3003 12.5176V12.5148C11.2943 12.5076 11.2869 12.5018 11.2785 12.4978C11.2701 12.4937 11.2609 12.4915 11.2516 12.4913C11.2399 12.49 11.229 12.485 11.2204 12.4771C11.202 12.4644 11.1807 12.4567 11.1585 12.4546C11.1525 12.4542 11.1467 12.4525 11.1415 12.4496C11.1362 12.4468 11.1316 12.4429 11.1279 12.4382C11.1086 12.4333 11.0908 12.4235 11.0764 12.4097C11.0644 12.401 11.0518 12.3939 11.0397 12.3857C10.9915 12.3565 10.941 12.3312 10.8887 12.3101C10.8728 12.2866 10.8482 12.2877 10.8241 12.2855C10.8 12.2833 10.7792 12.2789 10.7578 12.2691C10.7517 12.262 10.7441 12.2564 10.7356 12.2524C10.7271 12.2485 10.7179 12.2463 10.7086 12.2461C10.697 12.245 10.6861 12.2402 10.6774 12.2324V12.2297C10.6718 12.2229 10.6648 12.2175 10.6568 12.2138C10.6488 12.2101 10.6402 12.2082 10.6314 12.2083H10.5942C10.581 12.2073 10.5684 12.2024 10.5581 12.1941V12.1908C10.547 12.18 10.5343 12.1711 10.5203 12.1645L10.5044 12.159C10.4743 12.1541 10.4497 12.1284 10.4201 12.13H10.3824C10.369 12.129 10.3564 12.1234 10.3468 12.1142C10.3181 12.1088 10.2905 12.0992 10.2647 12.0857C10.2504 12.0808 10.2368 12.0742 10.2242 12.066C10.2017 12.0359 10.1645 12.0441 10.135 12.0326C10.1232 12.0305 10.1113 12.0292 10.0994 12.0288C10.083 12.0195 10.0731 11.997 10.049 12.0014H10.0118C9.98881 12.0014 9.96801 11.9872 9.94447 11.9899C9.93188 11.9765 9.91544 11.9673 9.89741 11.9635C9.87938 11.9598 9.86064 11.9618 9.84375 11.9691C9.83729 11.9703 9.83064 11.9698 9.82442 11.9677C9.81819 11.9656 9.81261 11.9619 9.80818 11.9571C9.80379 11.9538 9.79992 11.95 9.79668 11.9456C9.79462 11.9379 9.78982 11.9311 9.78317 11.9267C9.77652 11.9223 9.76848 11.9204 9.76056 11.9215H9.72498C9.71222 11.9223 9.69942 11.9223 9.68666 11.9215C9.67298 11.9208 9.65982 11.9161 9.6489 11.9078L9.61113 11.9034C9.60371 11.8957 9.59461 11.8899 9.58455 11.8862C9.57449 11.8826 9.56373 11.8814 9.55311 11.8826H9.47702C9.46333 11.8816 9.45021 11.8767 9.43926 11.8684L9.40094 11.8646C9.37905 11.8394 9.34949 11.8438 9.32103 11.8432H9.24659C9.23374 11.8428 9.22094 11.8415 9.20827 11.8394C9.20175 11.8383 9.19534 11.8367 9.18911 11.8345C9.15174 11.8221 9.1124 11.8167 9.07307 11.8186C9.05443 11.8091 9.03479 11.8018 9.01451 11.7967C8.70689 11.789 8.39873 11.7967 8.09111 11.7934C8.06722 11.7959 8.0438 11.8018 8.0216 11.8109C8.01499 11.815 8.00778 11.8179 8.00025 11.8197C7.91281 11.8313 7.82462 11.8365 7.73642 11.835C7.71485 11.8389 7.69488 11.849 7.67895 11.864L7.64009 11.8684C7.62911 11.8771 7.61575 11.8823 7.60177 11.8832C7.58828 11.884 7.57475 11.884 7.56127 11.8832H7.47588C7.46706 11.8825 7.45823 11.8841 7.45013 11.8876C7.44202 11.8911 7.4349 11.8965 7.42935 11.9034L7.39104 11.9078C7.38008 11.916 7.36694 11.9208 7.35327 11.9215C7.34013 11.9215 7.32645 11.9215 7.31331 11.9215H7.27609C7.24927 11.916 7.23394 11.9368 7.21533 11.9494C7.20249 11.9494 7.18967 11.9505 7.17702 11.9527C7.15509 11.9604 7.13177 11.9634 7.1086 11.9614C7.07849 11.9614 7.04565 11.9532 7.02266 11.9822L6.98599 11.9855C6.93931 11.9887 6.89398 12.0025 6.85353 12.026C6.81087 12.0269 6.76946 12.0406 6.73475 12.0654C6.67509 12.0743 6.61668 12.0901 6.56069 12.1125L6.52402 12.1158C6.49994 12.1366 6.46381 12.1289 6.44082 12.1514L6.40524 12.1541C6.39559 12.1634 6.38301 12.169 6.36966 12.17C6.35707 12.17 6.34503 12.17 6.33244 12.17C6.3216 12.1686 6.31059 12.1698 6.30031 12.1735C6.29003 12.1773 6.28079 12.1834 6.27333 12.1913V12.1946C6.26282 12.2026 6.25032 12.2075 6.2372 12.2089C6.22461 12.2089 6.21202 12.2089 6.19998 12.2089C6.19109 12.2086 6.18225 12.2104 6.17411 12.214C6.16597 12.2176 6.15873 12.2229 6.15291 12.2297V12.2329C6.1426 12.2409 6.13028 12.2458 6.11733 12.2472C6.10474 12.2472 6.09215 12.2472 6.07956 12.2472C6.07075 12.2468 6.06196 12.2485 6.05395 12.2522C6.04595 12.2559 6.03896 12.2615 6.03358 12.2685C6.01169 12.2751 5.98815 12.2762 5.96681 12.2833C5.94546 12.2904 5.91809 12.2833 5.90167 12.3068C5.87688 12.3102 5.85272 12.3172 5.82997 12.3276C5.81249 12.3328 5.79575 12.3401 5.78016 12.3495C5.76507 12.349 5.75004 12.3516 5.736 12.3571C5.72197 12.3627 5.70923 12.3711 5.6986 12.3818C5.65153 12.3895 5.62033 12.4333 5.57161 12.4366C5.56151 12.4454 5.54885 12.4508 5.53549 12.4519C5.5229 12.4519 5.51031 12.4519 5.49772 12.4519C5.46652 12.4491 5.44298 12.4743 5.41835 12.4825C5.40127 12.4888 5.38576 12.4987 5.37292 12.5115C5.36298 12.5202 5.35049 12.5254 5.33734 12.5263C5.3253 12.5263 5.31271 12.5263 5.30012 12.5263C5.29131 12.5261 5.28257 12.5279 5.27453 12.5315C5.26648 12.5351 5.25934 12.5404 5.2536 12.5471C5.24143 12.5572 5.22616 12.5628 5.21036 12.563C5.18737 12.5597 5.17532 12.5772 5.16164 12.5909C5.15176 12.5972 5.14048 12.601 5.1288 12.6019C5.1198 12.602 5.11093 12.6041 5.10281 12.6079C5.09468 12.6118 5.08749 12.6174 5.08173 12.6243C5.06093 12.6342 5.03684 12.6325 5.01604 12.6429C4.96779 12.6605 4.92094 12.6817 4.87592 12.7064C4.86322 12.715 4.84941 12.7218 4.83487 12.7267C4.8064 12.736 4.78341 12.7557 4.7555 12.7661C4.73802 12.7753 4.71969 12.7828 4.70076 12.7885C4.66198 12.7898 4.62515 12.8058 4.59786 12.8334C4.58592 12.8435 4.57077 12.8489 4.55517 12.8487C4.5456 12.8483 4.53607 12.8501 4.52732 12.854C4.51858 12.8579 4.51087 12.8637 4.50481 12.8712C4.49523 12.8785 4.48392 12.8832 4.47197 12.8848C4.44843 12.8848 4.43803 12.9018 4.42435 12.9144C4.41449 12.9202 4.40346 12.9238 4.39205 12.9248C4.36852 12.9248 4.35921 12.9418 4.34498 12.9538C4.33507 12.96 4.32378 12.9635 4.31214 12.9642C4.28696 12.9642 4.27054 12.9795 4.25248 12.9927C4.23441 13.0058 4.18406 13.002 4.19281 13.0507C4.19281 13.0737 4.19281 13.0967 4.19281 13.1197C4.19883 13.1744 4.1753 13.2291 4.21252 13.2773C4.22383 13.3433 4.22969 13.4101 4.23003 13.4771C4.23003 13.5012 4.23003 13.5258 4.23003 13.5504C4.22842 13.561 4.22994 13.5718 4.23442 13.5816C4.23889 13.5913 4.24612 13.5995 4.25521 13.6052C4.25657 13.6115 4.25657 13.618 4.25521 13.6243C4.26027 13.7037 4.27311 13.7823 4.29353 13.8591C4.29353 13.8849 4.29353 13.9106 4.29353 13.9363C4.29925 13.9455 4.30229 13.9561 4.30229 13.967C4.28915 14.0858 4.33294 14.1969 4.35045 14.3113C4.35501 14.333 4.35685 14.3553 4.35593 14.3775C4.35593 14.395 4.35593 14.4131 4.35593 14.4322C4.37104 14.5091 4.38019 14.5871 4.3833 14.6654C4.38538 14.6717 4.38703 14.6781 4.38822 14.6846C4.39055 14.6972 4.39183 14.71 4.39205 14.7229C4.39205 14.7349 4.39205 14.747 4.39205 14.759C4.39197 14.7674 4.39375 14.7758 4.39725 14.7834C4.40075 14.7911 4.40589 14.7979 4.4123 14.8033L4.41668 14.8422C4.42545 14.8531 4.43044 14.8665 4.43092 14.8805C4.43092 14.8937 4.43092 14.9073 4.43092 14.921V14.9708C4.43092 14.984 4.43092 14.9966 4.43092 15.0097C4.43092 15.0228 4.43092 15.0338 4.43092 15.0458C4.43066 15.0546 4.43235 15.0633 4.43585 15.0713C4.43935 15.0794 4.44458 15.0866 4.45117 15.0923L4.45555 15.1312C4.46431 15.1419 4.46931 15.1552 4.46978 15.169C4.46978 15.1827 4.46978 15.1963 4.46978 15.21C4.46978 15.2237 4.46978 15.2368 4.46978 15.25V15.3392C4.46978 15.3518 4.46978 15.3644 4.46978 15.377C4.46595 15.4022 4.49824 15.4104 4.49769 15.4317C4.50706 15.4776 4.51128 15.5244 4.51028 15.5713C4.51028 15.5959 4.51028 15.6205 4.51028 15.6452C4.51028 15.6698 4.52725 15.6928 4.53765 15.7158C4.53765 15.7519 4.55571 15.7859 4.55024 15.8225C4.55024 15.8477 4.55024 15.8729 4.55024 15.8981C4.55024 15.9353 4.54531 15.973 4.57761 16.0015C4.57477 16.0384 4.57866 16.0755 4.5891 16.111C4.58184 16.1716 4.59091 16.233 4.61538 16.2889C4.61675 16.3034 4.61675 16.3181 4.61538 16.3327C4.62085 16.4794 4.663 16.6211 4.67011 16.7673C4.67613 16.8472 4.69365 16.9249 4.70569 17.0043C4.70797 17.0107 4.70962 17.0173 4.71062 17.024C4.71318 17.037 4.71465 17.0502 4.71499 17.0634C4.71499 17.0765 4.71499 17.0891 4.71499 17.1023V17.1395C4.71499 17.1515 4.71499 17.1636 4.71499 17.1756C4.71463 17.1841 4.71627 17.1927 4.71979 17.2004C4.72331 17.2082 4.7286 17.2151 4.73525 17.2205L4.73963 17.2593C4.7484 17.2704 4.75339 17.2841 4.75386 17.2982C4.75386 17.3152 4.75386 17.3321 4.75386 17.3491V17.3891C4.75386 17.4017 4.75386 17.4142 4.75386 17.4274C4.75386 17.4405 4.75386 17.4515 4.75386 17.4635C4.75361 17.4722 4.7553 17.4808 4.7588 17.4888C4.76231 17.4967 4.76753 17.5038 4.77411 17.5095L4.77849 17.5483C4.78715 17.5593 4.79213 17.5727 4.79272 17.5867C4.79272 17.6003 4.79272 17.614 4.79272 17.6277V17.6775C4.79272 17.6901 4.79272 17.7033 4.79272 17.7158V17.7525C4.79237 17.7614 4.79418 17.7702 4.79799 17.7782C4.80181 17.7862 4.80751 17.7932 4.81461 17.7985V17.8363C4.82555 17.8777 4.83107 17.9204 4.83104 17.9632C4.83104 17.989 4.83104 18.0147 4.83104 18.0404C4.82762 18.0569 4.82828 18.0741 4.83295 18.0903C4.83763 18.1065 4.84617 18.1213 4.85786 18.1335C4.85402 18.1734 4.87647 18.2107 4.87099 18.2506C4.87647 18.3053 4.85183 18.3601 4.89015 18.4077C4.8945 18.4134 4.89716 18.4203 4.89781 18.4274C4.89739 18.5096 4.91033 18.5913 4.93613 18.6693C4.93783 18.7322 4.9459 18.7947 4.96021 18.856C4.96021 18.9162 4.97773 18.9742 4.98156 19.0344V19.0722C4.99889 19.1069 5.0052 19.146 4.99962 19.1844C4.99962 19.2129 4.99962 19.2419 4.99962 19.2703C4.99868 19.2895 5.00345 19.3086 5.01331 19.3251C5.01714 19.3705 5.02754 19.4154 5.02754 19.4614C5.02969 19.4676 5.03134 19.474 5.03246 19.4805C5.035 19.493 5.03646 19.5056 5.03684 19.5183C5.03684 19.5336 5.03684 19.5484 5.03684 19.5637C5.03663 19.5724 5.03834 19.581 5.04184 19.589C5.04534 19.5969 5.05055 19.604 5.05709 19.6097L5.06147 19.6486C5.07 19.6594 5.07497 19.6726 5.07571 19.6863C5.07571 19.6995 5.07571 19.7132 5.07571 19.7268V19.8078C5.07571 19.8221 5.07571 19.8363 5.07571 19.85C5.07571 19.8637 5.07571 19.8867 5.07571 19.9047C5.07571 19.9655 5.07571 20.0257 5.07571 20.0865C5.07571 20.1012 5.07571 20.1155 5.07571 20.1302C5.07571 20.145 5.07571 20.1593 5.07571 20.1735C5.07571 20.1877 5.07571 20.2091 5.07571 20.2282C5.07485 20.2426 5.06949 20.2564 5.06038 20.2676H5.05709C5.05067 20.2733 5.04543 20.2802 5.04168 20.2879C5.03792 20.2956 5.03572 20.304 5.0352 20.3125C5.03431 20.3245 5.03229 20.3364 5.02918 20.3481C5.01987 20.3777 4.99907 20.4028 4.98977 20.4307C4.96897 20.4685 4.94598 20.5052 4.92792 20.5446C4.90531 20.5781 4.87966 20.6094 4.85129 20.6382C4.83814 20.647 4.82726 20.6588 4.81954 20.6727C4.8163 20.6771 4.81243 20.6809 4.80805 20.6842C4.79651 20.6911 4.78677 20.7007 4.77958 20.7121C4.77648 20.7167 4.77259 20.7208 4.76809 20.7241C4.75645 20.731 4.74683 20.7408 4.74017 20.7526C4.73694 20.757 4.73306 20.7608 4.72868 20.7641C4.71467 20.7722 4.70225 20.7828 4.69201 20.7953C4.67285 20.8046 4.66683 20.8265 4.65095 20.8385C4.64084 20.8448 4.6294 20.8485 4.61757 20.8495C4.59184 20.8495 4.58308 20.867 4.57159 20.884C4.56813 20.8856 4.56444 20.8867 4.56064 20.8872C4.54974 20.8949 4.53676 20.8991 4.52342 20.8993C4.48675 20.9075 4.455 20.936 4.41395 20.9288C4.39041 20.925 4.37618 20.9403 4.35921 20.9551C4.35297 20.9569 4.34653 20.9578 4.34005 20.9579C4.26222 20.961 4.18488 20.9717 4.10907 20.9896H3.99303C3.97876 20.9799 3.96141 20.9758 3.94431 20.9781C3.93241 20.9785 3.92076 20.9746 3.91147 20.9672L3.90983 20.9754Z" fill="#C4C4C4"/>
</svg>
