<svg width="48" height="48" viewBox="0 0 48 48" fill="none" xmlns="http://www.w3.org/2000/svg">
<path fill-rule="evenodd" clip-rule="evenodd" d="M11.6167 20.152C11.6167 24.0806 11.6167 28.0102 11.6167 31.9388C11.6167 34.6363 11.5887 37.0183 12.994 39.3563C13.3627 39.9693 13.8334 40.7015 14.2221 41.1252C15.962 43.0194 18.4342 44.7894 22.2466 44.8845C26.1171 44.9807 30.1138 44.8885 33.9983 44.8885V20.157L31.9969 20.15L17.5867 20.142L17.2362 20.0869C16.8315 20.2532 12.5232 20.151 11.6157 20.153L11.6167 20.152Z" fill="#F9D179"/>
<path fill-rule="evenodd" clip-rule="evenodd" d="M34.0514 47.9767L37.0926 43.366L37.0946 20.1621L36.0328 20.1711L33.9984 20.158V44.8896C30.1138 44.8896 26.1171 44.9817 22.2466 44.8856C18.4342 44.7904 15.9621 43.0204 14.2222 41.1262C13.8335 40.7035 13.3627 39.9703 12.9941 39.3573C11.5877 37.0194 11.6168 34.6374 11.6168 31.9398C11.6168 28.0112 11.6168 24.0816 11.6168 20.153L9.49523 20.152L7.75631 20.154V45.4665C7.7493 46.7878 7.56298 46.2428 8.93529 47.6692C9.37402 48.125 9.5373 47.9808 10.3647 47.9788H34.0524L34.0514 47.9767Z" fill="#F5B662"/>
<path fill-rule="evenodd" clip-rule="evenodd" d="M37.0923 43.366C37.536 43.6515 38.2011 44.4198 38.6198 44.8395C39.0556 45.2752 39.7357 46.0846 40.2165 46.364V20.151L39.9871 20.13L39.7838 20.132L37.0943 20.1621L37.0923 43.366Z" fill="#D28E43"/>
<path fill-rule="evenodd" clip-rule="evenodd" d="M22.636 11.7319C22.1402 12.0936 19.9936 12.6755 20.1228 15.324C20.2069 17.0479 21.4761 18.323 23.0517 18.5644C24.2317 18.7457 27.8027 18.6736 29.1119 18.6065C30.8288 18.5183 32.2832 17.2783 32.4204 15.6806C32.0849 13.3186 29.2571 11.9854 26.5776 11.6809L25.5329 11.6518L25.5249 11.6488L24.0434 11.6518L22.636 11.7329V11.7319Z" fill="#D83644"/>
<path fill-rule="evenodd" clip-rule="evenodd" d="M27.8551 6.52417L27.8501 7.016L27.8641 7.7913C27.9863 9.10651 28.8438 10.006 30.176 10.1082C30.194 7.41667 29.6391 4.74418 31.4351 3.75653C31.7617 3.57722 32.0061 3.55218 32.3016 3.35185C32.6542 3.11345 32.7032 2.88807 32.9597 2.73581L33.0829 2.28606C33.2161 2.41327 33.2662 2.4914 33.3944 2.62663C33.5296 2.76887 33.5957 2.80994 33.728 2.9672C34.5754 3.97289 35.9166 5.72884 36.6268 6.82768C36.9744 7.36558 37.2929 8.00966 37.6926 8.47144C37.7798 7.29246 37.8188 6.26574 38.1544 5.13784C38.2986 4.65503 39.4315 2.10976 39.4295 3.47605C39.8573 3.80761 40.1608 4.83433 40.1748 5.65671C40.1918 6.64938 40.1738 7.66108 40.1738 8.65575C40.1738 9.6414 40.292 14.1029 40.1197 14.6558C40.3731 15.8528 40.1958 17.2792 40.2419 18.5584C40.8229 17.6819 42.3184 14.9463 42.4666 13.7303C40.9271 14.2301 40.8018 12.4832 41.2276 11.3202C41.3968 10.8584 41.7815 10.2614 41.8436 9.79967C41.9418 9.06143 41.473 8.73889 41.3337 8.11484C41.0332 6.76457 42.0099 5.5315 41.0723 4.41563C40.6185 3.87673 40.7007 3.45702 40.3681 2.99324C40.0716 2.57955 39.3033 2.40726 39.7431 1.60391C39.3274 1.60391 38.2185 1.75817 37.9851 1.51576C37.7557 1.27837 38.1404 0.808577 37.34 0.228604C36.8161 -0.151034 34.5023 0.0583177 33.6208 0.0583177C32.4979 0.716422 32.8154 -0.0138033 31.9249 1.71209C31.395 2.73882 30.769 2.4934 30.0598 3.13849C29.3376 3.79659 29.4087 4.55587 29.4137 5.76089C29.4197 7.13119 28.6204 7.42869 27.8531 6.52517L27.8551 6.52417Z" fill="#99C135"/>
<path fill-rule="evenodd" clip-rule="evenodd" d="M43.3109 7.39962C43.2668 8.45739 42.9182 9.36692 42.6798 10.3456C42.4444 11.3112 42.5476 12.6695 42.4685 13.7302C42.3202 14.9463 40.8247 17.6819 40.2437 18.5583L39.9873 20.129L40.2167 20.15C42.219 20.165 44.1453 19.3887 45.4114 18.0044C45.5967 17.8021 45.6208 17.7239 45.7981 17.5216C46.5974 16.6091 48.169 13.8104 47.8675 13.1953C47.6412 13.4488 43.7166 16.4238 43.4421 16.5239C42.8421 16.7443 42.3673 16.3286 42.3763 15.8147C42.3793 15.6344 42.6878 14.5576 42.773 14.2972C42.9272 13.8264 43.1146 13.8434 44.0251 13.6411C44.6632 13.4999 45.2702 13.5339 45.5436 13.2915C46.3269 11.9483 46.4642 11.6337 46.8118 9.83871C47.0732 8.49045 47.1734 7.13417 47.1734 5.46637C46.0465 5.46637 45.5136 5.53749 44.7243 5.91512C43.5803 6.46204 43.6925 6.83567 43.3119 7.39861L43.3109 7.39962Z" fill="#336232"/>
<path fill-rule="evenodd" clip-rule="evenodd" d="M19.661 26.0129C18.4209 26.1351 17.1939 26.4236 16.3034 26.9615C15.5351 27.4263 14.5434 28.481 15.469 29.634C17.0987 31.6664 22.9004 31.9048 25.4728 30.3362C28.7132 28.3608 25.1753 25.466 19.661 26.0119V26.0129Z" fill="#FAAB1D"/>
<path fill-rule="evenodd" clip-rule="evenodd" d="M17.8803 13.9827C17.7311 14.3704 17.4075 14.6959 17.2282 15.2288C17.0499 15.7587 17.0119 16.3617 17.0579 16.9657C17.1491 18.1517 17.2893 19.0973 17.5868 20.141L31.997 20.1491C32.1322 19.1243 32.4578 18.2609 32.4919 17.0589C32.4908 16.6191 32.551 16.0271 32.4197 15.6806C32.2825 17.2772 30.8281 18.5183 29.1112 18.6065C27.803 18.6736 24.232 18.7457 23.051 18.5644C21.4754 18.323 20.2062 17.0469 20.1221 15.324C19.9929 12.6765 22.1385 12.0945 22.6353 11.7319C21.6487 11.8371 20.662 12.1286 19.8997 12.4992C19.5421 12.6725 19.1144 12.953 18.8289 13.1633C18.4262 13.4608 18.2399 13.7503 17.8803 13.9837V13.9827Z" fill="#AD313B"/>
<path fill-rule="evenodd" clip-rule="evenodd" d="M30.1759 10.1082C30.6707 10.4077 31.0373 10.7994 31.6554 11.1429C32.2634 10.8124 34.7706 10.9737 35.58 11.0728C36.8671 11.2321 37.7576 11.4855 38.8414 11.9002C38.8064 11.5136 38.0641 9.95495 37.8297 9.59634C37.2447 8.70184 34.4591 7.79031 33.2741 7.56493C32.6801 7.45174 30.6316 7.33655 30.3742 7.23438C30.4614 6.78863 30.6397 6.90182 31.2276 6.93388C32.2233 6.98696 33.1899 7.11618 34.1445 7.38263C35.9957 7.8995 36.4975 8.3783 37.2808 8.63273C36.7609 7.5469 33.5976 3.04835 32.9606 2.73383C32.7031 2.88608 32.654 3.11146 32.3025 3.34986C32.006 3.5502 31.7615 3.57524 31.436 3.75454C29.639 4.7422 30.1949 7.41568 30.1769 10.1062L30.1759 10.1082Z" fill="#88AB00"/>
<path fill-rule="evenodd" clip-rule="evenodd" d="M20.3615 26.3635C19.0342 26.4877 18.2229 26.5828 17.139 27.0196C13.2084 28.6042 17.0559 31.3208 21.4503 30.9402C22.7234 30.83 27.0727 30.1959 26.1722 28.2146C25.5692 26.8863 22.3808 26.1742 20.3605 26.3635H20.3615Z" fill="#88AB00"/>
<path fill-rule="evenodd" clip-rule="evenodd" d="M10.0912 12.6174C10.2875 12.7436 10.7243 12.7907 10.9687 12.8838C11.2381 12.986 11.4625 13.1152 11.6618 13.2525C12.0335 13.5099 12.4532 13.9647 12.6785 14.3443C12.937 14.6328 12.9901 14.6568 13.1794 15.0084C13.4188 15.1076 13.7884 15.7006 14.0298 16.0041C14.3023 16.3467 14.5817 16.6522 14.8211 17.0368C15.0105 17.2291 15.1707 17.3924 15.2939 17.6488C15.5343 17.8943 15.8979 18.319 16.0612 18.6034C16.4659 19.0572 16.9317 19.5901 17.2382 20.0869L17.5888 20.142C17.2903 19.0983 17.151 18.1527 17.0599 16.9667C17.0138 16.3627 17.0519 15.7597 17.2302 15.2298C17.4095 14.6969 17.733 14.3713 17.8823 13.9837C17.6579 13.5099 17.8051 12.4411 17.8041 11.81C17.5557 12.2277 17.5447 12.5192 17.1901 12.967C16.3156 14.0718 14.739 14.2862 13.563 13.4798C11.9503 12.373 12.4141 10.1382 12.3921 7.78729H10.0762L10.0932 12.6174H10.0912Z" fill="#01A3EC"/>
<path fill-rule="evenodd" clip-rule="evenodd" d="M7.65907 12.2308C7.7392 12.363 7.86341 12.0124 7.71116 12.3189C7.619 12.5042 7.80131 12.4081 7.65907 12.2919C6.06139 12.8198 6.41097 13.4368 4.21028 11.2361C3.79458 10.8204 3.2717 10.3656 2.90909 9.93092C2.40124 9.31989 2.39123 8.8461 2.6727 7.98064C1.54681 8.20201 1.23629 9.82173 2.23296 10.605C2.87904 11.1139 5.7689 13.5039 6.01631 13.8735H5.86506C5.3532 14.9774 5.14084 14.7009 3.07938 14.4054C1.48771 14.177 0.613241 14.2972 0.21958 13.4869C-0.284266 14.0719 0.110397 15.2809 1.10106 15.6986L6.40897 16.1924C6.46707 15.1497 6.56523 14.6438 7.09312 13.9847C7.47075 13.5139 8.02769 12.95 8.84005 12.7867L9.97796 12.6284C9.96895 12.1917 9.8818 11.9393 9.8818 11.3603C9.27879 11.3803 8.73588 11.5907 8.48345 11.0207C8.32318 10.6581 8.28312 9.90387 8.21901 9.45311C8.04171 8.20502 7.73219 7.40468 8.14689 6.24072C7.37359 6.24072 6.99195 6.41702 6.67642 6.89983C6.19862 7.63106 6.89779 9.37699 7.21032 10.4578C7.34354 10.9176 7.65005 11.791 7.66007 12.2308H7.65907Z" fill="#628D19"/>
<path fill-rule="evenodd" clip-rule="evenodd" d="M17.8029 11.8091L17.8059 7.89149L17.8029 7.79433L17.0326 7.78632C17.0136 9.47415 17.3722 11.6368 16.2563 11.6378C15.1404 11.6388 15.5 9.48016 15.481 7.78632H12.3898C12.4118 10.1373 11.9481 12.372 13.5608 13.4789C14.7367 14.2852 16.3134 14.0709 17.1879 12.966C17.5425 12.5183 17.5535 12.2268 17.8019 11.8091H17.8029Z" fill="#30CFFF"/>
<path fill-rule="evenodd" clip-rule="evenodd" d="M8.8399 12.7867L8.73272 12.8989C8.7187 12.9129 8.69566 12.9359 8.67963 12.952C8.66461 12.967 8.64257 12.987 8.62654 13.002L8.07261 13.6111C7.21618 14.9734 8.26494 16.0391 8.9551 16.7303C10.4777 18.2549 10.5067 18.7647 13.1321 18.5924L13.2263 18.5964C13.4176 18.2599 13.691 18.0525 13.9735 17.772C14.1258 17.6198 14.2039 17.5367 14.3562 17.3844C14.5845 17.156 14.5445 17.161 14.8189 17.0358C14.5805 16.6522 14.3011 16.3457 14.0276 16.0031C13.7862 15.6996 13.4166 15.1066 13.1772 15.0074C12.5091 15.2037 10.8803 17.8352 10.4216 16.8785C10.3314 16.3767 11.1217 15.8168 11.4272 15.5173L12.501 14.4635C12.6202 14.3673 12.5642 14.4064 12.6753 14.3433C12.45 13.9637 12.0303 13.5089 11.6586 13.2515C11.4603 13.1142 11.2349 12.985 10.9655 12.8828C10.7211 12.7897 10.2843 12.7426 10.088 12.6164L9.97481 12.6274L8.8369 12.7857L8.8399 12.7867Z" fill="#FF9A00"/>
<path fill-rule="evenodd" clip-rule="evenodd" d="M6.40918 16.1914C6.41018 17.0799 7.03623 18.1167 7.54709 18.5263C7.88766 18.7988 8.17915 19.0272 8.51672 19.2956C8.83125 19.5461 9.28701 19.8436 9.49536 20.1511L11.6169 20.1521C12.5244 20.1501 16.8327 20.2532 17.2374 20.086C16.9308 19.5891 16.4651 19.0572 16.0604 18.6025L14.3195 18.6065L15.2931 17.6479C15.1699 17.3914 15.0096 17.2272 14.8203 17.0358C14.5458 17.1611 14.5859 17.156 14.3575 17.3844C14.2053 17.5367 14.1271 17.6198 13.9749 17.7721C13.6934 18.0535 13.4189 18.2609 13.2276 18.5965L14.2213 18.6145C13.9829 18.92 13.456 19.6673 12.9311 19.4208C12.6637 18.9931 12.9171 18.8729 13.1335 18.5915C10.5081 18.7637 10.479 18.2539 8.95646 16.7293C8.2663 16.0382 7.21754 14.9724 8.07397 13.6101L8.6279 13.0011C8.64393 12.986 8.66497 12.966 8.68099 12.951C8.69702 12.935 8.71906 12.9119 8.73408 12.8979L8.84126 12.7857C8.0289 12.949 7.47196 13.5129 7.09433 13.9837C6.56544 14.6418 6.46828 15.1477 6.41018 16.1914H6.40918Z" fill="#F37924"/>
<path fill-rule="evenodd" clip-rule="evenodd" d="M33.2642 13.7863C34.4221 14.0608 35.9497 14.7239 36.9493 15.2117C39.146 16.2825 39.5187 16.9807 40.0185 17.2722C40.0215 16.1914 39.8803 15.1576 39.6379 14.157C39.2322 12.4781 39.2682 12.4651 38.2415 12.0815C35.9907 11.2381 34.4131 11.4404 31.979 11.3953C32.7323 11.9422 33.2471 12.4551 33.2642 13.7873V13.7863Z" fill="#88AB00"/>
<path fill-rule="evenodd" clip-rule="evenodd" d="M27.0767 8.06373C27.0997 11.0337 29.7692 10.3385 31.3789 11.9873C31.7866 12.404 31.8196 12.7616 32.054 13.3406C32.2634 13.8565 32.4727 14.2601 32.7001 14.7199C32.8554 15.0344 33.3262 15.7997 33.3973 16.0612C33.5796 16.7253 33.0928 17.0358 32.4907 17.0608C32.4567 18.2628 32.1311 19.1263 31.9959 20.151L33.9973 20.158L36.0317 20.1711C35.8494 18.8358 35.5218 17.9223 34.9369 16.9326C34.3949 16.0151 33.5836 15.4672 33.3612 14.21C33.211 14.0037 33.2721 14.1169 33.264 13.7873C33.248 12.4551 32.7332 11.9422 31.9789 11.3953C31.8176 11.2741 31.7806 11.2541 31.6553 11.1449C31.0363 10.8013 30.6707 10.4097 30.1759 10.1102C28.8436 10.008 27.9862 9.10848 27.864 7.79327C27.4813 7.83635 27.3201 7.85638 27.0767 8.06473V8.06373Z" fill="#4D6E15"/>
<path fill-rule="evenodd" clip-rule="evenodd" d="M36.0328 20.1701L37.0946 20.161L39.7841 20.131C40.0065 19.2265 40.302 18.1106 39.6819 17.4996C38.3387 16.1763 35.2234 14.6678 33.3623 14.209C33.5847 15.4672 34.396 16.0141 34.938 16.9316C35.5229 17.9213 35.8505 18.8348 36.0328 20.1701Z" fill="#88AB00"/>
<path fill-rule="evenodd" clip-rule="evenodd" d="M17.5298 5.27509C17.9064 6.28479 17.8052 6.60132 17.8042 7.79532L17.9625 7.75926C19.2527 6.96794 21.6998 6.79364 23.2844 7.42671C24.0317 7.72521 24.7138 8.29717 25.0845 8.9122C25.6294 9.81371 25.5342 10.4618 25.5332 11.6528L26.578 11.6818C26.2254 11.0007 26.2855 10.5359 26.3045 9.61838C26.3215 8.80903 26.5459 8.38431 27.0778 8.06378C27.3212 7.85543 27.4825 7.83439 27.8651 7.79232L27.8511 7.01702C25.1255 6.97294 20.3275 6.33788 19.425 4.30847C18.9972 4.42066 18.7959 4.53485 18.4153 4.72517C18.0036 4.93052 17.8854 5.06674 17.5308 5.27409L17.5298 5.27509Z" fill="#F0661C"/>
<path fill-rule="evenodd" clip-rule="evenodd" d="M42.4686 13.7303C42.5477 12.6695 42.4446 11.3122 42.68 10.3456C42.9184 9.36794 43.267 8.45741 43.311 7.39964C43.303 6.62534 43.4022 5.7719 43.1147 5.27407C42.8242 4.76922 42.2903 4.63099 41.9908 4.07906C41.5651 3.29174 42.128 1.60291 39.744 1.60291C39.3033 2.40625 40.0726 2.57854 40.3691 2.99224C40.7017 3.45602 40.6195 3.87572 41.0733 4.41463C42.0119 5.5295 41.0342 6.76257 41.3347 8.11384C41.4739 8.73788 41.9427 9.06042 41.8446 9.79866C41.7835 10.2594 41.3978 10.8574 41.2285 11.3192C40.8028 12.4832 40.928 14.2291 42.4676 13.7293L42.4686 13.7303Z" fill="#B9D571"/>
<path fill-rule="evenodd" clip-rule="evenodd" d="M32.9604 2.7358C33.5974 3.05033 36.7597 7.54888 37.2806 8.6347C36.4963 8.38028 35.9955 7.90147 34.1443 7.3846C33.1907 7.11816 32.2231 6.98894 31.2275 6.93585C30.6395 6.9038 30.4612 6.79061 30.374 7.23636C30.6315 7.33853 32.6799 7.45372 33.2739 7.56691C34.4589 7.79229 37.2446 8.70382 37.8295 9.59832C38.0639 9.95692 38.8062 11.5145 38.8412 11.9022C37.7574 11.4885 36.8679 11.2341 35.5798 11.0748C34.7704 10.9746 32.2642 10.8134 31.6552 11.1449C31.7804 11.2541 31.8174 11.2741 31.9787 11.3953C34.4128 11.4394 35.9904 11.2381 38.2412 12.0815C39.2669 12.4661 39.2309 12.4792 39.6376 14.157C39.88 15.1577 40.0222 16.1914 40.0182 17.2722C39.5184 16.9817 39.1457 16.2825 36.9491 15.2117C35.9494 14.7239 34.4208 14.0608 33.2639 13.7864C33.2729 14.1169 33.2108 14.0027 33.361 14.2091C35.2222 14.6688 38.3374 16.1774 39.6806 17.4996C40.3007 18.1106 40.0062 19.2265 39.7828 20.131L39.9862 20.129L40.2426 18.5584C40.1965 17.2792 40.3738 15.8528 40.1204 14.6558C39.9761 13.7373 39.6296 12.7025 39.306 11.8842L38.1481 9.37394C37.6903 8.02268 38.6239 4.03699 39.4282 3.47705C39.4312 2.11075 38.2973 4.65602 38.1531 5.13884C37.8165 6.26673 37.7784 7.29345 37.6913 8.47243C37.2916 8.01066 36.9731 7.36557 36.6255 6.82867C35.9143 5.72883 34.5731 3.97388 33.7266 2.96819C33.5934 2.80993 33.5283 2.76986 33.3931 2.62762C33.2649 2.49239 33.2148 2.41426 33.0816 2.28705L32.9584 2.7368L32.9604 2.7358Z" fill="#B9D571"/>
<path fill-rule="evenodd" clip-rule="evenodd" d="M19.4238 4.30843C20.3263 6.33684 25.1244 6.9719 27.85 7.01698L27.855 6.52515L27.85 5.85503C27.5525 5.65469 27.4263 5.44133 27.1478 5.20594C26.9224 5.01562 26.5488 4.77822 26.2743 4.62997C25.6473 4.2924 24.908 4.02696 23.9865 4.01594L22.0542 3.91577C21.1457 3.93781 20.0509 4.04198 19.4238 4.30843Z" fill="#FF9A00"/>
<path fill-rule="evenodd" clip-rule="evenodd" d="M40.1215 14.6558C40.2938 14.1029 40.1756 9.64243 40.1756 8.65577C40.1756 7.6611 40.1936 6.6494 40.1766 5.65673C40.1626 4.83435 39.8591 3.80763 39.4314 3.47607C38.626 4.03601 37.6934 8.0207 38.1512 9.37297L39.3091 11.8832C39.6317 12.7016 39.9793 13.7373 40.1235 14.6548L40.1215 14.6558Z" fill="#89B029"/>
<path fill-rule="evenodd" clip-rule="evenodd" d="M12.3908 7.7873H15.482C15.474 7.04706 15.438 6.24572 16.2573 6.24572C17.0747 6.24572 17.0416 7.04906 17.0326 7.7873L17.8029 7.79532C17.8039 6.60131 17.9061 6.28478 17.5285 5.27509C17.3271 5.08777 17.0627 4.85638 16.7742 4.75822C16.4216 4.63902 15.8997 4.69611 15.484 4.69511L13.5067 4.69912C13.0429 5.03669 12.6823 5.12183 12.473 5.74287C12.3217 6.19363 12.3848 7.2484 12.3898 7.78831L12.3908 7.7873Z" fill="#E5F5F5"/>
<path fill-rule="evenodd" clip-rule="evenodd" d="M24.0437 11.6508L25.5252 11.6478L24.3983 10.4678C22.3649 8.97228 21.0456 7.93854 17.9625 7.75824L17.8042 7.7943L17.8072 7.89146C18.284 8.49948 18.3551 9.39799 20.1872 10.5239C21.861 11.5526 23.4156 11.4054 24.0447 11.6508H24.0437Z" fill="#88AB00"/>
<path fill-rule="evenodd" clip-rule="evenodd" d="M26.5769 11.6808C29.2564 11.9864 32.0841 13.3196 32.4197 15.6806C32.5509 16.0271 32.4908 16.6191 32.4918 17.0589C33.0938 17.0348 33.5806 16.7233 33.3983 16.0592C33.3272 15.7978 32.8564 15.0325 32.7011 14.7179C32.4748 14.2582 32.2644 13.8555 32.0551 13.3386C31.8207 12.7597 31.7866 12.4021 31.3799 11.9854C29.7702 10.3366 27.0997 11.0318 27.0777 8.06177C26.5458 8.3813 26.3204 8.80702 26.3044 9.61638C26.2854 10.5329 26.2263 10.9977 26.5779 11.6798L26.5769 11.6808Z" fill="#628D19"/>
<path fill-rule="evenodd" clip-rule="evenodd" d="M27.8501 5.85403L27.8551 6.52415C28.6224 7.42767 29.4217 7.13017 29.4157 5.75987C29.4107 4.55384 29.3386 3.79457 30.0618 3.13747C30.77 2.49238 31.397 2.7378 31.9269 1.71107C32.8174 -0.0148251 32.4999 0.715401 33.6228 0.0572958C32.7152 0.0572958 31.5683 -0.0739245 31.0204 0.32775C30.3393 0.826587 30.5296 1.32342 29.5609 1.76717C29.0561 1.99855 28.2227 2.10373 27.9142 3.01827C27.7088 3.62629 27.8531 5.11278 27.8511 5.85403H27.8501Z" fill="#B9D571"/>
<path fill-rule="evenodd" clip-rule="evenodd" d="M34.0513 47.9768C34.5842 47.9287 39.9882 46.6115 40.2166 46.3641C39.7358 46.0856 39.0557 45.2752 38.6199 44.8395C38.2002 44.4198 37.5351 43.6515 37.0924 43.366L34.0513 47.9768Z" fill="#A15C27"/>
<path fill-rule="evenodd" clip-rule="evenodd" d="M17.9624 7.75824C21.0456 7.93855 22.3648 8.97328 24.3982 10.4678L25.5251 11.6478L25.5331 11.6508C25.5341 10.4608 25.6293 9.81169 25.0844 8.91018C24.7137 8.29615 24.0316 7.72318 23.2843 7.42468C21.6997 6.79162 19.2526 6.96591 17.9624 7.75724V7.75824Z" fill="#A1C103"/>
<path fill-rule="evenodd" clip-rule="evenodd" d="M17.8033 11.809C17.8043 12.4391 17.656 13.5089 17.8814 13.9827C18.241 13.7493 18.4273 13.4598 18.83 13.1623C19.1155 12.9519 19.5432 12.6725 19.9008 12.4982C20.6631 12.1276 21.6497 11.8361 22.6364 11.7309L24.0438 11.6498C23.4147 11.4053 21.8601 11.5516 20.1863 10.5229C18.3542 9.39797 18.2841 8.49946 17.8063 7.89044L17.8033 11.808V11.809Z" fill="#F0661C"/>
<path fill-rule="evenodd" clip-rule="evenodd" d="M2.67388 7.97961C2.39241 8.84506 2.40243 9.31986 2.91028 9.92988C3.27188 10.3646 3.79576 10.8194 4.21146 11.2351C6.41216 13.4358 6.06257 12.8187 7.66025 12.2908V12.2297C6.58444 11.5095 4.64519 8.19798 3.5774 7.89948L2.67388 7.97961Z" fill="#88AB00"/>
<path fill-rule="evenodd" clip-rule="evenodd" d="M45.5439 13.2935C45.2704 13.5359 44.6634 13.5019 44.0253 13.6431C43.1148 13.8454 42.9275 13.8284 42.7732 14.2992C42.6881 14.5596 42.3796 15.6364 42.3766 15.8167C42.3686 16.3306 42.8423 16.7463 43.4424 16.5259C43.7168 16.4248 47.6414 13.4508 47.8678 13.1973C47.4741 13.1973 47.0805 13.1963 46.6868 13.1953C46.1379 13.1933 45.9546 13.2845 45.5429 13.2945L45.5439 13.2935Z" fill="#628D19"/>
<path fill-rule="evenodd" clip-rule="evenodd" d="M26.5967 13.3527C26.5496 14.2632 27.1847 14.2682 28.3566 15.2038C28.7202 15.4943 30.1657 16.8656 30.6174 15.6655C31.1393 14.2782 29.4725 13.0882 28.0481 12.965C27.2708 12.8979 27.1146 12.963 26.5967 13.3527Z" fill="#FE6565"/>
<path fill-rule="evenodd" clip-rule="evenodd" d="M10.075 7.78626H12.3909C12.3859 7.24736 12.3227 6.19158 12.474 5.74083C12.6824 5.11978 13.044 5.03464 13.5077 4.69707L12.3939 4.69407C11.295 4.69407 10.8262 4.63998 10.3404 5.34616C10.103 5.69174 10.068 5.86704 10.071 6.42998C10.073 6.88274 10.075 7.3345 10.075 7.78626Z" fill="#CED9D9"/>
<path fill-rule="evenodd" clip-rule="evenodd" d="M9.88163 11.3603C9.87462 11.0268 9.81351 10.9837 9.79048 10.6792C9.76844 10.3857 9.79849 10.1413 9.75842 9.84177C9.70633 9.45011 9.65024 8.66179 9.60817 8.2531C9.52203 7.40568 9.60617 7.46578 9.2095 6.91285C8.95007 6.55024 8.64555 6.35992 8.14672 6.24072C7.73202 7.40468 8.04154 8.20402 8.21884 9.45312C8.28295 9.90387 8.32301 10.6581 8.48328 11.0207C8.73571 11.5917 9.27862 11.3814 9.88163 11.3603Z" fill="#88AB00"/>
<path fill-rule="evenodd" clip-rule="evenodd" d="M0.219752 13.4869C0.613412 14.2972 1.48788 14.177 3.07955 14.4054C5.14101 14.7009 5.35337 14.9774 5.86523 13.8735C3.942 13.5019 0.684532 11.783 0.21875 13.4869H0.219752Z" fill="#88AB00"/>
<path fill-rule="evenodd" clip-rule="evenodd" d="M12.3931 4.6951L13.507 4.6981L15.4843 4.69409V3.9218H14.711V1.60291H13.9377L13.9337 3.91779C12.8869 3.73248 13.1654 2.65167 13.1654 1.60291H12.3921V4.69409L12.3931 4.6951Z" fill="#01A3EC"/>
<path fill-rule="evenodd" clip-rule="evenodd" d="M17.0338 7.78729H15.4822C15.5012 9.48013 15.1426 11.6398 16.2575 11.6388C17.3724 11.6378 17.0138 9.47513 17.0338 7.78729Z" fill="#99EFFF"/>
<path fill-rule="evenodd" clip-rule="evenodd" d="M23.9866 3.90575C23.9185 3.14648 23.1232 1.89037 22.417 1.33744C21.4924 0.612226 20.1652 0.830593 18.6587 0.830593L23.9866 3.90575Z" fill="#A1C103"/>
<path fill-rule="evenodd" clip-rule="evenodd" d="M22.0544 3.91581L23.9866 4.01597V3.90579L18.6587 0.830627C18.5355 1.05901 18.5425 1.13414 18.6256 1.44666C18.7919 2.0657 19.2817 2.47439 19.7615 2.83299C20.1331 3.11045 20.3866 3.2547 20.8103 3.42699L21.8671 3.81864C22.0444 3.89677 21.9582 3.8537 22.0544 3.91681V3.91581Z" fill="#88AB00"/>
<path fill-rule="evenodd" clip-rule="evenodd" d="M9.44709 13.577C7.63504 14.2331 10.2985 14.9503 11.0448 14.9313C12.3369 14.8992 11.2291 12.9319 9.44709 13.577Z" fill="#FBC900"/>
<path fill-rule="evenodd" clip-rule="evenodd" d="M13.1794 15.0084C12.99 14.6568 12.937 14.6328 12.6785 14.3443C12.5673 14.4074 12.6234 14.3683 12.5042 14.4645L11.4304 15.5183C11.1249 15.8178 10.3336 16.3787 10.4247 16.8796C10.8825 17.8362 12.5112 15.2047 13.1804 15.0084H13.1794Z" fill="#F37924"/>
<path fill-rule="evenodd" clip-rule="evenodd" d="M15.4824 7.78732H17.034C17.042 7.04908 17.0761 6.24573 16.2587 6.24573C15.4393 6.24573 15.4744 7.04807 15.4834 7.78732H15.4824Z" fill="white"/>
<path fill-rule="evenodd" clip-rule="evenodd" d="M15.4852 3.92177V1.60388H14.7119V3.92177H15.4852Z" fill="#30CFFF"/>
<path fill-rule="evenodd" clip-rule="evenodd" d="M13.9387 1.60388H13.1654C13.1654 2.65164 12.887 3.73245 13.9337 3.91877L13.9377 1.60388H13.9387Z" fill="#30CFFF"/>
<path fill-rule="evenodd" clip-rule="evenodd" d="M16.0593 18.6035C15.896 18.318 15.5324 17.8933 15.292 17.6489L14.3184 18.6075L16.0593 18.6035Z" fill="#FF9A00"/>
<path fill-rule="evenodd" clip-rule="evenodd" d="M13.2276 18.5975L13.1334 18.5934C12.917 18.8749 12.6626 18.9941 12.9311 19.4228C13.4559 19.6682 13.9828 18.922 14.2212 18.6165L13.2276 18.5985V18.5975Z" fill="#E95410"/>
</svg>
