<svg width="14" height="14" viewBox="0 0 14 14" fill="none" xmlns="http://www.w3.org/2000/svg">
<path d="M8.55051 5.62001C8.80977 5.96511 9.14571 6.20694 9.57534 6.24964C10.1592 6.30802 10.7518 6.34724 11.249 5.92633C11.3505 5.83918 11.4446 5.7455 11.5418 5.65443C11.6243 5.75528 11.7162 5.84806 11.8163 5.93156C12.0991 6.1516 12.4163 6.27665 12.7749 6.27099C12.8786 6.27099 12.9143 6.29365 12.9139 6.40519C12.9104 8.54025 12.9094 10.6753 12.9108 12.8104C12.9108 13.1154 12.7801 13.2422 12.4699 13.2422C10.4708 13.2422 8.47135 13.2433 6.47166 13.2457C6.33005 13.2457 6.29127 13.2147 6.2917 13.0688C6.2978 11.4335 6.29562 9.7982 6.29562 8.16291C6.29562 7.77381 6.19279 7.67141 5.80412 7.67141H3.31307C2.93791 7.67141 2.82462 7.78296 2.82462 8.15071C2.82462 9.79108 2.82564 11.4323 2.82767 13.0744C2.82767 13.2051 2.80632 13.2487 2.6634 13.2465C2.27822 13.2348 1.89217 13.2435 1.50655 13.2422C1.21984 13.2422 1.08302 13.1115 1.08259 12.8265C1.08084 10.6862 1.07968 8.54577 1.0791 6.40519C1.0791 6.29365 1.11483 6.27099 1.2181 6.27055C1.69043 6.27055 2.07953 6.0797 2.38759 5.72589C2.44641 5.65879 2.46994 5.63875 2.53879 5.72023C2.68504 5.89966 2.87078 6.04289 3.0815 6.13872C3.29222 6.23456 3.52223 6.28042 3.75359 6.27273C3.97146 6.27055 4.18932 6.28493 4.40413 6.2553C4.83768 6.19561 5.18278 5.97164 5.44421 5.61914C6.09345 6.5102 7.89953 6.51369 8.55051 5.62001Z" fill="#F24748"/>
<path d="M7.01061 0.0135316C7.21671 0.0135316 7.42324 0.0170174 7.62978 0.0135316C7.71257 0.0135316 7.73958 0.0379323 7.74873 0.122463C7.89601 1.4645 8.04938 2.8061 8.19491 4.14858C8.2167 4.3464 8.2533 4.54291 8.20929 4.74727C8.1069 5.22657 7.69426 5.58386 7.20712 5.58386C6.98926 5.58386 6.7714 5.61088 6.55833 5.55598C6.30731 5.48944 6.08917 5.33364 5.94478 5.11779C5.8004 4.90194 5.73969 4.64084 5.77402 4.38344C5.86683 3.64531 5.94046 2.90806 6.02369 2.16733C6.10038 1.47757 6.17794 0.787818 6.25157 0.0976269C6.26116 0.00699569 6.31475 0.0135316 6.37619 0.0135316H7.01061Z" fill="#F24748"/>
<path d="M3.92388 5.58456C3.79316 5.57497 3.64327 5.5985 3.49251 5.55449C3.04197 5.42378 2.7631 4.97062 2.88685 4.51572C3.26767 3.11312 3.65895 1.71356 4.04675 0.313137C4.12998 0.0129209 4.1339 0.0133566 4.4498 0.0133566C4.78139 0.0133566 5.11298 0.0181495 5.44413 0.0107422C5.55132 0.0107422 5.57223 0.0438574 5.56134 0.14146C5.48901 0.761064 5.41871 1.38081 5.35045 2.00071C5.27899 2.63687 5.20811 3.27288 5.13781 3.90875C5.10339 4.22161 5.07899 4.53577 5.03237 4.84644C4.96657 5.28652 4.60666 5.58282 4.15743 5.58717L3.92388 5.58456Z" fill="#F24748"/>
<path d="M9.1524 0.0133947C9.34805 0.0133947 9.54456 0.0194949 9.73889 0.0133947C9.84042 0.00903741 9.87615 0.0438956 9.90273 0.140191C10.213 1.2709 10.5293 2.40031 10.843 3.53015C10.9341 3.85825 11.0291 4.18374 11.1097 4.51576C11.1427 4.64354 11.1456 4.77722 11.1183 4.90634C11.091 5.03546 11.0342 5.1565 10.9524 5.26001C10.8705 5.36352 10.7658 5.44669 10.6464 5.503C10.5271 5.55931 10.3963 5.58724 10.2644 5.5846C10.043 5.5846 9.8195 5.61728 9.5999 5.55715C9.42564 5.5099 9.27018 5.41009 9.15471 5.2713C9.03923 5.13251 8.96935 4.96149 8.95459 4.78155C8.85263 3.8382 8.74326 2.89573 8.63738 1.95238C8.57027 1.35413 8.50666 0.755873 8.43607 0.158056C8.42343 0.0499957 8.44086 0.00163012 8.56679 0.00903748C8.76069 0.0216736 8.95676 0.0133947 9.1524 0.0133947Z" fill="#F24748"/>
<path d="M3.41571 0.0133152C3.03445 1.38673 2.66059 2.73356 2.2863 4.08431C2.20526 4.37581 2.1277 4.66818 2.04055 4.95794C1.99022 5.14264 1.87914 5.305 1.72522 5.41884C1.57131 5.53267 1.38354 5.59134 1.19219 5.58539C1.0179 5.58539 0.846228 5.605 0.674116 5.56012C0.124228 5.41676 -0.147229 4.88125 0.0810915 4.35446C0.440566 3.52658 0.810934 2.70524 1.17694 1.88084C1.37869 1.42638 1.58566 0.972785 1.78086 0.516144C1.92727 0.171484 2.17824 0.00503634 2.55253 0.0124437C2.83445 0.0181081 3.1168 0.0133152 3.41571 0.0133152Z" fill="#F24748"/>
<path d="M11.1202 0.0138599C11.2509 0.0138599 11.3816 0.0112455 11.5123 0.0138599C11.8173 0.0208315 12.0496 0.153292 12.1742 0.431286C12.762 1.74282 13.3507 3.05436 13.9236 4.372C14.1798 4.96154 13.7546 5.57678 13.1075 5.58332C12.945 5.58332 12.7772 5.60031 12.6208 5.5672C12.2762 5.49443 12.0457 5.28049 11.9494 4.93452C11.5282 3.42081 11.107 1.90695 10.6857 0.392942C10.6518 0.270939 10.5498 0.11887 10.6152 0.0330318C10.6622 -0.0288414 10.8491 0.0156027 10.9738 0.0134241C11.0221 0.0129883 11.0709 0.0134242 11.1202 0.0138599Z" fill="#F24748"/>
<path d="M8.04149 9.41391C8.04149 8.97383 8.04149 8.53418 8.04149 8.09409C8.04149 7.80913 8.17656 7.67231 8.4576 7.67188C9.22303 7.67188 9.98875 7.67188 10.7548 7.67188C11.0354 7.67188 11.1709 7.80956 11.1709 8.09366C11.1709 8.97325 11.1709 9.85298 11.1709 10.7329C11.1709 11.0104 11.0423 11.1429 10.7635 11.1437C9.99224 11.1469 9.221 11.1469 8.44976 11.1437C8.17003 11.1437 8.04279 11.013 8.04192 10.7333C8.04018 10.2932 8.04149 9.85356 8.04149 9.41391Z" fill="white"/>
</svg>
