<svg width="19" height="19" viewBox="0 0 19 19" fill="none" xmlns="http://www.w3.org/2000/svg">
<path d="M8.8278 11.7464C8.77712 11.7464 8.7315 11.7312 8.69096 11.7008C8.66055 11.6603 8.64535 11.6147 8.64535 11.564V10.9406C8.64535 10.4541 8.76698 10.0638 9.01025 9.76987C9.25352 9.46578 9.60829 9.14649 10.0746 8.812C10.48 8.51805 10.7841 8.2545 10.9868 8.02137C11.1895 7.7781 11.2909 7.47908 11.2909 7.12431C11.2909 6.729 11.1541 6.41478 10.8804 6.18164C10.6067 5.93837 10.2469 5.81674 9.80088 5.81674C9.33461 5.81674 8.95957 5.94344 8.67575 6.19685C8.39194 6.45025 8.25003 6.77461 8.25003 7.16993V7.48922C8.25003 7.60072 8.18922 7.65647 8.06758 7.65647L6.66878 7.59565C6.6181 7.59565 6.57249 7.57538 6.53194 7.53483C6.50153 7.49429 6.48633 7.44867 6.48633 7.39799V7.16993C6.48633 6.59216 6.62824 6.08028 6.91205 5.63429C7.19586 5.17816 7.59118 4.82846 8.09799 4.58519C8.6048 4.33178 9.18763 4.20508 9.84649 4.20508C10.8297 4.20508 11.6153 4.46862 12.2032 4.9957C12.7911 5.51265 13.085 6.20192 13.085 7.0635C13.085 7.50949 13.0039 7.89467 12.8417 8.21903C12.6897 8.54339 12.5073 8.80693 12.2944 9.00965C12.0917 9.21238 11.8129 9.44044 11.4582 9.69385C11.1034 9.94725 10.8398 10.1703 10.6675 10.3628C10.4952 10.5453 10.4091 10.7734 10.4091 11.047V11.564C10.4091 11.6147 10.3888 11.6603 10.3482 11.7008C10.3178 11.7312 10.2773 11.7464 10.2266 11.7464H8.8278ZM9.48159 15.0154C9.16736 15.0154 8.90889 14.914 8.70616 14.7113C8.50344 14.5086 8.40208 14.2501 8.40208 13.9359C8.40208 13.6216 8.50344 13.3682 8.70616 13.1756C8.90889 12.9729 9.16736 12.8716 9.48159 12.8716C9.79581 12.8716 10.0492 12.9729 10.2418 13.1756C10.4445 13.3682 10.5459 13.6216 10.5459 13.9359C10.5459 14.2501 10.4445 14.5086 10.2418 14.7113C10.0391 14.914 9.78567 15.0154 9.48159 15.0154Z" fill="#C4C4C4"/>
<circle cx="9.5" cy="9.5" r="8.75" stroke="#C4C4C4" stroke-width="1.5"/>
</svg>
