<svg width="29" height="24" viewBox="0 0 29 24" fill="none" xmlns="http://www.w3.org/2000/svg">
<path fill-rule="evenodd" clip-rule="evenodd" d="M12.0584 15.2065C7.63775 15.2065 3.8623 15.7875 3.8623 18.1155C3.8623 20.4435 7.61475 21.0455 12.0584 21.0455C16.4801 21.0455 20.2544 20.4635 20.2544 18.1365C20.2544 15.8095 16.5031 15.2065 12.0584 15.2065Z" stroke="#C4C4C4" stroke-width="1.5" stroke-linecap="round" stroke-linejoin="round"/>
<path fill-rule="evenodd" clip-rule="evenodd" d="M12.0587 11.886C14.9602 11.886 17.3119 9.841 17.3119 7.318C17.3119 4.795 14.9602 2.75 12.0587 2.75C9.15842 2.75 6.80667 4.795 6.80667 7.318C6.79632 9.832 9.13082 11.877 12.0231 11.886H12.0587Z" stroke="#C4C4C4" stroke-width="1.5" stroke-linecap="round" stroke-linejoin="round"/>
<path d="M22.785 8.66943V12.6794" stroke="#C4C4C4" stroke-width="1.5" stroke-linecap="round" stroke-linejoin="round"/>
<path d="M25.1371 10.6743H20.4336" stroke="#C4C4C4" stroke-width="1.5" stroke-linecap="round" stroke-linejoin="round"/>
</svg>
