<svg width="15" height="20" viewBox="0 0 15 20" fill="none" xmlns="http://www.w3.org/2000/svg">
<path d="M2.02436 0C2.32187 0.0829903 2.6126 0.17642 2.86314 0.371629C3.10135 0.556808 3.28815 0.79994 3.40569 1.07783C3.52324 1.35572 3.56761 1.65909 3.53459 1.959C3.50156 2.25892 3.39223 2.54536 3.21704 2.79102C3.04184 3.03667 2.80662 3.23333 2.53381 3.36223C2.26101 3.49114 1.95972 3.54799 1.6587 3.52736C1.35768 3.50673 1.06697 3.4093 0.814301 3.24439C0.561634 3.07947 0.355441 2.85256 0.215395 2.5853C0.0753502 2.31804 0.00612477 2.01936 0.0143241 1.71774C0.0513827 0.86383 0.653193 0.168068 1.47266 0.0349708C1.53425 -0.00417561 1.61202 0.0469756 1.67256 0H2.02436Z" fill="#C4C4C4"/>
<path d="M6.72219 0.031839C7.35793 0.0949952 7.96392 0.626342 8.14869 1.27826C8.24619 1.619 8.23896 1.98119 8.12794 2.31776C8.01691 2.65434 7.80724 2.94975 7.52614 3.16561C7.24505 3.38146 6.90553 3.5078 6.5517 3.52819C6.19787 3.54858 5.84609 3.46208 5.54206 3.27994C4.90528 2.8984 4.58376 2.17706 4.71738 1.42806C4.84265 0.727601 5.41105 0.169634 6.14022 0.0334049C6.16579 0.0287073 6.19241 0.0292293 6.20338 0H6.51655C6.57918 0.0454098 6.65695 0 6.72219 0.031839Z" fill="#C4C4C4"/>
<path d="M11.3972 0C11.6953 0.0819464 11.9855 0.176942 12.2365 0.37163C12.475 0.556538 12.6621 0.799497 12.78 1.07731C12.8978 1.35511 12.9425 1.6585 12.9097 1.95848C12.8769 2.25846 12.7677 2.54503 12.5927 2.79082C12.4176 3.03661 12.1824 3.23341 11.9096 3.36243C11.6368 3.49145 11.3355 3.54839 11.0344 3.52779C10.7334 3.5072 10.4426 3.40977 10.1899 3.2448C9.93721 3.07983 9.73103 2.85284 9.59105 2.5855C9.45107 2.31816 9.38196 2.0194 9.39033 1.71774C9.42373 0.864874 10.0208 0.174332 10.8455 0.0349708C10.9076 -0.00417561 10.9854 0.0469756 11.0454 0L11.3972 0Z" fill="#C4C4C4"/>
<path d="M7.93675 10.0493C8.12726 9.94122 8.29585 9.84518 8.48584 9.80603C9.0412 9.69016 9.51461 9.8457 9.9019 10.2544C9.9708 10.3269 9.99481 10.3426 10.0731 10.2607C10.7083 9.59673 11.6082 9.60039 12.2564 10.2695C12.3316 10.3473 12.3545 10.3243 12.4156 10.2607C12.8635 9.7909 13.4073 9.63431 14.0144 9.86554C14.6214 10.0968 14.9413 10.5707 14.97 11.2284C14.9727 11.2868 14.97 11.3453 14.97 11.4043C14.97 14.1118 14.97 16.8193 14.97 19.5269C14.97 19.9267 14.9022 19.9966 14.5107 19.9966C12.1219 19.9966 9.73313 19.9977 7.34434 19.9998C7.25783 20.0028 7.1717 19.9869 7.09193 19.9533C7.01217 19.9197 6.94067 19.8691 6.88241 19.8051C5.76074 18.6688 4.7612 17.4255 3.73765 16.2036C3.47041 15.8842 3.19117 15.5741 2.93489 15.2463C2.29967 14.4337 2.55647 13.3151 3.46624 12.9445C4.00228 12.7264 4.51014 12.8135 4.98251 13.17C5.02478 13.0985 5.00808 13.0275 5.00808 12.9612C5.00808 10.9368 5.00686 8.91245 5.00443 6.88832C5.00443 6.12471 5.41625 5.56152 6.10418 5.37467C6.97271 5.1377 7.89239 5.77239 7.92057 6.67224C7.95293 7.71927 7.93258 8.76787 7.93519 9.81595L7.93675 10.0493Z" fill="#C4C4C4"/>
<path d="M1.7784 12.892C1.4294 12.891 1.08855 12.7864 0.799038 12.5915C0.509523 12.3966 0.284363 12.1201 0.152076 11.7972C0.019788 11.4742 -0.0136756 11.1193 0.055923 10.7773C0.125522 10.4353 0.295051 10.1216 0.54304 9.87605C0.791029 9.63048 1.10632 9.46403 1.44898 9.39778C1.79164 9.33153 2.14625 9.36847 2.46791 9.50391C2.78956 9.63935 3.06378 9.86721 3.25584 10.1586C3.44789 10.45 3.54915 10.7919 3.54677 11.1409C3.54332 11.6072 3.35536 12.0532 3.02398 12.3814C2.6926 12.7095 2.24477 12.8931 1.7784 12.892Z" fill="#C4C4C4"/>
<path d="M1.75442 8.2185C1.52051 8.217 1.28922 8.16903 1.07401 8.07739C0.858788 7.98575 0.663923 7.85227 0.500728 7.68468C0.337533 7.5171 0.209262 7.31876 0.123364 7.10119C0.0374665 6.88362 -0.00434542 6.65115 0.000356838 6.41728C0.0050591 6.18341 0.0561818 5.95281 0.150756 5.73886C0.24533 5.52492 0.38147 5.3319 0.551269 5.17101C0.721068 5.01012 0.921142 4.88457 1.13987 4.80166C1.3586 4.71875 1.59162 4.68012 1.8254 4.68802C2.79414 4.70629 3.56872 5.52627 3.54784 6.50806C3.53191 6.97105 3.33525 7.40937 3.00002 7.7291C2.66478 8.04882 2.21764 8.22451 1.75442 8.2185Z" fill="#C4C4C4"/>
<path d="M11.1519 8.21909C10.803 8.21868 10.462 8.11494 10.172 7.92098C9.88201 7.72701 9.65595 7.4515 9.52234 7.12921C9.38873 6.80691 9.35357 6.45226 9.42128 6.11C9.489 5.76775 9.65655 5.45321 9.90282 5.20607C10.1491 4.95893 10.463 4.79026 10.8051 4.72133C11.1471 4.65241 11.5018 4.68632 11.8246 4.81879C12.1474 4.95126 12.4237 5.17635 12.6187 5.46566C12.8137 5.75498 12.9186 6.09557 12.9202 6.44446C12.9211 6.67723 12.8761 6.90788 12.7876 7.12319C12.6991 7.33849 12.569 7.5342 12.4047 7.69909C12.2404 7.86398 12.0451 7.99479 11.8301 8.08403C11.6151 8.17326 11.3846 8.21916 11.1519 8.21909Z" fill="#C4C4C4"/>
</svg>
