<svg width="20" height="15" viewBox="0 0 20 15" fill="none" xmlns="http://www.w3.org/2000/svg">
<path d="M20 2.11796C20.0037 1.93111 19.9851 1.74448 19.9444 1.56207C19.7087 0.60537 18.9238 0 17.9065 0C15.2727 0 12.6392 0 10.0061 0C7.37858 0 4.75105 0 2.12352 0C0.858858 0 0 0.861082 0 2.12741C0 5.60102 0 9.07369 0 12.5454C0 13.8112 0.859414 14.6756 2.12241 14.6756C7.37673 14.6756 12.6307 14.6756 17.8843 14.6756C19.1334 14.6756 19.9967 13.809 19.9967 12.5577C19.9996 9.07777 20.0007 5.59786 20 2.11796ZM12.1307 4.29763C12.1915 4.20395 12.2754 4.12755 12.3744 4.07583C12.4733 4.02412 12.5839 3.99884 12.6955 4.00245C14.0197 4.00245 15.3438 3.99744 16.668 4.00245C16.7565 4.00051 16.8446 4.01637 16.9269 4.0491C17.0092 4.08182 17.0841 4.13074 17.1471 4.19295C17.2101 4.25517 17.26 4.32941 17.2939 4.41127C17.3277 4.49313 17.3447 4.58095 17.3439 4.66952C17.3439 5.04086 17.061 5.32492 16.663 5.32992C15.9959 5.33771 15.3316 5.32992 14.6662 5.32992C14.0008 5.32992 13.3354 5.32992 12.67 5.32992C12.5503 5.32826 12.4333 5.29427 12.3314 5.23155C12.2294 5.16884 12.1463 5.07972 12.0909 4.97365C12.0355 4.86757 12.0098 4.74849 12.0165 4.62899C12.0232 4.5095 12.0621 4.39404 12.1291 4.29485L12.1307 4.29763ZM10.6615 10.0006C10.6315 11.1468 9.79877 11.9879 8.65195 12.0018C7.32855 12.0192 6.00515 12.0192 4.68175 12.0018C3.51437 11.9851 2.6683 11.104 2.6683 9.93718C2.6683 9.41853 2.61993 8.89655 2.69665 8.38068C2.7521 7.98391 2.92767 7.61363 3.19976 7.31958C3.47185 7.02553 3.82742 6.82181 4.21869 6.73578C4.35933 6.70354 4.37434 6.67686 4.30819 6.54289C3.80455 5.52615 3.89127 4.545 4.60337 3.66891C5.31547 2.79282 6.26216 2.47095 7.35394 2.76947C8.45683 3.07132 9.11057 3.83623 9.30402 4.96192C9.40742 5.56673 9.27344 6.14542 8.95047 6.6852C9.06165 6.71633 9.15949 6.74079 9.25788 6.77192C9.64859 6.88858 9.99319 7.12419 10.2437 7.44592C10.4942 7.76766 10.6381 8.15951 10.6554 8.5669C10.6732 9.04386 10.6732 9.52304 10.6615 10.0006ZM16.9431 10.612C16.8269 10.6573 16.7025 10.6775 16.5779 10.6715H14.6667C13.9997 10.6715 13.3376 10.6754 12.6727 10.6715C12.3392 10.6687 12.0952 10.4797 12.0057 10.1796C11.9688 10.0489 11.9732 9.91014 12.0182 9.7821C12.0631 9.65405 12.1465 9.54301 12.2569 9.46412C12.3693 9.38058 12.5061 9.33642 12.6461 9.33848C13.9891 9.33848 15.3321 9.33515 16.6746 9.34237C16.8323 9.33806 16.9862 9.39087 17.108 9.49109C17.2297 9.59131 17.3112 9.73217 17.3373 9.88771C17.3626 10.0355 17.3375 10.1875 17.2659 10.3192C17.1943 10.4509 17.0804 10.5547 16.9426 10.6137L16.9431 10.612ZM17.3039 7.56851C17.2022 7.83979 16.9648 7.99711 16.6368 7.99878C15.9792 8.00211 15.3216 7.99878 14.664 7.99878C14.0063 7.99878 13.3348 8.00211 12.67 7.99878C12.3298 7.99878 12.0785 7.79643 12.0001 7.48735C11.9677 7.34469 11.9828 7.19535 12.043 7.06202C12.1032 6.92868 12.2052 6.81863 12.3336 6.74857C12.4443 6.6901 12.5682 6.66137 12.6933 6.66518C14.0019 6.66518 15.3105 6.66074 16.6185 6.66518C17.1466 6.67074 17.4746 7.11546 17.3034 7.57018L17.3039 7.56851Z" fill="#C4C4C4"/>
</svg>
