<svg width="12" height="14" viewBox="0 0 12 14" fill="none" xmlns="http://www.w3.org/2000/svg">
<path fill-rule="evenodd" clip-rule="evenodd" d="M6.16764 4.6665C5.52431 4.6665 5.00098 5.18984 5.00098 5.83384C5.00098 6.47717 5.52431 6.99984 6.16764 6.99984C6.81098 6.99984 7.33431 6.47717 7.33431 5.83384C7.33431 5.18984 6.81098 4.6665 6.16764 4.6665ZM6.16764 7.99984C4.97298 7.99984 4.00098 7.0285 4.00098 5.83384C4.00098 4.6385 4.97298 3.6665 6.16764 3.6665C7.36231 3.6665 8.33431 4.6385 8.33431 5.83384C8.33431 7.0285 7.36231 7.99984 6.16764 7.99984Z" fill="#189D60"/>
<mask id="mask0_2389_500" style="mask-type:alpha" maskUnits="userSpaceOnUse" x="0" y="0" width="12" height="14">
<path fill-rule="evenodd" clip-rule="evenodd" d="M0.666992 0.333252H11.6667V13.3333H0.666992V0.333252Z" fill="white"/>
</mask>
<g mask="url(#mask0_2389_500)">
<path fill-rule="evenodd" clip-rule="evenodd" d="M6.16699 1.33325C3.68566 1.33325 1.66699 3.37125 1.66699 5.87525C1.66699 9.06125 5.41633 12.1653 6.16699 12.3306C6.91766 12.1646 10.667 9.06059 10.667 5.87525C10.667 3.37125 8.64833 1.33325 6.16699 1.33325ZM6.16699 13.3333C4.97099 13.3333 0.666992 9.63192 0.666992 5.87525C0.666992 2.81925 3.13433 0.333252 6.16699 0.333252C9.19966 0.333252 11.667 2.81925 11.667 5.87525C11.667 9.63192 7.36299 13.3333 6.16699 13.3333Z" fill="#189D60"/>
</g>
</svg>
