<svg width="12" height="14" viewBox="0 0 12 14" fill="none" xmlns="http://www.w3.org/2000/svg">
<path fill-rule="evenodd" clip-rule="evenodd" d="M0.33252 5.87867C0.33252 2.81209 2.89511 0.333496 5.99482 0.333496C9.10326 0.333496 11.6659 2.81209 11.6659 5.87867C11.6659 7.42396 11.1039 8.85858 10.1789 10.0745C9.15839 11.4158 7.90062 12.5845 6.48488 13.5018C6.16086 13.7138 5.86844 13.7298 5.51282 13.5018C4.08901 12.5845 2.83124 11.4158 1.81952 10.0745C0.893842 8.85858 0.33252 7.42396 0.33252 5.87867ZM4.12874 6.05135C4.12874 7.07865 4.96703 7.88662 5.99489 7.88662C7.02342 7.88662 7.86977 7.07865 7.86977 6.05135C7.86977 5.03204 7.02342 4.18473 5.99489 4.18473C4.96703 4.18473 4.12874 5.03204 4.12874 6.05135Z" fill="#F24748"/>
</svg>
