<svg width="20" height="20" viewBox="0 0 20 20" fill="none" xmlns="http://www.w3.org/2000/svg">
<path fill-rule="evenodd" clip-rule="evenodd" d="M9.7873 6.5C8.67755 6.5 7.7748 7.285 7.7748 8.251C7.7748 9.216 8.67755 10 9.7873 10C10.8971 10 11.7998 9.216 11.7998 8.251C11.7998 7.285 10.8971 6.5 9.7873 6.5ZM9.7873 11.5C7.7265 11.5 6.0498 10.043 6.0498 8.251C6.0498 6.458 7.7265 5 9.7873 5C11.8481 5 13.5248 6.458 13.5248 8.251C13.5248 10.043 11.8481 11.5 9.7873 11.5Z" fill="#C4C4C4"/>
<mask id="mask0_2207_139" style="mask-type:alpha" maskUnits="userSpaceOnUse" x="0" y="0" width="20" height="20">
<path fill-rule="evenodd" clip-rule="evenodd" d="M0.298828 0H19.2733V19.5H0.298828V0Z" fill="white"/>
</mask>
<g mask="url(#mask0_2207_139)">
<path fill-rule="evenodd" clip-rule="evenodd" d="M9.78535 1.5C5.50505 1.5 2.02285 4.557 2.02285 8.313C2.02285 13.092 8.49045 17.748 9.78535 17.996C11.0803 17.747 17.5479 13.091 17.5479 8.313C17.5479 4.557 14.0657 1.5 9.78535 1.5ZM9.78535 19.5C7.72225 19.5 0.297852 13.948 0.297852 8.313C0.297852 3.729 4.554 0 9.78535 0C15.0167 0 19.2729 3.729 19.2729 8.313C19.2729 13.948 11.8485 19.5 9.78535 19.5Z" fill="#C4C4C4"/>
</g>
</svg>
