<svg width="32" height="32" viewBox="0 0 32 32" fill="none" xmlns="http://www.w3.org/2000/svg">
<rect width="32" height="32" rx="16" fill="#F5B662"/>
<path d="M16.1652 22.3462C16.0578 22.4188 15.9661 22.4167 15.8572 22.3462L22.4001 16.5794C21.9867 17.2958 21.4756 17.9417 20.9095 18.5498C19.8669 19.6686 18.6843 20.6265 17.4314 21.5067C17.18 21.6831 16.9221 21.8507 16.6643 22.0183C16.4973 22.1268 16.3304 22.2353 16.1652 22.3462ZM20.5436 18.2091C19.5321 19.2944 18.379 20.2299 17.144 21.0976C16.8967 21.271 16.6551 21.4279 16.4054 21.5901C16.2762 21.6741 16.1448 21.7594 16.0093 21.8492C15.1817 21.3131 14.3772 20.7621 13.6138 20.1607L13.6133 20.1604C12.9159 19.6122 12.2567 19.0192 11.6403 18.3853C10.871 17.5928 10.218 16.7484 9.76939 15.7819L9.76918 15.7814C9.54054 15.2901 9.37381 14.818 9.33105 14.3351L9.33104 14.3349C9.26928 13.6395 9.28718 13.0172 9.5283 12.4374C9.87575 11.6032 10.4363 10.9735 11.2428 10.5405L11.2428 10.5405L11.2461 10.5387C11.6772 10.3031 12.1549 10.1587 12.6479 10.1154C13.4309 10.0504 14.1605 10.1873 14.8344 10.5612C15.0992 10.7132 15.3473 10.8908 15.5752 11.0914L15.5752 11.0914L15.58 11.0955C15.6497 11.1554 15.8036 11.2723 16.0251 11.2668C16.241 11.2614 16.3872 11.142 16.4482 11.0883L16.1177 10.7132L16.447 11.0893C16.9911 10.6128 17.5945 10.2915 18.2913 10.1673C19.2133 10.0046 20.0704 10.1366 20.8667 10.5912L20.8671 10.5915C21.8058 11.1263 22.3888 11.9031 22.6456 12.9337L22.6457 12.9344C22.6568 12.9784 22.6635 13.0305 22.6715 13.1157C22.6723 13.1242 22.6731 13.1333 22.674 13.1428C22.6793 13.2005 22.6861 13.2755 22.6982 13.3539C22.6909 13.3894 22.6871 13.4257 22.6871 13.4623C22.6871 13.5026 22.6917 13.5426 22.7006 13.5815V13.7746C22.6891 13.8253 22.6833 13.8773 22.6833 13.9296C22.6833 13.982 22.6891 14.034 22.7006 14.0846V14.139C22.6876 14.2284 22.6786 14.3179 22.671 14.3939C22.6691 14.4134 22.6672 14.4319 22.6654 14.4494C22.6547 14.5533 22.6441 14.6346 22.6269 14.709C22.4884 15.2757 22.267 15.8202 21.9693 16.3257L21.9693 16.3257L21.9671 16.3295C21.5777 17.0042 21.0922 17.6197 20.5437 18.2089L20.5436 18.2091Z" stroke="white"/>
<path d="M23.1991 14.012C23.179 13.9893 23.168 13.96 23.168 13.9297C23.168 13.8994 23.179 13.8701 23.1991 13.8474V14.012Z" fill="#353333"/>
<path d="M23.2008 13.4903C23.1706 13.4717 23.1644 13.4539 23.2008 13.4351V13.4903Z" fill="#6B6868"/>
</svg>
