<svg width="25" height="24" viewBox="0 0 25 24" fill="none" xmlns="http://www.w3.org/2000/svg">
<path d="M18.4454 8C18.4454 6.4087 17.821 4.88258 16.7097 3.75736C15.5983 2.63214 14.0909 2 12.5192 2C10.9475 2 9.44012 2.63214 8.32874 3.75736C7.21736 4.88258 6.59299 6.4087 6.59299 8C6.59299 15 3.62988 17 3.62988 17H21.4085C21.4085 17 18.4454 15 18.4454 8Z" stroke="#C4C4C4" stroke-width="2" stroke-linecap="round" stroke-linejoin="round"/>
<path d="M14.228 21C14.0543 21.3031 13.8051 21.5547 13.5052 21.7295C13.2053 21.9044 12.8653 21.9965 12.5193 21.9965C12.1732 21.9965 11.8332 21.9044 11.5333 21.7295C11.2334 21.5547 10.9842 21.3031 10.8105 21" stroke="#C4C4C4" stroke-width="2" stroke-linecap="round" stroke-linejoin="round"/>
</svg>
