<svg width="120" height="120" viewBox="0 0 120 120" fill="none" xmlns="http://www.w3.org/2000/svg">
<circle cx="60" cy="60" r="60" fill="#189D60"/>
<mask id="mask0_300_417" style="mask-type:alpha" maskUnits="userSpaceOnUse" x="0" y="0" width="120" height="120">
<circle cx="60" cy="60" r="60" fill="#38A13C"/>
</mask>
<g mask="url(#mask0_300_417)">
<path d="M74.1055 27.6562L123.5 79L140.5 95L59.5 128L35 85.5L47.4219 25.1406L74.1055 27.6562Z" fill="#138417"/>
</g>
<path fill-rule="evenodd" clip-rule="evenodd" d="M60 20.6487C59.9701 20.6485 59.9401 20.6484 59.9102 20.6484C49.8374 20.6484 41.6719 28.814 41.6719 38.8867V62.6953H60V55.5078H48.8594V38.8867C48.8594 32.7835 53.807 27.8359 59.9102 27.8359C59.9401 27.8359 59.9701 27.8361 60 27.8363V20.6487Z" fill="white"/>
<path fill-rule="evenodd" clip-rule="evenodd" d="M60 20.6487C60.0299 20.6485 60.0599 20.6484 60.0898 20.6484C70.1626 20.6484 78.3281 28.814 78.3281 38.8867V62.6953H60V55.5078H71.1406V38.8867C71.1406 32.7835 66.193 27.8359 60.0898 27.8359C60.0599 27.8359 60.0299 27.8361 60 27.8363V20.6487Z" fill="#F2F2F2"/>
<path d="M34.4844 51.5547H85.3359V81.9219C85.3359 88.6701 79.8654 94.1406 73.1172 94.1406H46.7031C39.9549 94.1406 34.4844 88.6701 34.4844 81.9219V51.5547Z" fill="#FFC136"/>
<path d="M34.4844 51.5547H59.9102V94.1406H46.7031C39.9549 94.1406 34.4844 88.6701 34.4844 81.9219V51.5547Z" fill="#FFC136"/>
<path fill-rule="evenodd" clip-rule="evenodd" d="M63.3879 73.6562C65.4433 72.4794 66.8281 70.2647 66.8281 67.7266C66.8281 63.9555 63.7711 60.8984 60 60.8984C56.2289 60.8984 53.1719 63.9555 53.1719 67.7266C53.1719 70.2647 54.5567 72.4794 56.6121 73.6562H56.4062V84.7969H63.5938V73.6562H63.3879Z" fill="#4B4B4B"/>
<path opacity="0.2" d="M85.4258 51.5547H60V94.1406H73.207C79.9553 94.1406 85.4258 88.6701 85.4258 81.9219V51.5547Z" fill="black"/>
</svg>
