<svg width="16" height="16" viewBox="0 0 16 16" fill="none" xmlns="http://www.w3.org/2000/svg">
<path fill-rule="evenodd" clip-rule="evenodd" d="M8 16C3.584 16 0 12.424 0 8C0 3.584 3.584 0 8 0C12.424 0 16 3.584 16 8C16 12.424 12.424 16 8 16ZM10.5519 10.968C10.6479 11.024 10.7519 11.056 10.8639 11.056C11.0639 11.056 11.2639 10.952 11.3759 10.76C11.5439 10.48 11.4559 10.112 11.1679 9.936L8.31992 8.24V4.544C8.31992 4.208 8.04792 3.944 7.71992 3.944C7.39192 3.944 7.11992 4.208 7.11992 4.544V8.584C7.11992 8.792 7.23192 8.984 7.41592 9.096L10.5519 10.968Z" fill="#EBAE54"/>
</svg>
