<svg width="25" height="24" viewBox="0 0 25 24" fill="none" xmlns="http://www.w3.org/2000/svg">
<path d="M16.6943 14.5C16.2801 14.5 15.9443 14.8358 15.9443 15.25C15.9443 15.6642 16.2801 16 16.6943 16H19.1943C19.6085 16 19.9443 15.6642 19.9443 15.25C19.9443 14.8358 19.6085 14.5 19.1943 14.5H16.6943ZM5.69434 5C4.17555 5 2.94434 6.23122 2.94434 7.75V16.25C2.94434 17.7688 4.17555 19 5.69434 19H20.1943C21.7131 19 22.9443 17.7688 22.9443 16.25V7.75C22.9443 6.23122 21.7131 5 20.1943 5H5.69434ZM4.44434 16.25V11H21.4443V16.25C21.4443 16.9404 20.8847 17.5 20.1943 17.5H5.69434C5.00398 17.5 4.44434 16.9404 4.44434 16.25ZM4.44434 9.5V7.75C4.44434 7.05964 5.00398 6.5 5.69434 6.5H20.1943C20.8847 6.5 21.4443 7.05964 21.4443 7.75V9.5H4.44434Z" fill="#C4C4C4"/>
</svg>
