<svg width="24" height="24" viewBox="0 0 24 24" fill="none" xmlns="http://www.w3.org/2000/svg">
<path d="M16 14C16.1978 14 16.3911 13.9414 16.5556 13.8315C16.72 13.7216 16.8482 13.5654 16.9239 13.3827C16.9996 13.2 17.0194 12.9989 16.9808 12.8049C16.9422 12.6109 16.847 12.4327 16.7071 12.2929C16.5673 12.153 16.3891 12.0578 16.1951 12.0192C16.0011 11.9806 15.8 12.0004 15.6173 12.0761C15.4346 12.1518 15.2784 12.28 15.1685 12.4444C15.0586 12.6089 15 12.8022 15 13C15 13.2652 15.1054 13.5196 15.2929 13.7071C15.4804 13.8946 15.7348 14 16 14ZM16 18C16.1978 18 16.3911 17.9414 16.5556 17.8315C16.72 17.7216 16.8482 17.5654 16.9239 17.3827C16.9996 17.2 17.0194 16.9989 16.9808 16.8049C16.9422 16.6109 16.847 16.4327 16.7071 16.2929C16.5673 16.153 16.3891 16.0578 16.1951 16.0192C16.0011 15.9806 15.8 16.0004 15.6173 16.0761C15.4346 16.1518 15.2784 16.28 15.1685 16.4444C15.0586 16.6089 15 16.8022 15 17C15 17.2652 15.1054 17.5196 15.2929 17.7071C15.4804 17.8946 15.7348 18 16 18ZM8 14C8.19778 14 8.39112 13.9414 8.55557 13.8315C8.72002 13.7216 8.84819 13.5654 8.92388 13.3827C8.99957 13.2 9.01937 12.9989 8.98079 12.8049C8.9422 12.6109 8.84696 12.4327 8.70711 12.2929C8.56725 12.153 8.38907 12.0578 8.19509 12.0192C8.00111 11.9806 7.80004 12.0004 7.61732 12.0761C7.43459 12.1518 7.27841 12.28 7.16853 12.4444C7.05865 12.6089 7 12.8022 7 13C7 13.2652 7.10536 13.5196 7.29289 13.7071C7.48043 13.8946 7.73478 14 8 14ZM19 4H18V3C18 2.73478 17.8946 2.48043 17.7071 2.29289C17.5196 2.10536 17.2652 2 17 2C16.7348 2 16.4804 2.10536 16.2929 2.29289C16.1054 2.48043 16 2.73478 16 3V4H8V3C8 2.73478 7.89464 2.48043 7.70711 2.29289C7.51957 2.10536 7.26522 2 7 2C6.73478 2 6.48043 2.10536 6.29289 2.29289C6.10536 2.48043 6 2.73478 6 3V4H5C4.20435 4 3.44129 4.31607 2.87868 4.87868C2.31607 5.44129 2 6.20435 2 7V19C2 19.7956 2.31607 20.5587 2.87868 21.1213C3.44129 21.6839 4.20435 22 5 22H19C19.7956 22 20.5587 21.6839 21.1213 21.1213C21.6839 20.5587 22 19.7956 22 19V7C22 6.20435 21.6839 5.44129 21.1213 4.87868C20.5587 4.31607 19.7956 4 19 4ZM20 19C20 19.2652 19.8946 19.5196 19.7071 19.7071C19.5196 19.8946 19.2652 20 19 20H5C4.73478 20 4.48043 19.8946 4.29289 19.7071C4.10536 19.5196 4 19.2652 4 19V10H20V19ZM20 8H4V7C4 6.73478 4.10536 6.48043 4.29289 6.29289C4.48043 6.10536 4.73478 6 5 6H19C19.2652 6 19.5196 6.10536 19.7071 6.29289C19.8946 6.48043 20 6.73478 20 7V8ZM8 18C8.19778 18 8.39112 17.9414 8.55557 17.8315C8.72002 17.7216 8.84819 17.5654 8.92388 17.3827C8.99957 17.2 9.01937 16.9989 8.98079 16.8049C8.9422 16.6109 8.84696 16.4327 8.70711 16.2929C8.56725 16.153 8.38907 16.0578 8.19509 16.0192C8.00111 15.9806 7.80004 16.0004 7.61732 16.0761C7.43459 16.1518 7.27841 16.28 7.16853 16.4444C7.05865 16.6089 7 16.8022 7 17C7 17.2652 7.10536 17.5196 7.29289 17.7071C7.48043 17.8946 7.73478 18 8 18Z" fill="#979797"/>
</svg>
