<svg width="31" height="48" viewBox="0 0 31 48" fill="none" xmlns="http://www.w3.org/2000/svg">
<path fill-rule="evenodd" clip-rule="evenodd" d="M0 39.9993L31 39.9945V36.8517V17.9993H0V39.9993Z" fill="#C5EAFE"/>
<path fill-rule="evenodd" clip-rule="evenodd" d="M0.0273715 17.5791H30.3981C30.3981 15.7126 30.3139 14.5891 29.4199 13.1662C28.7564 12.1095 27.8111 11.0615 26.704 10.4871C26.0579 10.152 24.9392 9.61153 24.0036 9.59022V7.99207H6.41999V9.59022C4.82668 9.62606 2.77039 10.9152 1.75338 12.1172C1.2594 12.7003 0.690848 13.5982 0.410929 14.3711C0.0147799 15.4647 0.0264029 16.0904 0.0264029 17.5791H0.0273715Z" fill="#36ACEE"/>
<path fill-rule="evenodd" clip-rule="evenodd" d="M6.42108 7.99302H24.0047C24.8192 7.99108 25.504 7.63077 25.8653 7.15617C26.3767 6.48494 26.4048 6.12463 26.4019 4.99527C26.4 4.10127 26.4251 3.18208 26.4067 2.29293C26.3903 1.51225 25.9641 0.820688 25.5069 0.495245C24.8018 -0.00841578 24.4928 -0.00163571 23.3044 0.000301446H7.11942C5.93098 -0.00163571 5.62297 -0.00841578 4.91687 0.495245C3.68678 1.37278 4.02578 3.28088 4.02191 4.99527C4.019 6.12366 4.04709 6.48494 4.5585 7.15617C4.91978 7.63077 5.60456 7.99108 6.41914 7.99302H6.42108Z" fill="#F24748"/>
<path fill-rule="evenodd" clip-rule="evenodd" d="M28.0009 47.9702C29.6578 47.9702 31 46.6271 31 44.9702V39.9993L0.0281871 39.9993C0.0281871 40.8047 -0.0648933 45.6651 0.0872382 46.2194C0.676748 48.3681 3.06481 47.9702 4.77629 47.9702C11.0973 47.9702 20.8085 47.9702 28.0009 47.9702Z" fill="#36ACEE"/>
<path fill-rule="evenodd" clip-rule="evenodd" d="M12.8162 26.3747C8.52832 26.3747 8.81502 25.9059 8.81502 28.7719C8.81502 31.6321 8.54285 31.1692 12.8162 31.1692C12.8162 35.4251 12.3465 35.1587 15.2125 35.1587C18.0814 35.1587 17.6136 35.4309 17.6136 31.173C21.8046 31.1265 21.607 31.7222 21.607 28.7719C21.607 27.752 21.8841 26.4948 20.808 26.3795C19.9343 26.2866 18.5512 26.3815 17.6146 26.3718C17.6146 22.0965 18.0805 22.3783 15.2135 22.3783C12.3503 22.3783 12.8172 22.0994 12.8172 26.3747H12.8162Z" fill="#F24748"/>
</svg>
