<svg width="21" height="24" viewBox="0 0 21 24" fill="none" xmlns="http://www.w3.org/2000/svg">
<path d="M3.9375 6.31579C3.9375 2.82768 6.87563 0 10.5 0C14.1244 0 17.0625 2.82768 17.0625 6.31579C17.0625 9.8039 14.1244 12.6316 10.5 12.6316C6.87563 12.6316 3.9375 9.8039 3.9375 6.31579ZM10.5 10.1053C12.6746 10.1053 14.4375 8.40866 14.4375 6.31579C14.4375 4.22292 12.6746 2.52632 10.5 2.52632C8.32538 2.52632 6.5625 4.22292 6.5625 6.31579C6.5625 8.40866 8.32538 10.1053 10.5 10.1053Z" fill="#979797"/>
<path d="M3.07538 16.8545C1.10625 18.7496 0 21.3199 0 24H2.625C2.625 21.9899 3.45469 20.0622 4.93153 18.6409C6.40838 17.2195 8.41142 16.4211 10.5 16.4211C12.5886 16.4211 14.5916 17.2195 16.0685 18.6409C17.5453 20.0622 18.375 21.9899 18.375 24H21C21 21.3199 19.8938 18.7496 17.9246 16.8545C15.9555 14.9594 13.2848 13.8947 10.5 13.8947C7.71523 13.8947 5.04451 14.9594 3.07538 16.8545Z" fill="#979797"/>
</svg>
