<svg width="77" height="82" viewBox="0 0 77 82" fill="none" xmlns="http://www.w3.org/2000/svg">
<path fill-rule="evenodd" clip-rule="evenodd" d="M0.000986427 26.9058C0.00163513 26.9071 0.00197252 26.9086 0.00197399 26.9101C0.00306452 27.9915 0.791594 28.4175 1.48359 29.1095C5.20439 32.8303 9.63345 37.4271 13.3404 40.9565C13.8534 41.4438 13.9303 41.3452 13.9501 42.2685L13.9481 69.242C13.9481 69.4122 13.9553 69.5854 14.0118 69.7459C14.4539 71 16.3392 70.473 16.3392 69.5076V45.2641C16.3392 43.6173 17.6742 42.2823 19.321 42.2823H34.8065C36.4533 42.2823 37.7883 43.6173 37.7883 45.2641V76.617C37.7883 78.2638 36.4533 79.5988 34.8065 79.5988H19.321C17.6742 79.5988 16.3392 78.2638 16.3392 76.617V74.6331C16.3392 73.2955 13.9362 73.4613 13.9362 74.6331V81.039C13.9362 81.4237 14.5123 81.9998 14.897 81.9998H60.7008C61.0855 81.9998 61.6616 81.4237 61.6616 81.039V54.293C61.6616 53.0166 59.2586 53.0166 59.2586 54.293V76.615C59.2586 78.2618 57.9236 79.5968 56.2768 79.5968H42.2822C40.6354 79.5968 39.3004 78.2618 39.3004 76.615V45.2621C39.3004 43.6153 40.6354 42.2803 42.2822 42.2803H56.2768C57.9236 42.2803 59.2586 43.6153 59.2586 45.2621V49.1675C59.2586 50.2704 61.4011 50.6215 61.6517 49.1577C61.7859 48.3725 61.4939 43.4798 61.6557 41.9548C61.7346 41.209 63.0544 40.1654 63.8633 39.3565L71.0701 32.1497C71.6541 31.5657 73.8253 29.2285 75.0959 27.8567C75.6194 27.2915 75.5899 26.412 75.0317 25.881C74.3527 25.2349 73.2795 25.2691 72.6466 25.9603C69.3386 29.5724 59.9167 39.7176 58.4461 39.7176H21.6225C21.0563 39.7176 13.4667 31.8025 12.934 31.2698C12.2514 30.5872 4.98146 22.9009 4.1647 22.9009C3.2366 22.9009 0.00779626 26.3845 1.40919e-05 26.902C-7.72246e-06 26.9035 0.00033772 26.9045 0.000986427 26.9058Z" fill="white"/>
<path fill-rule="evenodd" clip-rule="evenodd" d="M28.5106 3.36573C28.5106 6.3112 31.1858 4.14895 32.405 3.57683C35.6425 2.06167 39.9413 2.05576 43.1926 3.57683L46.1637 5.40961C47.961 6.99578 48.6534 7.80071 49.8115 10.0912C52.2243 14.8675 51.1688 21.1688 47.448 24.8659C43.9304 28.3618 41.5156 28.9892 36.6782 28.9892C30.6294 28.9892 24.5057 22.822 24.5057 16.0157C24.5057 14.104 24.7365 12.6973 25.283 11.1881C25.5237 10.5252 25.8157 10.032 26.1057 9.44804C26.7192 8.21303 26.9067 8.49121 26.9067 7.36668C26.9067 7.04313 26.4707 6.4059 25.7861 6.4059C24.4584 6.4059 23.3812 9.08701 23.0004 10.1859C20.8244 16.4536 22.2231 22.4748 26.4667 26.7046C27.2065 27.4424 27.6307 27.9061 28.483 28.5315C34.7823 33.1539 43.3741 32.4515 49.048 26.7855C54.6864 21.155 55.1737 12.0897 50.1548 5.90085C49.8115 5.47668 49.5195 5.23994 49.1723 4.80197C48.8409 4.38372 48.5725 4.26732 48.1681 3.88459C47.8031 3.53737 47.5131 3.31246 47.1126 3.01851C46.4438 2.52727 45.5284 1.92752 44.7432 1.54479C42.583 0.489309 40.3872 0.0533084 38.3413 0.00201416H37.4693C32.4445 0.138141 28.5106 2.48978 28.5106 3.36573Z" fill="white"/>
<path fill-rule="evenodd" clip-rule="evenodd" d="M36.5174 8.00974C31.4826 8.42799 30.6343 15.3034 35.4067 16.8087C36.5134 17.1579 37.6518 16.8501 38.9045 16.9941C41.6567 17.3078 41.3706 20.9832 38.7585 20.9832C36.7186 20.9832 35.1561 21.3541 34.799 19.6575C34.6076 18.748 34.5958 18.1009 33.4733 18.1009C31.096 18.1009 32.0804 23.177 36.5154 23.546C36.5154 24.2029 36.4029 25.1223 36.5766 25.726C36.9553 27.0419 39.1215 27.3832 39.0801 24.8303C39.0328 21.8513 40.2105 24.6804 42.5405 21.5633C44.393 19.0853 42.9587 15.5677 40.2283 14.7056C39.3405 14.4255 37.8471 14.6997 36.7087 14.5419C33.7435 14.1315 34.5228 10.5725 36.5134 10.5725C38.8611 10.5725 40.3763 10.17 40.7985 11.8943C41.0727 13.0149 41.047 13.4568 42.2801 13.4568C42.6017 13.4568 42.9331 13.151 43.0771 12.9695C44.0537 11.7424 42.5405 8.08866 39.0781 8.01171C39.0781 6.76487 39.38 4.8078 37.7978 4.8078C36.2846 4.8078 36.5174 6.50248 36.5174 8.01171V8.00974Z" fill="white"/>
<path fill-rule="evenodd" clip-rule="evenodd" d="M14.896 28.1901C14.896 29.5494 15.0893 29.2653 16.5374 30.7134C17.1628 31.3388 17.6738 31.8478 18.2992 32.4751C19.7906 33.9666 21.0375 35.7185 22.4224 35.7185C22.8427 35.7185 23.3832 35.0102 23.3832 34.7577C23.3832 33.6095 21.2407 31.8951 20.0609 30.7134C19.4474 30.0998 16.8629 27.2293 16.1764 27.2293C15.5904 27.2293 14.896 27.6712 14.896 28.1901Z" fill="white"/>
<path fill-rule="evenodd" clip-rule="evenodd" d="M52.2114 34.596C52.2114 35.1365 52.6356 35.7165 53.4918 35.7165C54.4033 35.7165 56.3485 33.4201 57.2955 32.4732C57.9209 31.8478 58.4299 31.3368 59.0572 30.7114C60.5053 29.2633 60.6987 29.5474 60.6987 28.1881C60.6987 27.7364 60.0299 27.2274 59.5781 27.2274C58.7002 27.2274 57.9702 28.273 57.4553 28.7899L53.772 32.4732C53.2728 32.9723 52.2095 33.7496 52.2095 34.596H52.2114Z" fill="white"/>
<path fill-rule="evenodd" clip-rule="evenodd" d="M29.1501 35.7166C30.2214 35.7166 30.4305 35.1129 30.4305 34.2744C30.4305 33.8463 26.3743 29.7901 25.9462 29.7901C24.7072 29.7901 24.2752 30.4767 24.4725 31.2678C24.6658 32.047 26.6919 33.8187 27.3469 34.4756C27.8165 34.9452 28.3235 35.7166 29.1481 35.7166H29.1501Z" fill="white"/>
<path fill-rule="evenodd" clip-rule="evenodd" d="M45.1655 34.2744C45.1655 35.1109 45.3766 35.7166 46.4459 35.7166C47.3337 35.7166 48.7818 33.941 49.6893 33.0335C50.1904 32.5324 50.8572 32.0609 51.088 31.3782C51.3603 30.5713 50.9756 29.7901 49.6498 29.7901C49.2217 29.7901 45.1655 33.8463 45.1655 34.2744Z" fill="white"/>
<path fill-rule="evenodd" clip-rule="evenodd" d="M15.5364 7.04904C15.5364 8.25249 15.3273 9.77158 16.8168 9.77158C18.3063 9.77158 18.0972 8.25249 18.0972 7.04904C18.0972 5.26558 15.5344 5.24586 15.5344 7.04904H15.5364Z" fill="white"/>
<path fill-rule="evenodd" clip-rule="evenodd" d="M60.3804 13.1352C60.3804 16.9369 62.9431 15.3231 62.9431 14.4156C62.9431 13.4706 63.2548 11.3735 61.8225 11.3735C60.84 11.3735 60.3804 12.135 60.3804 13.1352Z" fill="white"/>
<path fill-rule="evenodd" clip-rule="evenodd" d="M62.4624 16.3372C62.4624 18.0773 66.6271 18.0773 66.6271 16.3372C66.6271 14.7609 64.9778 15.0568 63.7448 15.0568C62.9852 15.0568 62.4644 15.7079 62.4644 16.3372H62.4624Z" fill="white"/>
<path fill-rule="evenodd" clip-rule="evenodd" d="M15.5366 1.28236C15.5366 2.60022 15.3018 4.00489 16.817 4.00489C18.3065 4.00489 18.0973 2.57852 18.0973 1.60196C18.0973 0.61553 17.6377 0.122317 17.1089 0H16.5644C16.018 0.120344 15.5366 0.587911 15.5366 1.28038V1.28236Z" fill="white"/>
<path fill-rule="evenodd" clip-rule="evenodd" d="M58.78 17.6196C59.3068 17.6196 59.8395 17.6077 60.2735 17.3513C61.3428 16.7199 60.9088 15.0568 59.581 15.0568C58.7228 15.0568 56.4659 14.8142 56.8092 16.5483C56.9907 17.4617 57.766 17.6196 58.78 17.6196Z" fill="white"/>
<path fill-rule="evenodd" clip-rule="evenodd" d="M60.3818 18.5804C60.3818 20.2257 60.2378 21.1431 61.9838 21.1431C63.1832 21.1431 63.635 17.1402 61.6641 17.1402C60.8375 17.1402 60.3838 17.807 60.3838 18.5824L60.3818 18.5804Z" fill="white"/>
<path fill-rule="evenodd" clip-rule="evenodd" d="M13.1355 6.0882C14.1298 6.0882 16.0178 6.34467 16.0178 4.96762C16.0178 3.34396 14.4612 3.68724 13.1355 3.68724C11.4802 3.68724 11.4802 6.09018 13.1355 6.09018V6.0882Z" fill="white"/>
<path fill-rule="evenodd" clip-rule="evenodd" d="M17.6187 4.80592C17.6187 6.38223 19.268 6.0863 20.501 6.0863C22.0951 6.0863 22.1503 3.68337 20.501 3.68337C19.5895 3.68337 17.6187 3.34009 17.6187 4.80395V4.80592Z" fill="white"/>
</svg>
