<svg width="20" height="20" viewBox="0 0 20 20" fill="none" xmlns="http://www.w3.org/2000/svg">
<path d="M10 20C4.47715 20 0 15.5228 0 10C0 4.47715 4.47715 0 10 0C15.5228 0 20 4.47715 20 10C19.9937 15.5202 15.5202 19.9937 10 20ZM10 2.85714C6.05511 2.85714 2.85714 6.05511 2.85714 10C2.85714 13.9449 6.05511 17.1429 10 17.1429C13.9449 17.1429 17.1429 13.9449 17.1429 10C17.1429 6.05511 13.9449 2.85714 10 2.85714ZM10 14.2857C7.63307 14.2857 5.71429 12.3669 5.71429 10C5.71429 7.63307 7.63307 5.71429 10 5.71429C12.3669 5.71429 14.2857 7.63307 14.2857 10C14.2857 11.1366 13.8342 12.2267 13.0305 13.0305C12.2267 13.8342 11.1366 14.2857 10 14.2857Z" fill="#189D60"/>
</svg>
