<svg width="78" height="87" viewBox="0 0 78 87" fill="none" xmlns="http://www.w3.org/2000/svg">
<g clip-path="url(#clip0_523_4052)">
<path fill-rule="evenodd" clip-rule="evenodd" d="M24.2527 77.6134C33.2653 77.7577 42.3969 77.6237 51.4223 77.6209C54.0437 77.6201 55.4175 77.2347 55.4098 80.2484C55.4036 82.6612 55.4375 78.3396 56.278 80.3833C57.2821 82.8248 60.5196 86.4241 63.734 86.6213C66.1981 87.0178 69.5472 84.1284 70.9669 81.9916C73.0662 78.8321 72.7047 75.7262 72.7047 71.5371L72.6629 1.56261C72.4965 0.520439 72.0583 0.445474 71.2832 0C57.1158 0 42.9483 0 28.781 0H25.971C25.336 0.0921926 24.8214 0.33382 24.4768 0.906685C23.9521 1.77877 24.2527 4.8102 24.2527 6.11723C24.2518 28.5882 24.5779 55.4566 24.2527 77.6134Z" fill="#E3F4FF"/>
<path fill-rule="evenodd" clip-rule="evenodd" d="M64.9808 86.9999C64.3513 86.7183 64.245 87.0899 63.7339 86.6212C60.5195 86.424 57.282 82.8247 56.2779 80.3832C54.7127 76.5774 56.3037 77.6193 51.4221 77.6208C42.3968 77.6236 33.2652 77.7576 24.2526 77.6133C22.996 77.3914 8.11073 77.5431 5.46857 77.5368C2.76608 77.5303 1.92425 77.5946 1.94268 80.4215C1.97154 84.85 2.70238 81.8249 6.00968 84.5827C6.35783 84.873 6.47367 84.9645 6.87503 85.2352C9.42733 86.9573 11.151 86.999 14.3761 86.9999H14.5334H14.693C31.4556 86.9999 48.2182 86.9999 64.9808 86.9999Z" fill="#9CC6DB"/>
<path fill-rule="evenodd" clip-rule="evenodd" d="M63.7334 86.6213C64.2446 87.0899 64.3508 86.7184 64.9804 87H66.5675C68.2233 86.9884 69.3097 86.8961 70.8556 86.2993C73.887 85.1291 76.16 82.5918 77.1913 79.4645C77.8276 77.5352 77.7527 75.8779 77.7527 73.4063V6.79689C77.7527 4.9787 78.2001 1.73821 77.3047 0.623852C77.0156 0.264067 76.4091 0.0839514 75.6558 0H71.2827C72.0578 0.445474 72.496 0.520389 72.6625 1.56261L72.7042 71.5371C72.7042 75.7262 73.0657 78.8321 70.9665 81.9916C69.5468 84.1284 66.1976 87.0178 63.7335 86.6213H63.7334Z" fill="#BDDFF4"/>
<path fill-rule="evenodd" clip-rule="evenodd" d="M32.4344 18C43.7605 18 55.0867 18 66.4127 18C69.5382 18 68.9574 15.8793 68.9574 12.371C68.9574 10.6384 68.234 10 66.4127 10H32.5278C29.6739 10 30.0125 11.7716 30.0125 13.9775C30.0125 16.2305 29.7566 18 32.4344 18Z" fill="#F24748"/>
<path fill-rule="evenodd" clip-rule="evenodd" d="M44.2224 34.7134C43.1698 34.9638 42.7021 36.0773 43.4707 36.8869C44.1658 37.6191 52.0346 37.2821 53.267 37.2821C55.3825 37.2821 65.7272 37.5424 66.9014 37.2042C67.7232 36.9675 68.122 35.8785 67.5172 35.127C66.9946 34.4778 65.6422 34.6559 64.6716 34.6573C62.2845 34.6608 45.0021 34.528 44.2224 34.7134V34.7134Z" fill="#9CC6DB"/>
<path fill-rule="evenodd" clip-rule="evenodd" d="M43.815 62.5688C43.0835 62.9515 42.7447 64.2664 43.7357 64.8196C44.5455 65.2716 66.8281 64.9814 67.0613 64.8872C68.0561 64.4859 67.9728 63.0667 67.2044 62.6201C66.4819 62.2002 58.4403 62.3988 57.2917 62.3988C55.4714 62.3988 44.5557 62.1811 43.815 62.5687V62.5688Z" fill="#9CC6DB"/>
<path fill-rule="evenodd" clip-rule="evenodd" d="M43.1995 50.4823C43.8706 51.0225 43.7403 51.1506 44.8811 51.1506H66.013C68.4606 51.1506 68.4316 48.5293 66.013 48.5293H44.8811C43.439 48.5293 43.0252 48.9907 43.1995 50.4823Z" fill="#9CC6DB"/>
<path fill-rule="evenodd" clip-rule="evenodd" d="M35.0134 57.3298C31.136 58.7874 33.1794 64.6107 37.1108 63.266C40.9614 61.949 38.9538 55.8486 35.0134 57.3298Z" fill="#F9B200"/>
<path fill-rule="evenodd" clip-rule="evenodd" d="M35.2749 43.3586C31.3384 44.39 32.7875 50.555 36.9096 49.4656C38.3565 49.0832 39.5564 47.4545 39.0821 45.5757C38.7113 44.1071 37.0932 42.8822 35.2749 43.3586Z" fill="#F9B200"/>
<path fill-rule="evenodd" clip-rule="evenodd" d="M35.4003 29.4879C31.2636 30.4819 32.8092 36.7608 36.9485 35.5844C40.5602 34.5579 39.4648 28.5113 35.4003 29.4879Z" fill="#F9B200"/>
<path fill-rule="evenodd" clip-rule="evenodd" d="M44.2541 45.4358C43.4593 45.6309 42.8196 46.2126 43.2454 47.2769C43.5429 48.0207 44.4291 48.0163 45.3781 48.0118C46.5933 48.0061 50.0739 48.1638 51.0146 47.9541C52.1316 47.7051 53.101 45.3597 49.7513 45.3761C48.6295 45.3816 45.0491 45.2407 44.2541 45.4358Z" fill="#9CC6DB"/>
<path fill-rule="evenodd" clip-rule="evenodd" d="M43.208 32.1783L43.1641 33.4703C43.9369 34.0319 43.8501 34.1315 45.0403 34.1452L50.0877 34.1451C51.2884 34.1325 51.1844 34.0436 51.9256 33.4765L51.9679 32.1691C50.5735 31.1867 50.1874 31.5136 47.5641 31.5136C45.0482 31.5136 44.5054 31.1866 43.208 32.1783Z" fill="#9CC6DB"/>
<path fill-rule="evenodd" clip-rule="evenodd" d="M44.8804 61.879H50.2473C52.5989 61.879 52.7159 59.2495 50.2473 59.2495H44.8804C42.3942 59.2495 42.554 61.879 44.8804 61.879Z" fill="#9CC6DB"/>
<path fill-rule="evenodd" clip-rule="evenodd" d="M43.8108 41.8329C42.3747 42.5764 43.4365 44.9607 45.0378 44.1156C46.4229 43.3847 45.3323 41.045 43.8108 41.8329Z" fill="#9CC6DB"/>
<path fill-rule="evenodd" clip-rule="evenodd" d="M44.0781 55.6268C42.2488 56.1867 43.2729 58.7336 44.979 58.0129C46.2088 57.4935 45.6593 55.1428 44.0781 55.6268Z" fill="#9CC6DB"/>
<path fill-rule="evenodd" clip-rule="evenodd" d="M43.1991 29.7555C43.7166 30.1587 44.0025 30.6771 44.9486 30.2742C45.4097 30.0778 45.875 29.4104 45.5822 28.6323C45.1821 27.5688 42.9104 27.1803 43.1991 29.7555Z" fill="#9CC6DB"/>
</g>
<defs>
<clipPath id="clip0_523_4052">
<rect width="77.4738" height="87" fill="white" transform="translate(0.390625)"/>
</clipPath>
</defs>
</svg>
