<svg width="18" height="18" viewBox="0 0 18 18" fill="none" xmlns="http://www.w3.org/2000/svg">
<path d="M17.7473 16.47L14.4102 13.16C15.7056 11.5449 16.3329 9.49493 16.1631 7.43156C15.9934 5.36819 15.0396 3.44826 13.4978 2.06656C11.9559 0.684859 9.94333 -0.0535986 7.87376 0.00303206C5.80419 0.0596628 3.83498 0.907077 2.37103 2.37103C0.907077 3.83498 0.0596628 5.80419 0.00303206 7.87376C-0.0535986 9.94333 0.684859 11.9559 2.06656 13.4978C3.44826 15.0396 5.36819 15.9934 7.43156 16.1631C9.49493 16.3329 11.5449 15.7056 13.16 14.4102L16.47 17.7203C16.5536 17.8046 16.6531 17.8715 16.7627 17.9172C16.8723 17.9628 16.9899 17.9863 17.1086 17.9863C17.2274 17.9863 17.3449 17.9628 17.4546 17.9172C17.5642 17.8715 17.6636 17.8046 17.7473 17.7203C17.9094 17.5526 18 17.3284 18 17.0951C18 16.8619 17.9094 16.6377 17.7473 16.47ZM8.11399 14.4102C6.8687 14.4102 5.65139 14.041 4.61597 13.3491C3.58056 12.6573 2.77355 11.674 2.297 10.5235C1.82045 9.37297 1.69577 8.107 1.93871 6.88565C2.18165 5.66429 2.78131 4.54241 3.66186 3.66186C4.54241 2.78131 5.66429 2.18165 6.88565 1.93871C8.107 1.69577 9.37297 1.82045 10.5235 2.297C11.674 2.77355 12.6573 3.58056 13.3491 4.61597C14.041 5.65139 14.4102 6.8687 14.4102 8.11399C14.4102 9.78386 13.7469 11.3853 12.5661 12.5661C11.3853 13.7469 9.78386 14.4102 8.11399 14.4102Z" fill="#8A8A8A"/>
</svg>
