<svg width="28" height="28" viewBox="0 0 28 28" fill="none" xmlns="http://www.w3.org/2000/svg">
<circle cx="14" cy="14" r="14" fill="#189D60"/>
<path d="M19.7251 10.2526C19.6457 10.1725 19.5513 10.109 19.4472 10.0657C19.3432 10.0223 19.2316 10 19.1189 10C19.0062 10 18.8946 10.0223 18.7905 10.0657C18.6865 10.109 18.592 10.1725 18.5126 10.2526L12.1514 16.6224L9.47882 13.9412C9.3964 13.8616 9.29911 13.799 9.1925 13.757C9.08589 13.715 8.97205 13.6944 8.85748 13.6964C8.74291 13.6984 8.62985 13.7229 8.52476 13.7686C8.41967 13.8142 8.3246 13.8802 8.24499 13.9626C8.16538 14.045 8.10278 14.1423 8.06077 14.2489C8.01875 14.3555 7.99815 14.4693 8.00013 14.5839C8.00211 14.6985 8.02664 14.8115 8.07232 14.9166C8.11799 15.0217 8.18392 15.1168 8.26634 15.1964L11.5452 18.4752C11.6245 18.5553 11.719 18.6188 11.823 18.6621C11.9271 18.7055 12.0387 18.7278 12.1514 18.7278C12.2641 18.7278 12.3757 18.7055 12.4798 18.6621C12.5838 18.6188 12.6783 18.5553 12.7576 18.4752L19.7251 11.5077C19.8118 11.4278 19.881 11.3307 19.9283 11.2227C19.9756 11.1147 20 10.9981 20 10.8802C20 10.7622 19.9756 10.6456 19.9283 10.5376C19.881 10.4296 19.8118 10.3325 19.7251 10.2526Z" fill="white" stroke="white"/>
</svg>
