<svg width="23" height="22" viewBox="0 0 23 22" fill="none" xmlns="http://www.w3.org/2000/svg">
<path fill-rule="evenodd" clip-rule="evenodd" d="M21.628 6.62337L20.9122 5.54328C20.3067 4.62936 18.9647 4.31408 17.9122 4.83847V4.83847C17.4112 5.0951 16.8135 5.16791 16.2507 5.04084C15.6879 4.91378 15.2063 4.59727 14.9122 4.16113C14.723 3.8839 14.6213 3.56815 14.6175 3.2458V3.2458C14.6346 2.72898 14.4103 2.22816 13.9959 1.85743C13.5814 1.48669 13.0121 1.27762 12.4175 1.27783H10.9754C10.3929 1.27783 9.83436 1.47967 9.42345 1.8387C9.01254 2.19773 8.78311 2.68435 8.78591 3.19088V3.19088C8.76864 4.23668 7.78871 5.07657 6.58591 5.07646C6.2152 5.07311 5.85208 4.9847 5.53327 4.82017V4.82017C4.48083 4.29577 3.13883 4.61105 2.53327 5.52497L1.76485 6.62337C1.16003 7.53615 1.51766 8.70236 2.56485 9.23207V9.23207C3.24554 9.5738 3.66487 10.2053 3.66487 10.8888C3.66487 11.5723 3.24554 12.2038 2.56485 12.5456V12.5456C1.51899 13.0717 1.16097 14.2351 1.76485 15.1451V15.1451L2.49117 16.2344C2.7749 16.6795 3.25095 17.0081 3.81398 17.1472C4.377 17.2863 4.98059 17.2247 5.49117 16.9758V16.9758C5.9931 16.7211 6.59122 16.6513 7.1526 16.782C7.71397 16.9126 8.19208 17.2328 8.48064 17.6714C8.66986 17.9486 8.77153 18.2644 8.77538 18.5868V18.5868C8.77538 19.6433 9.76035 20.4998 10.9754 20.4998H12.4175C13.6284 20.4998 14.6117 19.6489 14.6175 18.5959V18.5959C14.6147 18.0878 14.8456 17.5998 15.2587 17.2405C15.6719 16.8812 16.2332 16.6804 16.8175 16.6829C17.1873 16.6915 17.5489 16.7795 17.8701 16.9392V16.9392C18.9198 17.4651 20.261 17.1541 20.8701 16.2435V16.2435L21.628 15.1451C21.9214 14.7073 22.0019 14.1858 21.8517 13.6961C21.7016 13.2065 21.3331 12.7891 20.828 12.5364V12.5364C20.3229 12.2837 19.9544 11.8663 19.8043 11.3767C19.6541 10.8871 19.7347 10.3656 20.028 9.92772C20.2188 9.63809 20.4949 9.39795 20.828 9.23207V9.23207C21.8689 8.70265 22.2257 7.54325 21.628 6.63252V6.63252V6.62337Z" stroke="#C4C4C4" stroke-width="1.5" stroke-linecap="round" stroke-linejoin="round"/>
<ellipse cx="11.7015" cy="10.8886" rx="3.03158" ry="2.63616" stroke="#C4C4C4" stroke-width="1.5" stroke-linecap="round" stroke-linejoin="round"/>
</svg>
