<svg width="15" height="15" viewBox="0 0 15 15" fill="none" xmlns="http://www.w3.org/2000/svg">
<path d="M6.23373 1.51246C6.59295 0.406888 8.15705 0.406888 8.51627 1.51246L9.35072 4.08065C9.51137 4.57508 9.97212 4.90983 10.492 4.90983H13.1923C14.3548 4.90983 14.8381 6.39737 13.8977 7.08065L11.7131 8.66788C11.2925 8.97345 11.1165 9.51509 11.2771 10.0095L12.1116 12.5777C12.4708 13.6833 11.2054 14.6026 10.265 13.9194L8.08034 12.3321C7.65976 12.0265 7.09024 12.0265 6.66966 12.3321L4.48502 13.9193C3.54457 14.6026 2.27919 13.6833 2.63841 12.5777L3.47287 10.0095C3.63352 9.51509 3.45753 8.97345 3.03694 8.66788L0.852313 7.08065C-0.0881438 6.39737 0.395187 4.90983 1.55765 4.90983H4.25801C4.77788 4.90983 5.23863 4.57508 5.39928 4.08065L6.23373 1.51246Z" fill="#F5B662"/>
</svg>
