<svg width="120" height="120" viewBox="0 0 120 120" fill="none" xmlns="http://www.w3.org/2000/svg">
<g clip-path="url(#clip0_854_6646)">
<rect width="120" height="120" rx="60" fill="#189D60"/>
<path d="M134.211 73.4209L95.5265 33.9473L51.316 82.1052L22.1055 62.3683L55.2634 143.684L134.211 73.4209Z" fill="#138417"/>
<path d="M85.3852 34.994L49.2012 71.2266L34.6126 56.5913L34.6026 56.5813L34.5924 56.5714C33.9681 55.9684 33.2312 55.4942 32.4236 55.176C31.6161 54.8577 30.7538 54.7016 29.8859 54.7167C29.018 54.7317 28.1616 54.9175 27.3656 55.2635C26.5695 55.6095 25.8494 56.1088 25.2464 56.7331C24.6433 57.3574 24.1692 58.0944 23.8509 58.9019L25.2465 59.4519L23.8509 58.9019C23.5327 59.7094 23.3766 60.5718 23.3916 61.4396C23.4066 62.3075 23.5924 63.1639 23.9384 63.9599C24.2826 64.7518 24.7785 65.4685 25.3982 66.0696L44.5852 85.2566C44.5861 85.2574 44.5869 85.2583 44.5877 85.2591C45.1915 85.8671 45.9095 86.3498 46.7005 86.6794C47.4926 87.0094 48.3422 87.1793 49.2002 87.1793C50.0583 87.1793 50.9079 87.0094 51.7 86.6794C52.491 86.3498 53.209 85.8671 53.8128 85.2591C53.8136 85.2583 53.8144 85.2574 53.8152 85.2566L94.5909 44.4809C95.2397 43.8765 95.758 43.1456 96.1138 42.3331C96.474 41.5109 96.6599 40.6229 96.6599 39.7253C96.6599 38.8276 96.474 37.9397 96.1138 37.1174C95.7581 36.3053 95.2401 35.5747 94.5917 34.9704C93.9924 34.3723 93.2818 33.8969 92.5 33.5712C91.7079 33.2412 90.8583 33.0713 90.0002 33.0713C89.1422 33.0713 88.2926 33.2412 87.5005 33.5712C86.7091 33.9009 85.9908 34.3838 85.3869 34.9923C85.3864 34.9928 85.3858 34.9934 85.3852 34.994Z" fill="white" stroke="white" stroke-width="3"/>
</g>
<defs>
<clipPath id="clip0_854_6646">
<rect width="120" height="120" rx="60" fill="white"/>
</clipPath>
</defs>
</svg>
