<svg width="32" height="24" viewBox="0 0 32 24" fill="none" xmlns="http://www.w3.org/2000/svg">
<path fill-rule="evenodd" clip-rule="evenodd" d="M4.2953 1.11117C4.2953 0.497522 4.77607 6.10352e-05 5.36913 6.10352e-05H12.0268C12.6199 6.10352e-05 13.1007 0.497522 13.1007 1.11117C13.1007 1.72482 12.6199 2.22228 12.0268 2.22228H6.44295V8.00006C6.44295 8.61371 5.96218 9.11117 5.36913 9.11117C4.77607 9.11117 4.2953 8.61371 4.2953 8.00006V1.11117ZM4.2953 22.889C4.2953 23.5026 4.77607 24.0001 5.36913 24.0001H12.0268C12.6199 24.0001 13.1007 23.5026 13.1007 22.889C13.1007 22.2753 12.6199 21.7778 12.0268 21.7778H6.44295V16.0001C6.44295 15.3864 5.96218 14.889 5.36913 14.889C4.77607 14.889 4.2953 15.3864 4.2953 16.0001V22.889ZM26.4161 6.10352e-05C27.0092 6.10352e-05 27.4899 0.497522 27.4899 1.11117V8.00006C27.4899 8.61371 27.0092 9.11117 26.4161 9.11117C25.8231 9.11117 25.3423 8.61371 25.3423 8.00006V2.22228H19.7584C19.1653 2.22228 18.6846 1.72482 18.6846 1.11117C18.6846 0.497522 19.1653 6.10352e-05 19.7584 6.10352e-05H26.4161ZM27.4899 22.889C27.4899 23.5026 27.0092 24.0001 26.4161 24.0001H19.7584C19.1653 24.0001 18.6846 23.5026 18.6846 22.889C18.6846 22.2753 19.1653 21.7778 19.7584 21.7778H25.3423V16.0001C25.3423 15.3864 25.8231 14.889 26.4161 14.889C27.0092 14.889 27.4899 15.3864 27.4899 16.0001V22.889ZM1.07383 10.889C0.480768 10.889 0 11.3864 0 12.0001C0 12.6137 0.480768 13.1112 1.07383 13.1112H30.9262C31.5192 13.1112 32 12.6137 32 12.0001C32 11.3864 31.5192 10.889 30.9262 10.889H1.07383Z" fill="white"/>
</svg>
