<svg width="33" height="26" viewBox="0 0 33 26" fill="none" xmlns="http://www.w3.org/2000/svg">
<path d="M30.8715 10.6775C30.8681 10.693 30.8642 10.71 30.8598 10.728C30.8509 10.7643 30.839 10.8076 30.823 10.8551L30.8216 10.8591C30.62 11.4492 30.2742 11.9798 29.8178 12.408C28.0349 14.111 26.2519 15.8136 24.4687 17.5158L30.8715 10.6775ZM30.8715 10.6775L30.9955 10.5276L30.9969 10.1698L31 9.36502L31.0014 8.9967L30.8987 8.87523C30.749 8.21844 30.4045 7.62024 29.9108 7.15281C28.058 5.379 26.2031 3.60738 24.3462 1.83795C24.0286 1.5318 23.6487 1.29736 23.2335 1.14784L23.2296 1.14643C22.1074 0.747589 20.9265 1.18163 20.3758 2.25787L20.3694 2.27032L20.3634 2.28294C20.1535 2.72321 20.0473 3.20463 20.0542 3.69207C20.0514 3.97566 20.0501 4.2594 20.0503 4.5433C19.8253 4.56344 19.5955 4.58768 19.367 4.61962L30.8715 10.6775ZM20.2531 16.9366L20.2532 16.9366C20.1143 16.551 20.0455 16.1443 20.0506 15.7347C20.0505 15.569 20.0501 15.4004 20.0496 15.2301C20.0495 15.182 20.0493 15.1337 20.0492 15.0853C16.6267 15.4206 13.5717 16.612 10.8828 18.7141C9.84617 19.5299 8.91425 20.4583 8.10575 21.4798L8.10408 21.4819C7.89502 21.7446 7.61396 21.9822 7.24996 22.1086C6.87509 22.2389 6.49326 22.2227 6.14715 22.1055C5.81028 21.9915 5.4889 21.7769 5.26832 21.4312C5.05412 21.0955 4.99132 20.7245 5.00095 20.3887L20.2531 16.9366ZM20.2531 16.9366L20.2579 16.9493M20.2531 16.9366L20.2579 16.9493M20.2579 16.9493C20.6025 17.8669 21.4266 18.4809 22.4415 18.4615C23.3884 18.4434 24.0397 17.9256 24.4684 17.5161L20.2579 16.9493ZM13.097 6.77351C15.0281 5.59749 17.1522 4.92871 19.3668 4.61965L13.097 6.77351ZM13.097 6.77351C7.93495 9.91592 5.1684 14.4746 5.00096 20.3883L13.097 6.77351ZM20.0544 5.33348C20.0544 5.33281 20.0544 5.33196 20.0543 5.33094C20.0543 5.33155 20.0544 5.33216 20.0544 5.33277L20.0544 5.33348ZM30.8945 10.5609L30.8946 10.5607L30.8945 10.5609ZM20.9386 15.0179L20.9399 15.0178C20.9393 15.0178 20.9379 15.0179 20.9357 15.018C20.9366 15.018 20.9376 15.0179 20.9386 15.0179Z" fill="white" stroke="#189D60" stroke-width="2"/>
</svg>
