<svg width="24" height="25" viewBox="0 0 24 25" fill="none" xmlns="http://www.w3.org/2000/svg">
<path d="M15.45 8.68201L17.55 8.68214C19.93 8.68214 21.8853 10.6384 21.9951 13.0782L22 13.2947V18.353C22 20.8098 20.1127 22.8266 17.768 22.9398L17.56 22.9448H6.44C4.06 22.9448 2.11409 20.9983 2.00484 18.5496L2 18.3322L2 13.2843C2 10.8275 3.87791 8.80097 6.22199 8.68718L6.43 8.68214L8.45952 8.68201" stroke="white" stroke-linecap="round"/>
<path d="M11.1653 3.65395V7.67806L11.1652 14.1049L9.42488 12.4464C9.09857 12.1354 8.5656 12.1354 8.23929 12.4464C8.07614 12.6019 8 12.8092 8 13.0165C8 13.174 8.04873 13.3382 8.15175 13.4772L8.23929 13.5762L11.4045 16.6029C11.5568 16.7584 11.7743 16.8413 12.0027 16.8413C12.184 16.8413 12.3653 16.7837 12.5088 16.6745L12.5901 16.6029L15.7553 13.5762C16.0816 13.2653 16.0816 12.7574 15.7553 12.4464C15.4586 12.1637 14.9912 12.138 14.6635 12.3693L14.5697 12.4464L12.8402 14.1049L12.8404 7.67806V3.65395L12.8326 3.54863C12.7764 3.16912 12.4216 2.86951 12.0028 2.86951C11.5351 2.86951 11.1653 3.22607 11.1653 3.65395Z" fill="white"/>
</svg>
