<svg width="23" height="20" viewBox="0 0 23 20" fill="none" xmlns="http://www.w3.org/2000/svg">
<path fill-rule="evenodd" clip-rule="evenodd" d="M0 4.71429C0 2.10002 2.21162 0 4.90336 0H9.74576C12.429 0 14.6293 2.1014 14.6293 4.70476V5.43617C14.6293 5.70548 14.4109 5.92381 14.1416 5.92381C13.8723 5.92381 13.654 5.70548 13.654 5.43617V4.70476C13.654 2.64146 11.9049 0.952381 9.74576 0.952381H4.90336C2.73285 0.952381 0.975285 2.64284 0.975285 4.71429V15.2952C0.975285 17.3579 2.72364 19.0476 4.89344 19.0476H9.72591C11.9049 19.0476 13.654 17.349 13.654 15.2857V13.3448C13.654 13.0755 13.8723 12.8571 14.1416 12.8571C14.4109 12.8571 14.6293 13.0755 14.6293 13.3448V15.2857C14.6293 17.8891 12.429 20 9.72591 20H4.89344C2.20098 20 0 17.8993 0 15.2952V4.71429Z" fill="white"/>
<path d="M9.53953 10.8347H13.4495L19.6939 10.8348L18.0825 12.5751C17.7804 12.9014 17.7804 13.4344 18.0825 13.7607C18.2336 13.9239 18.435 14 18.6364 14C18.7895 14 18.9491 13.9513 19.0841 13.8482L19.1803 13.7607L22.1211 10.5955C22.2722 10.4432 22.3527 10.2257 22.3527 9.99728C22.3527 9.816 22.2968 9.63472 22.1907 9.4912L22.1211 9.40992L19.1803 6.24473C18.8781 5.91842 18.3847 5.91842 18.0825 6.24473C17.8079 6.54138 17.7829 7.00881 18.0076 7.33651L18.0825 7.43032L19.6939 9.15975L13.4495 9.15965H9.53953L9.4372 9.1674C9.06846 9.22362 8.77734 9.57841 8.77734 9.99717C8.77734 10.4649 9.12379 10.8347 9.53953 10.8347Z" fill="white"/>
</svg>
