<svg width="16" height="12" viewBox="0 0 16 12" fill="none" xmlns="http://www.w3.org/2000/svg">
<path d="M14.7319 1.2958C14.639 1.20207 14.5284 1.12768 14.4065 1.07691C14.2846 1.02614 14.1539 1 14.0219 1C13.8899 1 13.7592 1.02614 13.6373 1.07691C13.5155 1.12768 13.4049 1.20207 13.3119 1.2958L5.86192 8.7558L2.73192 5.6158C2.6354 5.52256 2.52146 5.44925 2.3966 5.40004C2.27175 5.35084 2.13843 5.32671 2.00424 5.32903C1.87006 5.33135 1.73765 5.36008 1.61458 5.41357C1.4915 5.46706 1.38016 5.54428 1.28692 5.6408C1.19368 5.73732 1.12037 5.85126 1.07117 5.97612C1.02196 6.10097 0.997831 6.2343 1.00015 6.36848C1.00247 6.50266 1.0312 6.63507 1.0847 6.75814C1.13819 6.88122 1.2154 6.99256 1.31192 7.0858L5.15192 10.9258C5.24489 11.0195 5.35549 11.0939 5.47735 11.1447C5.59921 11.1955 5.72991 11.2216 5.86192 11.2216C5.99393 11.2216 6.12464 11.1955 6.2465 11.1447C6.36836 11.0939 6.47896 11.0195 6.57192 10.9258L14.7319 2.7658C14.8334 2.67216 14.9144 2.5585 14.9698 2.432C15.0252 2.30551 15.0539 2.1689 15.0539 2.0308C15.0539 1.8927 15.0252 1.75609 14.9698 1.62959C14.9144 1.50309 14.8334 1.38944 14.7319 1.2958Z" fill="#189D60" stroke="#189D60"/>
</svg>
