<svg width="22" height="22" viewBox="0 0 22 22" fill="none" xmlns="http://www.w3.org/2000/svg">
<path d="M15.34 0.5H6.67V1.5H15.34V0.5ZM6.67 0.5C4.85361 0.5 3.30059 1.14038 2.20267 2.28664C1.10653 3.43103 0.5 5.04162 0.5 6.92H1.5C1.5 5.25838 2.03347 3.90897 2.92483 2.97836C3.81441 2.04962 5.09639 1.5 6.67 1.5V0.5ZM0.5 6.92V15.091H1.5V6.92H0.5ZM0.5 15.091C0.5 16.9643 1.10678 18.5721 2.20289 19.715C3.30076 20.8596 4.85363 21.5 6.67 21.5V20.5C5.09637 20.5 3.81424 19.9504 2.92461 19.0228C2.03322 18.0934 1.5 16.7467 1.5 15.091H0.5ZM6.67 21.5H15.34V20.5H6.67V21.5ZM15.34 21.5C17.1565 21.5 18.7071 20.8596 19.8025 19.7145C20.8961 18.5714 21.5 16.9637 21.5 15.091H20.5C20.5 16.7473 19.9689 18.0941 19.08 19.0232C18.1929 19.9504 16.9135 20.5 15.34 20.5V21.5ZM21.5 15.091V6.92H20.5V15.091H21.5ZM21.5 6.92C21.5 5.04222 20.8964 3.43171 19.8028 2.2871C18.7073 1.14046 17.1565 0.5 15.34 0.5V1.5C16.9135 1.5 18.1928 2.04954 19.0797 2.9779C19.9686 3.90829 20.5 5.25778 20.5 6.92H21.5Z" fill="#C4C4C4"/>
</svg>
