<svg width="24" height="24" viewBox="0 0 24 24" fill="none" xmlns="http://www.w3.org/2000/svg">
<path d="M11.2941 7.29C11.3892 7.19896 11.5013 7.12759 11.6241 7.08C11.7438 7.02709 11.8732 6.99977 12.0041 6.99977C12.135 6.99977 12.2644 7.02709 12.3841 7.08C12.5068 7.12759 12.619 7.19896 12.7141 7.29L16.7141 11.29C16.9024 11.4783 17.0082 11.7337 17.0082 12C17.0082 12.2663 16.9024 12.5217 16.7141 12.71C16.5258 12.8983 16.2704 13.0041 16.0041 13.0041C15.7378 13.0041 15.4824 12.8983 15.2941 12.71L13.0041 10.41V20C13.0041 20.2652 12.8987 20.5196 12.7112 20.7071C12.5237 20.8946 12.2693 21 12.0041 21C11.7389 21 11.4845 20.8946 11.297 20.7071C11.1094 20.5196 11.0041 20.2652 11.0041 20V10.41L8.71409 12.71C8.62085 12.8032 8.51016 12.8772 8.38834 12.9277C8.26652 12.9781 8.13595 13.0041 8.00409 13.0041C7.87223 13.0041 7.74166 12.9781 7.61984 12.9277C7.49802 12.8772 7.38733 12.8032 7.29409 12.71C7.20085 12.6168 7.12689 12.5061 7.07643 12.3842C7.02597 12.2624 7 12.1319 7 12C7 11.8681 7.02597 11.7376 7.07643 11.6157C7.12689 11.4939 7.20085 11.3832 7.29409 11.29L11.2941 7.29Z" fill="#189D60"/>
<path fill-rule="evenodd" clip-rule="evenodd" d="M6 4C6 3.44772 6.44772 3 7 3H17C17.5523 3 18 3.44772 18 4C18 4.55228 17.5523 5 17 5H7C6.44772 5 6 4.55228 6 4Z" fill="#189D60"/>
</svg>
