<svg width="120" height="120" viewBox="0 0 120 120" fill="none" xmlns="http://www.w3.org/2000/svg">
<g clip-path="url(#clip0_281_388)">
<rect width="120" height="120" rx="60" fill="#189D60"/>
<path d="M134.21 73.4211L95.526 33.9474L51.3155 82.1053L22.105 62.3684L55.2629 143.684L134.21 73.4211Z" fill="#138417"/>
<path d="M85.3848 34.9937L49.2007 71.2263L34.6121 56.5911L34.6021 56.581L34.5919 56.5712C33.9676 55.9681 33.2307 55.494 32.4231 55.1757C31.6156 54.8575 30.7533 54.7014 29.8854 54.7164C29.0176 54.7314 28.1612 54.9172 27.3651 55.2632C26.5691 55.6092 25.8489 56.1086 25.2459 56.7329C24.6428 57.3572 24.1687 58.0941 23.8504 58.9017L25.246 59.4516L23.8504 58.9017C23.5322 59.7092 23.3761 60.5715 23.3911 61.4394C23.4061 62.3072 23.5919 63.1636 23.9379 63.9597C24.2821 64.7515 24.778 65.4682 25.3977 66.0693L44.5848 85.2563C44.5856 85.2572 44.5864 85.258 44.5872 85.2589C45.191 85.8669 45.909 86.3496 46.7 86.6791C47.4921 87.0091 48.3417 87.179 49.1998 87.179C50.0578 87.179 50.9074 87.0091 51.6995 86.6791C52.4905 86.3496 53.2085 85.8669 53.8123 85.2589C53.8131 85.258 53.8139 85.2572 53.8148 85.2563L94.5904 44.4807C95.2392 43.8762 95.7575 43.1453 96.1133 42.3329C96.4735 41.5106 96.6594 40.6227 96.6594 39.725C96.6594 38.8274 96.4735 37.9394 96.1133 37.1172C95.7576 36.3051 95.2396 35.5745 94.5912 34.9701C93.9919 34.372 93.2813 33.8967 92.4995 33.5709C91.7074 33.2409 90.8578 33.071 89.9998 33.071C89.1417 33.071 88.2921 33.2409 87.5 33.5709C86.7086 33.9006 85.9904 34.3836 85.3865 34.992C85.3859 34.9926 85.3853 34.9932 85.3848 34.9937Z" fill="white" stroke="white" stroke-width="3"/>
</g>
<defs>
<clipPath id="clip0_281_388">
<rect width="120" height="120" rx="60" fill="white"/>
</clipPath>
</defs>
</svg>
