<svg width="36" height="28" viewBox="0 0 36 28" fill="none" xmlns="http://www.w3.org/2000/svg">
<path d="M32.4 28H3.6C1.61177 28 0 26.433 0 24.5V3.5C0 1.567 1.61177 0 3.6 0H32.4C34.3882 0 36 1.567 36 3.5V24.5C36 26.433 34.3882 28 32.4 28ZM3.6 3.5V24.5H32.4V3.5H3.6ZM24.3 21C21.8147 21 19.8 19.0412 19.8 16.625C19.8 14.2088 21.8147 12.25 24.3 12.25C26.7853 12.25 28.8 14.2088 28.8 16.625C28.8 17.7853 28.3259 18.8981 27.482 19.7186C26.6381 20.5391 25.4935 21 24.3 21ZM17.1 21C14.6147 21 12.6 19.0412 12.6 16.625C12.6 14.2088 14.6147 12.25 17.1 12.25C18.077 12.2508 19.0264 12.5658 19.8 13.146C18.6683 13.9635 18.0011 15.2534 18.0011 16.6241C18.0011 17.9949 18.6683 19.2848 19.8 20.1023C19.0266 20.6831 18.0773 20.9987 17.1 21Z" fill="#189D60"/>
</svg>
