<svg width="20" height="21" viewBox="0 0 20 21" fill="none" xmlns="http://www.w3.org/2000/svg">
<path d="M9.97739 14.0686C9.79863 14.0686 9.62389 14.1273 9.47527 14.2372C9.32664 14.347 9.2108 14.5032 9.14239 14.6859C9.07399 14.8687 9.05609 15.0697 9.09096 15.2637C9.12584 15.4577 9.21191 15.6359 9.33831 15.7757C9.46471 15.9156 9.62575 16.0108 9.80106 16.0494C9.97638 16.088 10.1581 16.0682 10.3232 15.9925C10.4884 15.9168 10.6295 15.7887 10.7289 15.6242C10.8282 15.4598 10.8812 15.2664 10.8812 15.0686C10.8812 14.8034 10.786 14.5491 10.6165 14.3615C10.447 14.174 10.2171 14.0686 9.97739 14.0686ZM19.6208 15.5386L12.3453 1.53863C12.1102 1.07215 11.7667 0.683589 11.3504 0.4131C10.9341 0.142611 10.4601 0 9.97739 0C9.49463 0 9.02063 0.142611 8.60436 0.4131C8.18808 0.683589 7.84462 1.07215 7.60946 1.53863L0.379156 15.5386C0.135852 15.9926 0.00511625 16.5097 0.000147138 17.0375C-0.00482198 17.5652 0.116152 18.0852 0.350854 18.5447C0.585557 19.0042 0.92568 19.3871 1.33689 19.6547C1.74809 19.9222 2.21582 20.065 2.69285 20.0686H17.2619C17.7428 20.0739 18.2163 19.9375 18.6338 19.6735C19.0513 19.4096 19.3979 19.0275 19.638 18.5665C19.878 18.1054 20.003 17.582 19.9999 17.05C19.9969 16.5179 19.8661 15.9963 19.6208 15.5386ZM18.0573 17.5386C17.978 17.6946 17.8625 17.8242 17.7226 17.9139C17.5827 18.0036 17.4236 18.0501 17.2619 18.0486H2.69285C2.53117 18.0501 2.3721 18.0036 2.23221 17.9139C2.09232 17.8242 1.97674 17.6946 1.89752 17.5386C1.8182 17.3866 1.77644 17.2142 1.77644 17.0386C1.77644 16.8631 1.8182 16.6906 1.89752 16.5386L9.12782 2.53863C9.20367 2.37483 9.3189 2.23736 9.46082 2.14137C9.60274 2.04538 9.76586 1.99459 9.9322 1.99459C10.0985 1.99459 10.2616 2.04538 10.4036 2.14137C10.5455 2.23736 10.6607 2.37483 10.7366 2.53863L18.0121 16.5386C18.1017 16.6885 18.1533 16.8623 18.1612 17.0418C18.1692 17.2213 18.1332 17.3998 18.0573 17.5586V17.5386ZM9.97739 6.06863C9.73769 6.06863 9.5078 6.17399 9.33831 6.36152C9.16882 6.54906 9.0736 6.80341 9.0736 7.06863V11.0686C9.0736 11.3338 9.16882 11.5882 9.33831 11.7757C9.5078 11.9633 9.73769 12.0686 9.97739 12.0686C10.2171 12.0686 10.447 11.9633 10.6165 11.7757C10.786 11.5882 10.8812 11.3338 10.8812 11.0686V7.06863C10.8812 6.80341 10.786 6.54906 10.6165 6.36152C10.447 6.17399 10.2171 6.06863 9.97739 6.06863Z" fill="#F24748"/>
</svg>
