<svg width="180" height="165" viewBox="0 0 180 165" fill="none" xmlns="http://www.w3.org/2000/svg">
<mask id="path-1-inside-1_323_503" fill="white">
<path fill-rule="evenodd" clip-rule="evenodd" d="M42.0786 19.4583C40.7544 18.8719 40.4762 17.1189 41.5923 16.1961C53.8163 6.08885 69.5778 0 86.6589 0C125.083 0 156.759 30.6382 156.759 68.5445C156.759 70.807 156.662 73.0504 156.471 75.2723C156.362 76.5348 155.095 77.3405 153.893 76.9414L105.585 60.9106C104.429 60.5269 103.881 59.2075 104.426 58.1179L108.011 50.9467C108.522 49.9259 108.076 48.6857 107.032 48.2236L42.0786 19.4583ZM19.1985 70.2853C17.9242 69.9649 16.6921 70.9403 16.7539 72.2528C17.588 89.9406 24.3492 106.357 35.0476 120.41C47.5536 136.99 63.101 151.436 80.7009 162.775C85.0967 165.593 88.7114 165.395 92.7166 162.775C110.217 151.436 125.764 136.99 138.378 120.41C143.357 113.865 147.485 106.808 150.559 99.3486C151.091 98.0587 150.126 96.6666 148.731 96.6666H65.8475C64.5614 96.6666 63.6096 95.4701 63.8988 94.2169L66.2258 84.1332C66.4707 83.0717 65.8212 82.0095 64.7647 81.7438L19.1985 70.2853Z"/>
</mask>
<path d="M35.0476 120.41L40.6361 116.195L40.6267 116.182L40.6173 116.17L35.0476 120.41ZM80.7009 162.775L76.9097 168.659L76.9163 168.663L76.9228 168.668L80.7009 162.775ZM92.7166 162.775L88.9103 156.9L88.8972 156.908L88.8842 156.917L92.7166 162.775ZM138.378 120.41L143.949 124.649L143.949 124.648L138.378 120.41ZM66.2258 84.1332L73.0465 85.7072L66.2258 84.1332ZM64.7647 81.7438L63.0576 88.5325L64.7647 81.7438ZM150.559 99.3486L157.031 102.016L150.559 99.3486ZM108.011 50.9467L101.75 47.8162L108.011 50.9467ZM107.032 48.2236L104.198 54.624L107.032 48.2236ZM105.585 60.9106L103.38 67.5543L105.585 60.9106ZM104.426 58.1179L98.1648 54.9875L104.426 58.1179ZM156.471 75.2723L163.445 75.8713L156.471 75.2723ZM153.893 76.9414L156.097 70.2977L153.893 76.9414ZM16.7539 72.2528L9.76171 72.5824L16.7539 72.2528ZM19.1985 70.2853L17.4913 77.0739L19.1985 70.2853ZM63.8988 94.2169L57.078 92.6429L63.8988 94.2169ZM42.0786 19.4583L39.2441 25.8588L42.0786 19.4583ZM86.6589 -7C67.8932 -7 50.5664 -0.306999 37.1317 10.8014L46.0529 21.5908C57.0661 12.4847 71.2625 7 86.6589 7V-7ZM163.759 68.5445C163.759 26.6029 128.777 -7 86.6589 -7V7C121.388 7 149.759 34.6734 149.759 68.5445H163.759ZM163.445 75.8713C163.653 73.4514 163.759 71.0082 163.759 68.5445H149.759C149.759 70.6058 149.67 72.6493 149.497 74.6733L163.445 75.8713ZM156.097 70.2977L107.789 54.2668L103.38 67.5543L151.688 83.5851L156.097 70.2977ZM110.687 61.2484L114.272 54.0772L101.75 47.8162L98.1648 54.9875L110.687 61.2484ZM109.867 41.8231L44.9131 13.0579L39.2441 25.8588L104.198 54.624L109.867 41.8231ZM9.76171 72.5824C10.672 91.888 18.0498 109.638 29.4779 124.65L40.6173 116.17C30.6485 103.075 24.5039 87.9933 23.7462 71.9231L9.76171 72.5824ZM29.4591 124.626C42.4627 141.865 58.619 156.875 76.9097 168.659L84.492 156.89C67.583 145.996 52.6446 132.115 40.6361 116.195L29.4591 124.626ZM76.9228 168.668C79.9206 170.589 83.2542 171.86 86.9438 171.814C90.6209 171.767 93.8138 170.422 96.5491 168.632L88.8842 156.917C87.6142 157.748 86.9972 157.812 86.7666 157.815C86.5487 157.817 85.877 157.778 84.4789 156.882L76.9228 168.668ZM96.523 168.649C114.705 156.868 130.849 141.868 143.949 124.649L132.807 116.172C120.68 132.112 105.728 146.003 88.9103 156.9L96.523 168.649ZM143.949 124.648C149.266 117.659 153.708 110.078 157.031 102.016L144.087 96.6815C141.261 103.538 137.448 110.072 132.807 116.172L143.949 124.648ZM65.8475 103.667H148.731V89.6666H65.8475V103.667ZM59.405 82.5592L57.078 92.6429L70.7195 95.7909L73.0465 85.7072L59.405 82.5592ZM17.4913 77.0739L63.0576 88.5325L66.4719 74.9552L20.9056 63.4967L17.4913 77.0739ZM73.0465 85.7072C74.1488 80.9308 71.2258 76.1507 66.4719 74.9552L63.0576 88.5325C60.4165 87.8683 58.7927 85.2127 59.405 82.5592L73.0465 85.7072ZM157.031 102.016C159.532 95.9476 154.923 89.6666 148.731 89.6666V103.667C145.329 103.667 142.65 100.17 144.087 96.6815L157.031 102.016ZM114.272 54.0772C116.569 49.4837 114.563 43.9027 109.867 41.8231L104.198 54.624C101.589 53.4687 100.474 50.3681 101.75 47.8162L114.272 54.0772ZM107.789 54.2668C110.68 55.226 112.049 58.5245 110.687 61.2484L98.1648 54.9875C95.7133 59.8905 98.1772 65.8278 103.38 67.5543L107.789 54.2668ZM149.497 74.6733C149.789 71.2707 153.157 69.3218 156.097 70.2977L151.688 83.5851C157.034 85.3591 162.936 81.7989 163.445 75.8713L149.497 74.6733ZM23.7462 71.9231C23.9133 75.4682 20.606 77.8572 17.4913 77.0739L20.9056 63.4967C15.2425 62.0726 9.47079 66.4124 9.76171 72.5824L23.7462 71.9231ZM65.8475 89.6666C69.063 89.6666 71.4425 92.6578 70.7195 95.7909L57.078 92.6429C55.7766 98.2824 60.0598 103.667 65.8475 103.667V89.6666ZM37.1317 10.8014C31.8124 15.1996 33.3965 23.2691 39.2441 25.8588L44.9131 13.0579C48.1124 14.4747 49.14 19.0383 46.0529 21.5908L37.1317 10.8014Z" fill="#189D60" mask="url(#path-1-inside-1_323_503)"/>
<path d="M76.006 90.0493L172.316 93.0907C173.486 93.1276 173.756 91.4682 172.634 91.133L95.6626 68.1417C95.0421 67.9563 94.7587 67.239 95.085 66.6796L101.664 55.4018C101.962 54.8897 101.753 54.2317 101.213 53.987L31.7875 22.5287C31.3859 22.3467 30.9125 22.4492 30.6221 22.781L1.0976 56.5234C0.60046 57.0915 0.888093 57.9846 1.62337 58.1558L79.8767 76.3792C80.5062 76.5258 80.8334 77.2222 80.5443 77.8003L75.1432 88.6026C74.8168 89.2552 75.2767 90.0263 76.006 90.0493Z" fill="#189D60"/>
</svg>
