<svg width="77" height="87" viewBox="0 0 77 87" fill="none" xmlns="http://www.w3.org/2000/svg">
<path fill-rule="evenodd" clip-rule="evenodd" d="M23.2527 77.6134C32.2653 77.7577 41.3969 77.6237 50.4223 77.6209C53.0437 77.6201 54.4175 77.2347 54.4098 80.2484C54.4036 82.6612 54.4375 78.3396 55.278 80.3833C56.2821 82.8248 59.5196 86.4241 62.734 86.6213C65.1981 87.0178 68.5472 84.1284 69.9669 81.9916C72.0662 78.8321 71.7047 75.7262 71.7047 71.5371L71.6629 1.56261C71.4965 0.520439 71.0583 0.445474 70.2832 0C56.1158 0 41.9483 0 27.781 0H24.971C24.336 0.0921926 23.8214 0.33382 23.4768 0.906685C22.9521 1.77877 23.2527 4.8102 23.2527 6.11723C23.2518 28.5882 23.5779 55.4566 23.2527 77.6134Z" fill="#E3F4FF"/>
<path fill-rule="evenodd" clip-rule="evenodd" d="M63.9808 86.9999C63.3513 86.7183 63.245 87.0899 62.7339 86.6212C59.5195 86.424 56.282 82.8247 55.2779 80.3832C53.7127 76.5774 55.3037 77.6193 50.4221 77.6208C41.3968 77.6236 32.2652 77.7576 23.2526 77.6133C21.996 77.3914 7.11073 77.5431 4.46857 77.5368C1.76608 77.5303 0.924253 77.5946 0.942678 80.4215C0.971539 84.85 1.70238 81.8249 5.00968 84.5827C5.35783 84.873 5.47367 84.9645 5.87503 85.2352C8.42733 86.9573 10.151 86.999 13.3761 86.9999H13.5334H13.693C30.4556 86.9999 47.2182 86.9999 63.9808 86.9999Z" fill="#9CC6DB"/>
<path fill-rule="evenodd" clip-rule="evenodd" d="M62.7334 86.6213C63.2446 87.0899 63.3508 86.7184 63.9804 87H65.5675C67.2233 86.9884 68.3097 86.8961 69.8556 86.2993C72.887 85.1291 75.16 82.5918 76.1913 79.4645C76.8276 77.5352 76.7527 75.8779 76.7527 73.4063V6.79689C76.7527 4.9787 77.2001 1.73821 76.3047 0.623852C76.0156 0.264067 75.4091 0.0839514 74.6558 0H70.2827C71.0578 0.445474 71.496 0.520389 71.6625 1.56261L71.7042 71.5371C71.7042 75.7262 72.0657 78.8321 69.9665 81.9916C68.5468 84.1284 65.1976 87.0178 62.7335 86.6213H62.7334Z" fill="#BDDFF4"/>
<path fill-rule="evenodd" clip-rule="evenodd" d="M31.4344 18C42.7605 18 54.0867 18 65.4127 18C68.5382 18 67.9574 15.8793 67.9574 12.371C67.9574 10.6384 67.234 10 65.4127 10H31.5278C28.6739 10 29.0125 11.7716 29.0125 13.9775C29.0125 16.2305 28.7566 18 31.4344 18Z" fill="#F24748"/>
<path fill-rule="evenodd" clip-rule="evenodd" d="M43.2224 34.7134C42.1698 34.9638 41.7021 36.0773 42.4707 36.8869C43.1658 37.6191 51.0346 37.2821 52.267 37.2821C54.3825 37.2821 64.7272 37.5424 65.9014 37.2042C66.7232 36.9675 67.122 35.8785 66.5172 35.127C65.9946 34.4778 64.6422 34.6559 63.6716 34.6573C61.2845 34.6608 44.0021 34.528 43.2224 34.7134V34.7134Z" fill="#9CC6DB"/>
<path fill-rule="evenodd" clip-rule="evenodd" d="M42.815 62.5688C42.0835 62.9515 41.7447 64.2664 42.7357 64.8196C43.5455 65.2716 65.8281 64.9814 66.0613 64.8872C67.0561 64.4859 66.9728 63.0667 66.2044 62.6201C65.4819 62.2002 57.4403 62.3988 56.2917 62.3988C54.4714 62.3988 43.5557 62.1811 42.815 62.5687V62.5688Z" fill="#9CC6DB"/>
<path fill-rule="evenodd" clip-rule="evenodd" d="M42.1995 50.4823C42.8706 51.0225 42.7403 51.1506 43.8811 51.1506H65.013C67.4606 51.1506 67.4316 48.5293 65.013 48.5293H43.8811C42.439 48.5293 42.0252 48.9907 42.1995 50.4823Z" fill="#9CC6DB"/>
<path fill-rule="evenodd" clip-rule="evenodd" d="M34.0134 57.3298C30.136 58.7874 32.1794 64.6107 36.1108 63.266C39.9614 61.949 37.9538 55.8486 34.0134 57.3298Z" fill="#F9B200"/>
<path fill-rule="evenodd" clip-rule="evenodd" d="M34.2749 43.3586C30.3384 44.39 31.7875 50.555 35.9096 49.4656C37.3565 49.0832 38.5564 47.4545 38.0821 45.5757C37.7113 44.1071 36.0932 42.8822 34.2749 43.3586Z" fill="#F9B200"/>
<path fill-rule="evenodd" clip-rule="evenodd" d="M34.4003 29.4879C30.2636 30.4819 31.8092 36.7608 35.9485 35.5844C39.5602 34.5579 38.4648 28.5113 34.4003 29.4879Z" fill="#F9B200"/>
<path fill-rule="evenodd" clip-rule="evenodd" d="M43.2541 45.4358C42.4593 45.6309 41.8196 46.2126 42.2454 47.2769C42.5429 48.0207 43.4291 48.0163 44.3781 48.0118C45.5933 48.0061 49.0739 48.1638 50.0146 47.9541C51.1316 47.7051 52.101 45.3597 48.7513 45.3761C47.6295 45.3816 44.0491 45.2407 43.2541 45.4358Z" fill="#9CC6DB"/>
<path fill-rule="evenodd" clip-rule="evenodd" d="M42.208 32.1783L42.1641 33.4703C42.9369 34.0319 42.8501 34.1315 44.0403 34.1452L49.0877 34.1451C50.2884 34.1325 50.1844 34.0436 50.9256 33.4765L50.9679 32.1691C49.5735 31.1867 49.1874 31.5136 46.5641 31.5136C44.0482 31.5136 43.5054 31.1866 42.208 32.1783Z" fill="#9CC6DB"/>
<path fill-rule="evenodd" clip-rule="evenodd" d="M43.8804 61.879H49.2473C51.5989 61.879 51.7159 59.2495 49.2473 59.2495H43.8804C41.3942 59.2495 41.554 61.879 43.8804 61.879Z" fill="#9CC6DB"/>
<path fill-rule="evenodd" clip-rule="evenodd" d="M42.8108 41.8329C41.3747 42.5764 42.4365 44.9607 44.0378 44.1156C45.4229 43.3847 44.3323 41.045 42.8108 41.8329Z" fill="#9CC6DB"/>
<path fill-rule="evenodd" clip-rule="evenodd" d="M43.0781 55.6268C41.2488 56.1867 42.2729 58.7336 43.979 58.0129C45.2088 57.4935 44.6593 55.1428 43.0781 55.6268Z" fill="#9CC6DB"/>
<path fill-rule="evenodd" clip-rule="evenodd" d="M42.1991 29.7555C42.7166 30.1587 43.0025 30.6771 43.9486 30.2742C44.4097 30.0778 44.875 29.4104 44.5822 28.6323C44.1821 27.5688 41.9104 27.1803 42.1991 29.7555Z" fill="#9CC6DB"/>
</svg>
